<ttFont>
    <TTGlyph name=".notdef" xMin="94" yMin="-220" xMax="514" yMax="1030">
      <contour>
        <pt x="94" y="1030" on="1"/>
        <pt x="514" y="1030" on="1"/>
        <pt x="514" y="-220" on="1"/>
        <pt x="94" y="-220" on="1"/>
      </contour>
      <contour>
        <pt x="469" y="-176" on="1"/>
        <pt x="469" y="987" on="1"/>
        <pt x="138" y="987" on="1"/>
        <pt x="138" y="-176" on="1"/>
      </contour>
    </TTGlyph>
    <TTGlyph name="A" xMin="9" yMin="0" xMax="517" yMax="740">
      <contour>
        <pt x="9" y="6" on="1"/>
        <pt x="235" y="740" on="1"/>
        <pt x="291" y="740" on="1"/>
        <pt x="517" y="6" on="1"/>
        <pt x="517" y="0" on="1"/>
        <pt x="475" y="0" on="1"/>
        <pt x="400" y="244" on="1"/>
        <pt x="127" y="244" on="1"/>
        <pt x="51" y="0" on="1"/>
        <pt x="9" y="0" on="1"/>
      </contour>
      <contour>
        <pt x="387" y="285" on="1"/>
        <pt x="296" y="580" on="1"/>
        <pt x="264" y="692" on="1"/>
        <pt x="261" y="692" on="1"/>
        <pt x="230" y="580" on="1"/>
        <pt x="138" y="285" on="1"/>
      </contour>
    </TTGlyph>
    <TTGlyph name="A.sc" xMin="14" yMin="0" xMax="459" yMax="577">
      <contour>
        <pt x="14" y="5" on="1"/>
        <pt x="208" y="577" on="1"/>
        <pt x="266" y="577" on="1"/>
        <pt x="459" y="5" on="1"/>
        <pt x="459" y="0" on="1"/>
        <pt x="418" y="0" on="1"/>
        <pt x="354" y="185" on="1"/>
        <pt x="119" y="185" on="1"/>
        <pt x="55" y="0" on="1"/>
        <pt x="14" y="0" on="1"/>
      </contour>
      <contour>
        <pt x="343" y="222" on="1"/>
        <pt x="266" y="448" on="1"/>
        <pt x="238" y="535" on="1"/>
        <pt x="234" y="535" on="1"/>
        <pt x="208" y="448" on="1"/>
        <pt x="129" y="222" on="1"/>
      </contour>
    </TTGlyph>
    <TTGlyph name="AE" xMin="7" yMin="0" xMax="690" yMax="740">
      <contour>
        <pt x="7" y="6" on="1"/>
        <pt x="254" y="740" on="1"/>
        <pt x="681" y="740" on="1"/>
        <pt x="681" y="699" on="1"/>
        <pt x="381" y="699" on="1"/>
        <pt x="394" y="396" on="1"/>
        <pt x="649" y="396" on="1"/>
        <pt x="649" y="355" on="1"/>
        <pt x="396" y="355" on="1"/>
        <pt x="411" y="41" on="1"/>
        <pt x="690" y="41" on="1"/>
        <pt x="690" y="0" on="1"/>
        <pt x="368" y="0" on="1"/>
        <pt x="358" y="244" on="1"/>
        <pt x="132" y="244" on="1"/>
        <pt x="50" y="0" on="1"/>
        <pt x="7" y="0" on="1"/>
      </contour>
      <contour>
        <pt x="146" y="285" on="1"/>
        <pt x="356" y="285" on="1"/>
        <pt x="339" y="698" on="1"/>
        <pt x="285" y="698" on="1"/>
      </contour>
    </TTGlyph>
    <TTGlyph name="AE.sc" xMin="17" yMin="0" xMax="609" yMax="577">
      <contour>
        <pt x="17" y="5" on="1"/>
        <pt x="229" y="577" on="1"/>
        <pt x="602" y="577" on="1"/>
        <pt x="602" y="538" on="1"/>
        <pt x="346" y="538" on="1"/>
        <pt x="357" y="312" on="1"/>
        <pt x="575" y="312" on="1"/>
        <pt x="575" y="274" on="1"/>
        <pt x="359" y="274" on="1"/>
        <pt x="372" y="40" on="1"/>
        <pt x="609" y="40" on="1"/>
        <pt x="609" y="0" on="1"/>
        <pt x="329" y="0" on="1"/>
        <pt x="322" y="185" on="1"/>
        <pt x="129" y="185" on="1"/>
        <pt x="60" y="0" on="1"/>
        <pt x="17" y="0" on="1"/>
      </contour>
      <contour>
        <pt x="142" y="223" on="1"/>
        <pt x="319" y="223" on="1"/>
        <pt x="306" y="539" on="1"/>
        <pt x="260" y="539" on="1"/>
      </contour>
    </TTGlyph>
    <TTGlyph name="AEacute" xMin="7" yMin="0" xMax="690" yMax="914">
      <contour>
        <pt x="420" y="788" on="1"/>
        <pt x="498" y="914" on="1"/>
        <pt x="545" y="914" on="1"/>
        <pt x="458" y="784" on="1"/>
      </contour>
      <contour>
        <pt x="7" y="6" on="1"/>
        <pt x="254" y="740" on="1"/>
        <pt x="681" y="740" on="1"/>
        <pt x="681" y="699" on="1"/>
        <pt x="381" y="699" on="1"/>
        <pt x="394" y="396" on="1"/>
        <pt x="649" y="396" on="1"/>
        <pt x="649" y="355" on="1"/>
        <pt x="396" y="355" on="1"/>
        <pt x="411" y="41" on="1"/>
        <pt x="690" y="41" on="1"/>
        <pt x="690" y="0" on="1"/>
        <pt x="368" y="0" on="1"/>
        <pt x="358" y="244" on="1"/>
        <pt x="132" y="244" on="1"/>
        <pt x="50" y="0" on="1"/>
        <pt x="7" y="0" on="1"/>
      </contour>
      <contour>
        <pt x="146" y="285" on="1"/>
        <pt x="356" y="285" on="1"/>
        <pt x="339" y="698" on="1"/>
        <pt x="285" y="698" on="1"/>
      </contour>
    </TTGlyph>
    <TTGlyph name="AEacute.sc" xMin="17" yMin="0" xMax="609" yMax="718">
      <contour>
        <pt x="17" y="5" on="1"/>
        <pt x="229" y="577" on="1"/>
        <pt x="602" y="577" on="1"/>
        <pt x="602" y="538" on="1"/>
        <pt x="346" y="538" on="1"/>
        <pt x="357" y="312" on="1"/>
        <pt x="575" y="312" on="1"/>
        <pt x="575" y="274" on="1"/>
        <pt x="359" y="274" on="1"/>
        <pt x="372" y="40" on="1"/>
        <pt x="609" y="40" on="1"/>
        <pt x="609" y="0" on="1"/>
        <pt x="329" y="0" on="1"/>
        <pt x="322" y="185" on="1"/>
        <pt x="129" y="185" on="1"/>
        <pt x="60" y="0" on="1"/>
        <pt x="17" y="0" on="1"/>
      </contour>
      <contour>
        <pt x="319" y="223" on="1"/>
        <pt x="306" y="539" on="1"/>
        <pt x="260" y="539" on="1"/>
        <pt x="142" y="223" on="1"/>
      </contour>
      <contour>
        <pt x="372" y="616" on="1"/>
        <pt x="438" y="718" on="1"/>
        <pt x="484" y="718" on="1"/>
        <pt x="408" y="613" on="1"/>
      </contour>
    </TTGlyph>
    <TTGlyph name="Aacute" xMin="9" yMin="0" xMax="517" yMax="914">
      <contour>
        <pt x="9" y="6" on="1"/>
        <pt x="235" y="740" on="1"/>
        <pt x="291" y="740" on="1"/>
        <pt x="517" y="6" on="1"/>
        <pt x="517" y="0" on="1"/>
        <pt x="475" y="0" on="1"/>
        <pt x="400" y="244" on="1"/>
        <pt x="127" y="244" on="1"/>
        <pt x="51" y="0" on="1"/>
        <pt x="9" y="0" on="1"/>
      </contour>
      <contour>
        <pt x="387" y="285" on="1"/>
        <pt x="296" y="580" on="1"/>
        <pt x="264" y="692" on="1"/>
        <pt x="261" y="692" on="1"/>
        <pt x="230" y="580" on="1"/>
        <pt x="138" y="285" on="1"/>
      </contour>
      <contour>
        <pt x="241" y="788" on="1"/>
        <pt x="319" y="914" on="1"/>
        <pt x="366" y="914" on="1"/>
        <pt x="279" y="784" on="1"/>
      </contour>
    </TTGlyph>
    <TTGlyph name="Aacute.sc" xMin="14" yMin="0" xMax="459" yMax="718">
      <contour>
        <pt x="14" y="5" on="1"/>
        <pt x="208" y="577" on="1"/>
        <pt x="266" y="577" on="1"/>
        <pt x="459" y="5" on="1"/>
        <pt x="459" y="0" on="1"/>
        <pt x="418" y="0" on="1"/>
        <pt x="354" y="185" on="1"/>
        <pt x="119" y="185" on="1"/>
        <pt x="55" y="0" on="1"/>
        <pt x="14" y="0" on="1"/>
      </contour>
      <contour>
        <pt x="343" y="222" on="1"/>
        <pt x="266" y="448" on="1"/>
        <pt x="238" y="535" on="1"/>
        <pt x="234" y="535" on="1"/>
        <pt x="208" y="448" on="1"/>
        <pt x="129" y="222" on="1"/>
      </contour>
      <contour>
        <pt x="215" y="616" on="1"/>
        <pt x="281" y="718" on="1"/>
        <pt x="327" y="718" on="1"/>
        <pt x="252" y="613" on="1"/>
      </contour>
    </TTGlyph>
    <TTGlyph name="Abreve" xMin="9" yMin="0" xMax="517" yMax="950">
      <contour>
        <pt x="9" y="6" on="1"/>
        <pt x="235" y="740" on="1"/>
        <pt x="291" y="740" on="1"/>
        <pt x="517" y="6" on="1"/>
        <pt x="517" y="0" on="1"/>
        <pt x="475" y="0" on="1"/>
        <pt x="400" y="244" on="1"/>
        <pt x="127" y="244" on="1"/>
        <pt x="51" y="0" on="1"/>
        <pt x="9" y="0" on="1"/>
      </contour>
      <contour>
        <pt x="387" y="285" on="1"/>
        <pt x="296" y="580" on="1"/>
        <pt x="264" y="692" on="1"/>
        <pt x="261" y="692" on="1"/>
        <pt x="230" y="580" on="1"/>
        <pt x="138" y="285" on="1"/>
      </contour>
      <contour>
        <pt x="265" y="814" on="1"/>
        <pt x="199" y="814" on="0"/>
        <pt x="126" y="887" on="0"/>
        <pt x="126" y="950" on="1"/>
        <pt x="166" y="950" on="1"/>
        <pt x="166" y="903" on="0"/>
        <pt x="217" y="852" on="0"/>
        <pt x="265" y="852" on="1"/>
        <pt x="312" y="852" on="0"/>
        <pt x="363" y="903" on="0"/>
        <pt x="363" y="950" on="1"/>
        <pt x="403" y="950" on="1"/>
        <pt x="403" y="887" on="0"/>
        <pt x="330" y="814" on="0"/>
      </contour>
    </TTGlyph>
    <TTGlyph name="Abreve.sc" xMin="14" yMin="0" xMax="459" yMax="743">
      <contour>
        <pt x="238" y="634" on="1"/>
        <pt x="181" y="634" on="0"/>
        <pt x="116" y="692" on="0"/>
        <pt x="116" y="743" on="1"/>
        <pt x="154" y="743" on="1"/>
        <pt x="154" y="705" on="0"/>
        <pt x="197" y="666" on="0"/>
        <pt x="238" y="666" on="1"/>
        <pt x="278" y="666" on="0"/>
        <pt x="322" y="705" on="0"/>
        <pt x="322" y="743" on="1"/>
        <pt x="359" y="743" on="1"/>
        <pt x="359" y="692" on="0"/>
        <pt x="295" y="634" on="0"/>
      </contour>
      <contour>
        <pt x="14" y="5" on="1"/>
        <pt x="208" y="577" on="1"/>
        <pt x="266" y="577" on="1"/>
        <pt x="459" y="5" on="1"/>
        <pt x="459" y="0" on="1"/>
        <pt x="418" y="0" on="1"/>
        <pt x="354" y="185" on="1"/>
        <pt x="119" y="185" on="1"/>
        <pt x="55" y="0" on="1"/>
        <pt x="14" y="0" on="1"/>
      </contour>
      <contour>
        <pt x="343" y="222" on="1"/>
        <pt x="266" y="448" on="1"/>
        <pt x="238" y="535" on="1"/>
        <pt x="234" y="535" on="1"/>
        <pt x="208" y="448" on="1"/>
        <pt x="129" y="222" on="1"/>
      </contour>
    </TTGlyph>
    <TTGlyph name="Acircumflex" xMin="9" yMin="0" xMax="517" yMax="935">
      <contour>
        <pt x="9" y="6" on="1"/>
        <pt x="235" y="740" on="1"/>
        <pt x="291" y="740" on="1"/>
        <pt x="517" y="6" on="1"/>
        <pt x="517" y="0" on="1"/>
        <pt x="475" y="0" on="1"/>
        <pt x="400" y="244" on="1"/>
        <pt x="127" y="244" on="1"/>
        <pt x="51" y="0" on="1"/>
        <pt x="9" y="0" on="1"/>
      </contour>
      <contour>
        <pt x="387" y="285" on="1"/>
        <pt x="296" y="580" on="1"/>
        <pt x="264" y="692" on="1"/>
        <pt x="261" y="692" on="1"/>
        <pt x="230" y="580" on="1"/>
        <pt x="138" y="285" on="1"/>
      </contour>
      <contour>
        <pt x="139" y="863" on="1"/>
        <pt x="263" y="935" on="1"/>
        <pt x="387" y="863" on="1"/>
        <pt x="387" y="817" on="1"/>
        <pt x="263" y="889" on="1"/>
        <pt x="139" y="817" on="1"/>
      </contour>
    </TTGlyph>
    <TTGlyph name="Acircumflex.sc" xMin="14" yMin="0" xMax="459" yMax="732">
      <contour>
        <pt x="14" y="5" on="1"/>
        <pt x="208" y="577" on="1"/>
        <pt x="266" y="577" on="1"/>
        <pt x="459" y="5" on="1"/>
        <pt x="459" y="0" on="1"/>
        <pt x="418" y="0" on="1"/>
        <pt x="354" y="185" on="1"/>
        <pt x="119" y="185" on="1"/>
        <pt x="55" y="0" on="1"/>
        <pt x="14" y="0" on="1"/>
      </contour>
      <contour>
        <pt x="343" y="222" on="1"/>
        <pt x="266" y="448" on="1"/>
        <pt x="238" y="535" on="1"/>
        <pt x="234" y="535" on="1"/>
        <pt x="208" y="448" on="1"/>
        <pt x="129" y="222" on="1"/>
      </contour>
      <contour>
        <pt x="128" y="676" on="1"/>
        <pt x="237" y="732" on="1"/>
        <pt x="345" y="676" on="1"/>
        <pt x="345" y="635" on="1"/>
        <pt x="236" y="691" on="1"/>
        <pt x="128" y="635" on="1"/>
      </contour>
    </TTGlyph>
    <TTGlyph name="Adblgrave" xMin="9" yMin="0" xMax="517" yMax="914">
      <contour>
        <pt x="9" y="6" on="1"/>
        <pt x="235" y="740" on="1"/>
        <pt x="291" y="740" on="1"/>
        <pt x="517" y="6" on="1"/>
        <pt x="517" y="0" on="1"/>
        <pt x="475" y="0" on="1"/>
        <pt x="400" y="244" on="1"/>
        <pt x="127" y="244" on="1"/>
        <pt x="51" y="0" on="1"/>
        <pt x="9" y="0" on="1"/>
      </contour>
      <contour>
        <pt x="387" y="285" on="1"/>
        <pt x="296" y="580" on="1"/>
        <pt x="264" y="692" on="1"/>
        <pt x="261" y="692" on="1"/>
        <pt x="230" y="580" on="1"/>
        <pt x="138" y="285" on="1"/>
      </contour>
      <contour>
        <pt x="181" y="784" on="1"/>
        <pt x="94" y="914" on="1"/>
        <pt x="139" y="914" on="1"/>
        <pt x="217" y="798" on="1"/>
      </contour>
      <contour>
        <pt x="312" y="784" on="1"/>
        <pt x="225" y="914" on="1"/>
        <pt x="270" y="914" on="1"/>
        <pt x="348" y="798" on="1"/>
      </contour>
    </TTGlyph>
    <TTGlyph name="Adblgrave.sc" xMin="14" yMin="0" xMax="459" yMax="718">
      <contour>
        <pt x="14" y="5" on="1"/>
        <pt x="208" y="577" on="1"/>
        <pt x="266" y="577" on="1"/>
        <pt x="459" y="5" on="1"/>
        <pt x="459" y="0" on="1"/>
        <pt x="418" y="0" on="1"/>
        <pt x="354" y="185" on="1"/>
        <pt x="119" y="185" on="1"/>
        <pt x="55" y="0" on="1"/>
        <pt x="14" y="0" on="1"/>
      </contour>
      <contour>
        <pt x="343" y="222" on="1"/>
        <pt x="266" y="448" on="1"/>
        <pt x="238" y="535" on="1"/>
        <pt x="234" y="535" on="1"/>
        <pt x="208" y="448" on="1"/>
        <pt x="129" y="222" on="1"/>
      </contour>
      <contour>
        <pt x="89" y="718" on="1"/>
        <pt x="132" y="718" on="1"/>
        <pt x="198" y="623" on="1"/>
        <pt x="164" y="612" on="1"/>
      </contour>
      <contour>
        <pt x="203" y="718" on="1"/>
        <pt x="246" y="718" on="1"/>
        <pt x="312" y="623" on="1"/>
        <pt x="280" y="612" on="1"/>
      </contour>
    </TTGlyph>
    <TTGlyph name="Adieresis" xMin="9" yMin="0" xMax="517" yMax="880">
      <contour>
        <pt x="9" y="6" on="1"/>
        <pt x="235" y="740" on="1"/>
        <pt x="291" y="740" on="1"/>
        <pt x="517" y="6" on="1"/>
        <pt x="517" y="0" on="1"/>
        <pt x="475" y="0" on="1"/>
        <pt x="400" y="244" on="1"/>
        <pt x="127" y="244" on="1"/>
        <pt x="51" y="0" on="1"/>
        <pt x="9" y="0" on="1"/>
      </contour>
      <contour>
        <pt x="387" y="285" on="1"/>
        <pt x="296" y="580" on="1"/>
        <pt x="264" y="692" on="1"/>
        <pt x="261" y="692" on="1"/>
        <pt x="230" y="580" on="1"/>
        <pt x="138" y="285" on="1"/>
      </contour>
      <contour>
        <pt x="177" y="813" on="1"/>
        <pt x="163" y="813" on="0"/>
        <pt x="144" y="829" on="0"/>
        <pt x="144" y="846" on="1"/>
        <pt x="144" y="864" on="0"/>
        <pt x="163" y="880" on="0"/>
        <pt x="177" y="880" on="1"/>
        <pt x="191" y="880" on="0"/>
        <pt x="211" y="863" on="0"/>
        <pt x="211" y="846" on="1"/>
        <pt x="211" y="829" on="0"/>
        <pt x="191" y="813" on="0"/>
      </contour>
      <contour>
        <pt x="349" y="813" on="1"/>
        <pt x="335" y="813" on="0"/>
        <pt x="315" y="829" on="0"/>
        <pt x="315" y="846" on="1"/>
        <pt x="315" y="864" on="0"/>
        <pt x="335" y="880" on="0"/>
        <pt x="349" y="880" on="1"/>
        <pt x="363" y="880" on="0"/>
        <pt x="384" y="863" on="0"/>
        <pt x="384" y="846" on="1"/>
        <pt x="384" y="829" on="0"/>
        <pt x="363" y="813" on="0"/>
      </contour>
    </TTGlyph>
    <TTGlyph name="Adieresis.sc" xMin="14" yMin="0" xMax="459" yMax="695">
      <contour>
        <pt x="159" y="634" on="1"/>
        <pt x="145" y="634" on="0"/>
        <pt x="128" y="648" on="0"/>
        <pt x="128" y="664" on="1"/>
        <pt x="128" y="681" on="0"/>
        <pt x="145" y="695" on="0"/>
        <pt x="159" y="695" on="1"/>
        <pt x="173" y="695" on="0"/>
        <pt x="191" y="680" on="0"/>
        <pt x="191" y="664" on="1"/>
        <pt x="191" y="648" on="0"/>
        <pt x="173" y="634" on="0"/>
      </contour>
      <contour>
        <pt x="314" y="634" on="1"/>
        <pt x="300" y="634" on="0"/>
        <pt x="282" y="648" on="0"/>
        <pt x="282" y="664" on="1"/>
        <pt x="282" y="681" on="0"/>
        <pt x="300" y="695" on="0"/>
        <pt x="314" y="695" on="1"/>
        <pt x="328" y="695" on="0"/>
        <pt x="346" y="680" on="0"/>
        <pt x="346" y="664" on="1"/>
        <pt x="346" y="648" on="0"/>
        <pt x="328" y="634" on="0"/>
      </contour>
      <contour>
        <pt x="14" y="5" on="1"/>
        <pt x="208" y="577" on="1"/>
        <pt x="266" y="577" on="1"/>
        <pt x="459" y="5" on="1"/>
        <pt x="459" y="0" on="1"/>
        <pt x="418" y="0" on="1"/>
        <pt x="354" y="185" on="1"/>
        <pt x="119" y="185" on="1"/>
        <pt x="55" y="0" on="1"/>
        <pt x="14" y="0" on="1"/>
      </contour>
      <contour>
        <pt x="343" y="222" on="1"/>
        <pt x="266" y="448" on="1"/>
        <pt x="238" y="535" on="1"/>
        <pt x="234" y="535" on="1"/>
        <pt x="208" y="448" on="1"/>
        <pt x="129" y="222" on="1"/>
      </contour>
    </TTGlyph>
    <TTGlyph name="Agrave" xMin="9" yMin="0" xMax="517" yMax="914">
      <contour>
        <pt x="9" y="6" on="1"/>
        <pt x="235" y="740" on="1"/>
        <pt x="291" y="740" on="1"/>
        <pt x="517" y="6" on="1"/>
        <pt x="517" y="0" on="1"/>
        <pt x="475" y="0" on="1"/>
        <pt x="400" y="244" on="1"/>
        <pt x="127" y="244" on="1"/>
        <pt x="51" y="0" on="1"/>
        <pt x="9" y="0" on="1"/>
      </contour>
      <contour>
        <pt x="387" y="285" on="1"/>
        <pt x="296" y="580" on="1"/>
        <pt x="264" y="692" on="1"/>
        <pt x="261" y="692" on="1"/>
        <pt x="230" y="580" on="1"/>
        <pt x="138" y="285" on="1"/>
      </contour>
      <contour>
        <pt x="240" y="784" on="1"/>
        <pt x="153" y="914" on="1"/>
        <pt x="200" y="914" on="1"/>
        <pt x="278" y="798" on="1"/>
      </contour>
    </TTGlyph>
    <TTGlyph name="Agrave.sc" xMin="14" yMin="0" xMax="459" yMax="718">
      <contour>
        <pt x="14" y="5" on="1"/>
        <pt x="208" y="577" on="1"/>
        <pt x="266" y="577" on="1"/>
        <pt x="459" y="5" on="1"/>
        <pt x="459" y="0" on="1"/>
        <pt x="418" y="0" on="1"/>
        <pt x="354" y="185" on="1"/>
        <pt x="119" y="185" on="1"/>
        <pt x="55" y="0" on="1"/>
        <pt x="14" y="0" on="1"/>
      </contour>
      <contour>
        <pt x="343" y="222" on="1"/>
        <pt x="266" y="448" on="1"/>
        <pt x="238" y="535" on="1"/>
        <pt x="234" y="535" on="1"/>
        <pt x="208" y="448" on="1"/>
        <pt x="129" y="222" on="1"/>
      </contour>
      <contour>
        <pt x="215" y="613" on="1"/>
        <pt x="140" y="718" on="1"/>
        <pt x="185" y="718" on="1"/>
        <pt x="252" y="623" on="1"/>
      </contour>
    </TTGlyph>
    <TTGlyph name="Ainvertedbreve" xMin="9" yMin="0" xMax="517" yMax="960">
      <contour>
        <pt x="9" y="6" on="1"/>
        <pt x="235" y="740" on="1"/>
        <pt x="291" y="740" on="1"/>
        <pt x="517" y="6" on="1"/>
        <pt x="517" y="0" on="1"/>
        <pt x="475" y="0" on="1"/>
        <pt x="400" y="244" on="1"/>
        <pt x="127" y="244" on="1"/>
        <pt x="51" y="0" on="1"/>
        <pt x="9" y="0" on="1"/>
      </contour>
      <contour>
        <pt x="387" y="285" on="1"/>
        <pt x="296" y="580" on="1"/>
        <pt x="264" y="692" on="1"/>
        <pt x="261" y="692" on="1"/>
        <pt x="230" y="580" on="1"/>
        <pt x="138" y="285" on="1"/>
      </contour>
      <contour>
        <pt x="361" y="824" on="1"/>
        <pt x="361" y="871" on="0"/>
        <pt x="310" y="923" on="0"/>
        <pt x="263" y="923" on="1"/>
        <pt x="215" y="923" on="0"/>
        <pt x="164" y="871" on="0"/>
        <pt x="164" y="824" on="1"/>
        <pt x="124" y="824" on="1"/>
        <pt x="124" y="887" on="0"/>
        <pt x="197" y="960" on="0"/>
        <pt x="263" y="960" on="1"/>
        <pt x="328" y="960" on="0"/>
        <pt x="401" y="887" on="0"/>
        <pt x="401" y="824" on="1"/>
      </contour>
    </TTGlyph>
    <TTGlyph name="Ainvertedbreve.sc" xMin="14" yMin="0" xMax="459" yMax="750">
      <contour>
        <pt x="116" y="642" on="1"/>
        <pt x="116" y="693" on="0"/>
        <pt x="179" y="750" on="0"/>
        <pt x="236" y="750" on="1"/>
        <pt x="294" y="750" on="0"/>
        <pt x="357" y="693" on="0"/>
        <pt x="357" y="642" on="1"/>
        <pt x="320" y="642" on="1"/>
        <pt x="320" y="678" on="0"/>
        <pt x="277" y="718" on="0"/>
        <pt x="236" y="718" on="1"/>
        <pt x="196" y="718" on="0"/>
        <pt x="153" y="678" on="0"/>
        <pt x="153" y="642" on="1"/>
      </contour>
      <contour>
        <pt x="14" y="5" on="1"/>
        <pt x="208" y="577" on="1"/>
        <pt x="266" y="577" on="1"/>
        <pt x="459" y="5" on="1"/>
        <pt x="459" y="0" on="1"/>
        <pt x="418" y="0" on="1"/>
        <pt x="354" y="185" on="1"/>
        <pt x="119" y="185" on="1"/>
        <pt x="55" y="0" on="1"/>
        <pt x="14" y="0" on="1"/>
      </contour>
      <contour>
        <pt x="343" y="222" on="1"/>
        <pt x="266" y="448" on="1"/>
        <pt x="238" y="535" on="1"/>
        <pt x="234" y="535" on="1"/>
        <pt x="208" y="448" on="1"/>
        <pt x="129" y="222" on="1"/>
      </contour>
    </TTGlyph>
    <TTGlyph name="Amacron" xMin="9" yMin="0" xMax="517" yMax="881">
      <contour>
        <pt x="9" y="6" on="1"/>
        <pt x="235" y="740" on="1"/>
        <pt x="291" y="740" on="1"/>
        <pt x="517" y="6" on="1"/>
        <pt x="517" y="0" on="1"/>
        <pt x="475" y="0" on="1"/>
        <pt x="400" y="244" on="1"/>
        <pt x="127" y="244" on="1"/>
        <pt x="51" y="0" on="1"/>
        <pt x="9" y="0" on="1"/>
      </contour>
      <contour>
        <pt x="387" y="285" on="1"/>
        <pt x="296" y="580" on="1"/>
        <pt x="264" y="692" on="1"/>
        <pt x="261" y="692" on="1"/>
        <pt x="230" y="580" on="1"/>
        <pt x="138" y="285" on="1"/>
      </contour>
      <contour>
        <pt x="145" y="881" on="1"/>
        <pt x="362" y="881" on="1"/>
        <pt x="362" y="842" on="1"/>
        <pt x="145" y="842" on="1"/>
      </contour>
    </TTGlyph>
    <TTGlyph name="Amacron.sc" xMin="14" yMin="0" xMax="459" yMax="692">
      <contour>
        <pt x="14" y="5" on="1"/>
        <pt x="208" y="577" on="1"/>
        <pt x="266" y="577" on="1"/>
        <pt x="459" y="5" on="1"/>
        <pt x="459" y="0" on="1"/>
        <pt x="418" y="0" on="1"/>
        <pt x="354" y="185" on="1"/>
        <pt x="119" y="185" on="1"/>
        <pt x="55" y="0" on="1"/>
        <pt x="14" y="0" on="1"/>
      </contour>
      <contour>
        <pt x="343" y="222" on="1"/>
        <pt x="266" y="448" on="1"/>
        <pt x="238" y="535" on="1"/>
        <pt x="234" y="535" on="1"/>
        <pt x="208" y="448" on="1"/>
        <pt x="129" y="222" on="1"/>
      </contour>
      <contour>
        <pt x="133" y="692" on="1"/>
        <pt x="326" y="692" on="1"/>
        <pt x="326" y="656" on="1"/>
        <pt x="133" y="656" on="1"/>
      </contour>
    </TTGlyph>
    <TTGlyph name="Aogonek" xMin="9" yMin="-220" xMax="517" yMax="740">
      <contour>
        <pt x="468" y="-220" on="1"/>
        <pt x="430" y="-220" on="0"/>
        <pt x="387" y="-176" on="0"/>
        <pt x="387" y="-137" on="1"/>
        <pt x="387" y="-58" on="0"/>
        <pt x="480" y="0" on="1"/>
        <pt x="475" y="0" on="1"/>
        <pt x="400" y="244" on="1"/>
        <pt x="127" y="244" on="1"/>
        <pt x="51" y="0" on="1"/>
        <pt x="9" y="0" on="1"/>
        <pt x="9" y="6" on="1"/>
        <pt x="235" y="740" on="1"/>
        <pt x="291" y="740" on="1"/>
        <pt x="517" y="6" on="1"/>
        <pt x="517" y="-18" on="1"/>
        <pt x="469" y="-43" on="0"/>
        <pt x="426" y="-98" on="0"/>
        <pt x="426" y="-133" on="1"/>
        <pt x="426" y="-182" on="0"/>
        <pt x="474" y="-182" on="1"/>
        <pt x="497" y="-182" on="0"/>
        <pt x="517" y="-172" on="1"/>
        <pt x="517" y="-208" on="1"/>
        <pt x="493" y="-220" on="0"/>
      </contour>
      <contour>
        <pt x="387" y="285" on="1"/>
        <pt x="296" y="580" on="1"/>
        <pt x="264" y="692" on="1"/>
        <pt x="261" y="692" on="1"/>
        <pt x="230" y="580" on="1"/>
        <pt x="138" y="285" on="1"/>
      </contour>
    </TTGlyph>
    <TTGlyph name="Aogonek.sc" xMin="13" yMin="-171" xMax="458" yMax="577">
      <contour>
        <pt x="416" y="-171" on="1"/>
        <pt x="381" y="-171" on="0"/>
        <pt x="343" y="-137" on="0"/>
        <pt x="343" y="-105" on="1"/>
        <pt x="343" y="-45" on="0"/>
        <pt x="419" y="0" on="1"/>
        <pt x="417" y="0" on="1"/>
        <pt x="353" y="185" on="1"/>
        <pt x="118" y="185" on="1"/>
        <pt x="54" y="0" on="1"/>
        <pt x="13" y="0" on="1"/>
        <pt x="13" y="5" on="1"/>
        <pt x="207" y="577" on="1"/>
        <pt x="265" y="577" on="1"/>
        <pt x="458" y="5" on="1"/>
        <pt x="458" y="-13" on="1"/>
        <pt x="421" y="-27" on="0"/>
        <pt x="379" y="-75" on="0"/>
        <pt x="379" y="-102" on="1"/>
        <pt x="379" y="-137" on="0"/>
        <pt x="419" y="-137" on="1"/>
        <pt x="442" y="-137" on="0"/>
        <pt x="458" y="-129" on="1"/>
        <pt x="458" y="-162" on="1"/>
        <pt x="438" y="-171" on="0"/>
      </contour>
      <contour>
        <pt x="342" y="222" on="1"/>
        <pt x="265" y="454" on="1"/>
        <pt x="237" y="535" on="1"/>
        <pt x="233" y="535" on="1"/>
        <pt x="207" y="454" on="1"/>
        <pt x="128" y="222" on="1"/>
      </contour>
    </TTGlyph>
    <TTGlyph name="Aring" xMin="9" yMin="0" xMax="517" yMax="912">
      <contour>
        <pt x="9" y="6" on="1"/>
        <pt x="228" y="716" on="1"/>
        <pt x="201" y="727" on="0"/>
        <pt x="173" y="778" on="0"/>
        <pt x="173" y="811" on="1"/>
        <pt x="173" y="853" on="0"/>
        <pt x="218" y="912" on="0"/>
        <pt x="263" y="912" on="1"/>
        <pt x="308" y="912" on="0"/>
        <pt x="354" y="853" on="0"/>
        <pt x="354" y="811" on="1"/>
        <pt x="354" y="778" on="0"/>
        <pt x="325" y="727" on="0"/>
        <pt x="298" y="716" on="1"/>
        <pt x="517" y="6" on="1"/>
        <pt x="517" y="0" on="1"/>
        <pt x="475" y="0" on="1"/>
        <pt x="400" y="244" on="1"/>
        <pt x="127" y="244" on="1"/>
        <pt x="51" y="0" on="1"/>
        <pt x="9" y="0" on="1"/>
      </contour>
      <contour>
        <pt x="387" y="285" on="1"/>
        <pt x="296" y="580" on="1"/>
        <pt x="264" y="692" on="1"/>
        <pt x="261" y="692" on="1"/>
        <pt x="230" y="580" on="1"/>
        <pt x="138" y="285" on="1"/>
      </contour>
      <contour>
        <pt x="263" y="746" on="1"/>
        <pt x="289" y="746" on="0"/>
        <pt x="318" y="783" on="0"/>
        <pt x="318" y="811" on="1"/>
        <pt x="318" y="839" on="0"/>
        <pt x="290" y="876" on="0"/>
        <pt x="263" y="876" on="1"/>
        <pt x="236" y="876" on="0"/>
        <pt x="209" y="839" on="0"/>
        <pt x="209" y="811" on="1"/>
        <pt x="209" y="783" on="0"/>
        <pt x="236" y="746" on="0"/>
      </contour>
    </TTGlyph>
    <TTGlyph name="Aring.sc" xMin="14" yMin="0" xMax="459" yMax="772">
      <contour>
        <pt x="14" y="5" on="1"/>
        <pt x="208" y="577" on="1"/>
        <pt x="266" y="577" on="1"/>
        <pt x="459" y="5" on="1"/>
        <pt x="459" y="0" on="1"/>
        <pt x="418" y="0" on="1"/>
        <pt x="354" y="185" on="1"/>
        <pt x="119" y="185" on="1"/>
        <pt x="55" y="0" on="1"/>
        <pt x="14" y="0" on="1"/>
      </contour>
      <contour>
        <pt x="343" y="222" on="1"/>
        <pt x="266" y="448" on="1"/>
        <pt x="238" y="535" on="1"/>
        <pt x="234" y="535" on="1"/>
        <pt x="208" y="448" on="1"/>
        <pt x="129" y="222" on="1"/>
      </contour>
      <contour>
        <pt x="235" y="612" on="1"/>
        <pt x="197" y="612" on="0"/>
        <pt x="156" y="659" on="0"/>
        <pt x="156" y="692" on="1"/>
        <pt x="156" y="725" on="0"/>
        <pt x="197" y="772" on="0"/>
        <pt x="235" y="772" on="1"/>
        <pt x="273" y="772" on="0"/>
        <pt x="315" y="725" on="0"/>
        <pt x="315" y="692" on="1"/>
        <pt x="315" y="659" on="0"/>
        <pt x="273" y="612" on="0"/>
      </contour>
      <contour>
        <pt x="235" y="641" on="1"/>
        <pt x="258" y="641" on="0"/>
        <pt x="283" y="670" on="0"/>
        <pt x="283" y="692" on="1"/>
        <pt x="283" y="714" on="0"/>
        <pt x="259" y="742" on="0"/>
        <pt x="235" y="742" on="1"/>
        <pt x="211" y="742" on="0"/>
        <pt x="188" y="714" on="0"/>
        <pt x="188" y="692" on="1"/>
        <pt x="188" y="670" on="0"/>
        <pt x="212" y="641" on="0"/>
      </contour>
    </TTGlyph>
    <TTGlyph name="Aringacute" xMin="10" yMin="0" xMax="518" yMax="917">
      <contour>
        <pt x="10" y="6" on="1"/>
        <pt x="205" y="636" on="1"/>
        <pt x="187" y="650" on="0"/>
        <pt x="170" y="694" on="0"/>
        <pt x="170" y="720" on="1"/>
        <pt x="170" y="759" on="0"/>
        <pt x="209" y="817" on="0"/>
        <pt x="247" y="822" on="1"/>
        <pt x="311" y="917" on="1"/>
        <pt x="358" y="917" on="1"/>
        <pt x="292" y="818" on="1"/>
        <pt x="324" y="809" on="0"/>
        <pt x="356" y="755" on="0"/>
        <pt x="356" y="720" on="1"/>
        <pt x="356" y="695" on="0"/>
        <pt x="339" y="653" on="0"/>
        <pt x="322" y="639" on="1"/>
        <pt x="518" y="6" on="1"/>
        <pt x="518" y="0" on="1"/>
        <pt x="476" y="0" on="1"/>
        <pt x="401" y="244" on="1"/>
        <pt x="127" y="244" on="1"/>
        <pt x="52" y="0" on="1"/>
        <pt x="10" y="0" on="1"/>
      </contour>
      <contour>
        <pt x="262" y="654" on="1"/>
        <pt x="289" y="654" on="0"/>
        <pt x="318" y="692" on="0"/>
        <pt x="318" y="720" on="1"/>
        <pt x="318" y="749" on="0"/>
        <pt x="290" y="786" on="0"/>
        <pt x="262" y="786" on="1"/>
        <pt x="235" y="786" on="0"/>
        <pt x="208" y="749" on="0"/>
        <pt x="208" y="720" on="1"/>
        <pt x="208" y="692" on="0"/>
        <pt x="236" y="654" on="0"/>
      </contour>
      <contour>
        <pt x="388" y="285" on="1"/>
        <pt x="298" y="580" on="1"/>
        <pt x="287" y="620" on="1"/>
        <pt x="241" y="620" on="1"/>
        <pt x="230" y="580" on="1"/>
        <pt x="139" y="285" on="1"/>
      </contour>
    </TTGlyph>
    <TTGlyph name="Aringacute.sc" xMin="14" yMin="0" xMax="459" yMax="724">
      <contour>
        <pt x="14" y="5" on="1"/>
        <pt x="182" y="500" on="1"/>
        <pt x="167" y="511" on="0"/>
        <pt x="152" y="545" on="0"/>
        <pt x="152" y="565" on="1"/>
        <pt x="152" y="597" on="0"/>
        <pt x="186" y="643" on="0"/>
        <pt x="220" y="648" on="1"/>
        <pt x="275" y="724" on="1"/>
        <pt x="320" y="724" on="1"/>
        <pt x="263" y="644" on="1"/>
        <pt x="290" y="636" on="0"/>
        <pt x="319" y="594" on="0"/>
        <pt x="319" y="565" on="1"/>
        <pt x="319" y="545" on="0"/>
        <pt x="305" y="512" on="0"/>
        <pt x="290" y="501" on="1"/>
        <pt x="459" y="5" on="1"/>
        <pt x="459" y="0" on="1"/>
        <pt x="418" y="0" on="1"/>
        <pt x="353" y="185" on="1"/>
        <pt x="119" y="185" on="1"/>
        <pt x="55" y="0" on="1"/>
        <pt x="14" y="0" on="1"/>
      </contour>
      <contour>
        <pt x="235" y="514" on="1"/>
        <pt x="258" y="514" on="0"/>
        <pt x="285" y="543" on="0"/>
        <pt x="285" y="565" on="1"/>
        <pt x="285" y="588" on="0"/>
        <pt x="259" y="617" on="0"/>
        <pt x="235" y="617" on="1"/>
        <pt x="211" y="617" on="0"/>
        <pt x="187" y="588" on="0"/>
        <pt x="187" y="565" on="1"/>
        <pt x="187" y="543" on="0"/>
        <pt x="212" y="514" on="0"/>
      </contour>
      <contour>
        <pt x="343" y="222" on="1"/>
        <pt x="266" y="448" on="1"/>
        <pt x="255" y="484" on="1"/>
        <pt x="217" y="483" on="1"/>
        <pt x="208" y="448" on="1"/>
        <pt x="129" y="222" on="1"/>
      </contour>
    </TTGlyph>
    <TTGlyph name="Atilde" xMin="9" yMin="0" xMax="517" yMax="903">
      <contour>
        <pt x="9" y="6" on="1"/>
        <pt x="235" y="740" on="1"/>
        <pt x="291" y="740" on="1"/>
        <pt x="517" y="6" on="1"/>
        <pt x="517" y="0" on="1"/>
        <pt x="475" y="0" on="1"/>
        <pt x="400" y="244" on="1"/>
        <pt x="127" y="244" on="1"/>
        <pt x="51" y="0" on="1"/>
        <pt x="9" y="0" on="1"/>
      </contour>
      <contour>
        <pt x="387" y="285" on="1"/>
        <pt x="296" y="580" on="1"/>
        <pt x="264" y="692" on="1"/>
        <pt x="261" y="692" on="1"/>
        <pt x="230" y="580" on="1"/>
        <pt x="138" y="285" on="1"/>
      </contour>
      <contour>
        <pt x="119" y="849" on="1"/>
        <pt x="133" y="869" on="0"/>
        <pt x="183" y="903" on="0"/>
        <pt x="207" y="903" on="1"/>
        <pt x="226" y="903" on="0"/>
        <pt x="256" y="890" on="0"/>
        <pt x="284" y="873" on="0"/>
        <pt x="311" y="860" on="0"/>
        <pt x="328" y="860" on="1"/>
        <pt x="344" y="860" on="0"/>
        <pt x="371" y="882" on="0"/>
        <pt x="381" y="900" on="1"/>
        <pt x="408" y="880" on="1"/>
        <pt x="397" y="854" on="0"/>
        <pt x="349" y="821" on="0"/>
        <pt x="325" y="821" on="1"/>
        <pt x="306" y="821" on="0"/>
        <pt x="276" y="834" on="0"/>
        <pt x="248" y="851" on="0"/>
        <pt x="220" y="864" on="0"/>
        <pt x="204" y="864" on="1"/>
        <pt x="187" y="864" on="0"/>
        <pt x="154" y="841" on="0"/>
        <pt x="143" y="825" on="1"/>
      </contour>
    </TTGlyph>
    <TTGlyph name="Atilde.sc" xMin="14" yMin="0" xMax="459" yMax="709">
      <contour>
        <pt x="14" y="5" on="1"/>
        <pt x="208" y="577" on="1"/>
        <pt x="266" y="577" on="1"/>
        <pt x="459" y="5" on="1"/>
        <pt x="459" y="0" on="1"/>
        <pt x="418" y="0" on="1"/>
        <pt x="354" y="185" on="1"/>
        <pt x="119" y="185" on="1"/>
        <pt x="55" y="0" on="1"/>
        <pt x="14" y="0" on="1"/>
      </contour>
      <contour>
        <pt x="343" y="222" on="1"/>
        <pt x="266" y="448" on="1"/>
        <pt x="238" y="535" on="1"/>
        <pt x="234" y="535" on="1"/>
        <pt x="208" y="448" on="1"/>
        <pt x="129" y="222" on="1"/>
      </contour>
      <contour>
        <pt x="110" y="662" on="1"/>
        <pt x="124" y="681" on="0"/>
        <pt x="167" y="709" on="0"/>
        <pt x="189" y="709" on="1"/>
        <pt x="205" y="709" on="0"/>
        <pt x="232" y="699" on="0"/>
        <pt x="256" y="686" on="0"/>
        <pt x="281" y="676" on="0"/>
        <pt x="295" y="676" on="1"/>
        <pt x="323" y="676" on="0"/>
        <pt x="343" y="707" on="1"/>
        <pt x="366" y="691" on="1"/>
        <pt x="355" y="668" on="0"/>
        <pt x="313" y="640" on="0"/>
        <pt x="291" y="640" on="1"/>
        <pt x="275" y="640" on="0"/>
        <pt x="248" y="651" on="0"/>
        <pt x="224" y="663" on="0"/>
        <pt x="199" y="674" on="0"/>
        <pt x="185" y="674" on="1"/>
        <pt x="170" y="674" on="0"/>
        <pt x="142" y="657" on="0"/>
        <pt x="131" y="643" on="1"/>
      </contour>
    </TTGlyph>
    <TTGlyph name="B" xMin="79" yMin="-10" xMax="499" yMax="750">
      <contour>
        <pt x="269" y="-10" on="1"/>
        <pt x="247" y="-10" on="0"/>
        <pt x="193" y="-8" on="0"/>
        <pt x="141" y="-3" on="0"/>
        <pt x="94" y="2" on="0"/>
        <pt x="79" y="5" on="1"/>
        <pt x="79" y="737" on="1"/>
        <pt x="112" y="741" on="0"/>
        <pt x="161" y="746" on="0"/>
        <pt x="200" y="749" on="0"/>
        <pt x="234" y="750" on="0"/>
        <pt x="252" y="750" on="1"/>
        <pt x="366" y="750" on="0"/>
        <pt x="476" y="654" on="0"/>
        <pt x="476" y="553" on="1"/>
        <pt x="476" y="481" on="0"/>
        <pt x="413" y="391" on="0"/>
        <pt x="356" y="380" on="1"/>
        <pt x="356" y="376" on="1"/>
        <pt x="422" y="367" on="0"/>
        <pt x="499" y="269" on="0"/>
        <pt x="499" y="192" on="1"/>
        <pt x="499" y="-10" on="0"/>
      </contour>
      <contour>
        <pt x="271" y="27" on="1"/>
        <pt x="363" y="28" on="0"/>
        <pt x="454" y="108" on="0"/>
        <pt x="454" y="193" on="1"/>
        <pt x="454" y="278" on="0"/>
        <pt x="358" y="355" on="0"/>
        <pt x="248" y="355" on="1"/>
        <pt x="122" y="355" on="1"/>
        <pt x="122" y="37" on="1"/>
        <pt x="129" y="35" on="0"/>
        <pt x="164" y="32" on="0"/>
        <pt x="207" y="29" on="0"/>
        <pt x="253" y="27" on="0"/>
      </contour>
      <contour>
        <pt x="247" y="395" on="1"/>
        <pt x="298" y="395" on="0"/>
        <pt x="367" y="412" on="0"/>
        <pt x="411" y="449" on="0"/>
        <pt x="430" y="509" on="0"/>
        <pt x="430" y="552" on="1"/>
        <pt x="430" y="633" on="0"/>
        <pt x="344" y="711" on="0"/>
        <pt x="253" y="711" on="1"/>
        <pt x="218" y="711" on="0"/>
        <pt x="157" y="707" on="0"/>
        <pt x="122" y="702" on="1"/>
        <pt x="122" y="395" on="1"/>
      </contour>
    </TTGlyph>
    <TTGlyph name="B.sc" xMin="74" yMin="-8" xMax="440" yMax="585">
      <contour>
        <pt x="238" y="-8" on="1"/>
        <pt x="219" y="-8" on="0"/>
        <pt x="174" y="-6" on="0"/>
        <pt x="129" y="-3" on="0"/>
        <pt x="88" y="1" on="0"/>
        <pt x="74" y="4" on="1"/>
        <pt x="74" y="575" on="1"/>
        <pt x="102" y="578" on="0"/>
        <pt x="145" y="581" on="0"/>
        <pt x="179" y="584" on="0"/>
        <pt x="209" y="585" on="0"/>
        <pt x="224" y="585" on="1"/>
        <pt x="325" y="585" on="0"/>
        <pt x="420" y="510" on="0"/>
        <pt x="420" y="430" on="1"/>
        <pt x="420" y="375" on="0"/>
        <pt x="368" y="305" on="0"/>
        <pt x="318" y="296" on="1"/>
        <pt x="318" y="293" on="1"/>
        <pt x="375" y="285" on="0"/>
        <pt x="440" y="211" on="0"/>
        <pt x="440" y="151" on="1"/>
        <pt x="440" y="-8" on="0"/>
      </contour>
      <contour>
        <pt x="241" y="27" on="1"/>
        <pt x="396" y="27" on="0"/>
        <pt x="396" y="152" on="1"/>
        <pt x="396" y="217" on="0"/>
        <pt x="317" y="273" on="0"/>
        <pt x="224" y="273" on="1"/>
        <pt x="116" y="273" on="1"/>
        <pt x="116" y="36" on="1"/>
        <pt x="123" y="34" on="0"/>
        <pt x="151" y="31" on="0"/>
        <pt x="187" y="29" on="0"/>
        <pt x="225" y="27" on="0"/>
      </contour>
      <contour>
        <pt x="223" y="310" on="1"/>
        <pt x="307" y="310" on="0"/>
        <pt x="376" y="364" on="0"/>
        <pt x="376" y="429" on="1"/>
        <pt x="376" y="491" on="0"/>
        <pt x="304" y="548" on="0"/>
        <pt x="227" y="548" on="1"/>
        <pt x="197" y="548" on="0"/>
        <pt x="145" y="545" on="0"/>
        <pt x="116" y="541" on="1"/>
        <pt x="116" y="310" on="1"/>
      </contour>
    </TTGlyph>
    <TTGlyph name="C" xMin="48" yMin="-10" xMax="450" yMax="748">
      <contour>
        <pt x="353" y="-10" on="1"/>
        <pt x="272" y="-9" on="0"/>
        <pt x="157" y="35" on="0"/>
        <pt x="83" y="127" on="0"/>
        <pt x="48" y="270" on="0"/>
        <pt x="48" y="369" on="1"/>
        <pt x="48" y="471" on="0"/>
        <pt x="81" y="615" on="0"/>
        <pt x="154" y="706" on="0"/>
        <pt x="269" y="748" on="0"/>
        <pt x="351" y="748" on="1"/>
        <pt x="372" y="748" on="0"/>
        <pt x="422" y="745" on="0"/>
        <pt x="450" y="740" on="1"/>
        <pt x="450" y="700" on="1"/>
        <pt x="435" y="703" on="0"/>
        <pt x="383" y="707" on="0"/>
        <pt x="356" y="707" on="1"/>
        <pt x="284" y="707" on="0"/>
        <pt x="184" y="671" on="0"/>
        <pt x="121" y="590" on="0"/>
        <pt x="93" y="462" on="0"/>
        <pt x="93" y="369" on="1"/>
        <pt x="93" y="280" on="0"/>
        <pt x="123" y="152" on="0"/>
        <pt x="186" y="70" on="0"/>
        <pt x="283" y="31" on="0"/>
        <pt x="351" y="31" on="1"/>
        <pt x="365" y="31" on="0"/>
        <pt x="425" y="35" on="0"/>
        <pt x="450" y="39" on="1"/>
        <pt x="450" y="-1" on="1"/>
        <pt x="427" y="-6" on="0"/>
        <pt x="385" y="-10" on="0"/>
      </contour>
    </TTGlyph>
    <TTGlyph name="C.sc" xMin="47" yMin="-8" xMax="396" yMax="584">
      <contour>
        <pt x="307" y="-8" on="1"/>
        <pt x="239" y="-7" on="0"/>
        <pt x="140" y="27" on="0"/>
        <pt x="77" y="99" on="0"/>
        <pt x="47" y="211" on="0"/>
        <pt x="47" y="288" on="1"/>
        <pt x="47" y="367" on="0"/>
        <pt x="76" y="479" on="0"/>
        <pt x="138" y="551" on="0"/>
        <pt x="237" y="584" on="0"/>
        <pt x="306" y="584" on="1"/>
        <pt x="326" y="584" on="0"/>
        <pt x="371" y="580" on="0"/>
        <pt x="396" y="577" on="1"/>
        <pt x="396" y="538" on="1"/>
        <pt x="381" y="540" on="0"/>
        <pt x="334" y="544" on="0"/>
        <pt x="311" y="544" on="1"/>
        <pt x="252" y="544" on="0"/>
        <pt x="168" y="517" on="0"/>
        <pt x="115" y="456" on="0"/>
        <pt x="91" y="358" on="0"/>
        <pt x="91" y="288" on="1"/>
        <pt x="91" y="152" on="0"/>
        <pt x="195" y="32" on="0"/>
        <pt x="308" y="32" on="1"/>
        <pt x="321" y="32" on="0"/>
        <pt x="374" y="36" on="0"/>
        <pt x="396" y="38" on="1"/>
        <pt x="396" y="1" on="1"/>
        <pt x="376" y="-4" on="0"/>
        <pt x="336" y="-8" on="0"/>
      </contour>
    </TTGlyph>
    <TTGlyph name="Cacute" xMin="48" yMin="-10" xMax="450" yMax="914">
      <contour>
        <pt x="353" y="-10" on="1"/>
        <pt x="272" y="-9" on="0"/>
        <pt x="157" y="35" on="0"/>
        <pt x="83" y="127" on="0"/>
        <pt x="48" y="270" on="0"/>
        <pt x="48" y="369" on="1"/>
        <pt x="48" y="471" on="0"/>
        <pt x="81" y="615" on="0"/>
        <pt x="154" y="706" on="0"/>
        <pt x="269" y="748" on="0"/>
        <pt x="351" y="748" on="1"/>
        <pt x="372" y="748" on="0"/>
        <pt x="422" y="745" on="0"/>
        <pt x="450" y="740" on="1"/>
        <pt x="450" y="700" on="1"/>
        <pt x="435" y="703" on="0"/>
        <pt x="383" y="707" on="0"/>
        <pt x="356" y="707" on="1"/>
        <pt x="284" y="707" on="0"/>
        <pt x="184" y="671" on="0"/>
        <pt x="121" y="590" on="0"/>
        <pt x="93" y="462" on="0"/>
        <pt x="93" y="369" on="1"/>
        <pt x="93" y="280" on="0"/>
        <pt x="123" y="152" on="0"/>
        <pt x="186" y="70" on="0"/>
        <pt x="283" y="31" on="0"/>
        <pt x="351" y="31" on="1"/>
        <pt x="365" y="31" on="0"/>
        <pt x="425" y="35" on="0"/>
        <pt x="450" y="39" on="1"/>
        <pt x="450" y="-1" on="1"/>
        <pt x="427" y="-6" on="0"/>
        <pt x="385" y="-10" on="0"/>
      </contour>
      <contour>
        <pt x="279" y="788" on="1"/>
        <pt x="357" y="914" on="1"/>
        <pt x="404" y="914" on="1"/>
        <pt x="317" y="784" on="1"/>
      </contour>
    </TTGlyph>
    <TTGlyph name="Cacute.sc" xMin="47" yMin="-8" xMax="396" yMax="718">
      <contour>
        <pt x="307" y="-8" on="1"/>
        <pt x="239" y="-7" on="0"/>
        <pt x="140" y="27" on="0"/>
        <pt x="77" y="99" on="0"/>
        <pt x="47" y="211" on="0"/>
        <pt x="47" y="288" on="1"/>
        <pt x="47" y="367" on="0"/>
        <pt x="76" y="479" on="0"/>
        <pt x="138" y="551" on="0"/>
        <pt x="237" y="584" on="0"/>
        <pt x="306" y="584" on="1"/>
        <pt x="326" y="584" on="0"/>
        <pt x="371" y="580" on="0"/>
        <pt x="396" y="577" on="1"/>
        <pt x="396" y="538" on="1"/>
        <pt x="381" y="540" on="0"/>
        <pt x="334" y="544" on="0"/>
        <pt x="311" y="544" on="1"/>
        <pt x="252" y="544" on="0"/>
        <pt x="168" y="517" on="0"/>
        <pt x="115" y="456" on="0"/>
        <pt x="91" y="358" on="0"/>
        <pt x="91" y="288" on="1"/>
        <pt x="91" y="152" on="0"/>
        <pt x="195" y="32" on="0"/>
        <pt x="308" y="32" on="1"/>
        <pt x="321" y="32" on="0"/>
        <pt x="374" y="36" on="0"/>
        <pt x="396" y="38" on="1"/>
        <pt x="396" y="1" on="1"/>
        <pt x="376" y="-4" on="0"/>
        <pt x="336" y="-8" on="0"/>
      </contour>
      <contour>
        <pt x="244" y="616" on="1"/>
        <pt x="310" y="718" on="1"/>
        <pt x="356" y="718" on="1"/>
        <pt x="279" y="613" on="1"/>
      </contour>
    </TTGlyph>
    <TTGlyph name="Ccaron" xMin="48" yMin="-10" xMax="450" yMax="916">
      <contour>
        <pt x="353" y="-10" on="1"/>
        <pt x="272" y="-9" on="0"/>
        <pt x="157" y="35" on="0"/>
        <pt x="83" y="127" on="0"/>
        <pt x="48" y="270" on="0"/>
        <pt x="48" y="369" on="1"/>
        <pt x="48" y="471" on="0"/>
        <pt x="81" y="615" on="0"/>
        <pt x="154" y="706" on="0"/>
        <pt x="269" y="748" on="0"/>
        <pt x="351" y="748" on="1"/>
        <pt x="372" y="748" on="0"/>
        <pt x="422" y="745" on="0"/>
        <pt x="450" y="740" on="1"/>
        <pt x="450" y="700" on="1"/>
        <pt x="435" y="703" on="0"/>
        <pt x="383" y="707" on="0"/>
        <pt x="356" y="707" on="1"/>
        <pt x="284" y="707" on="0"/>
        <pt x="184" y="671" on="0"/>
        <pt x="121" y="590" on="0"/>
        <pt x="93" y="462" on="0"/>
        <pt x="93" y="369" on="1"/>
        <pt x="93" y="280" on="0"/>
        <pt x="123" y="152" on="0"/>
        <pt x="186" y="70" on="0"/>
        <pt x="283" y="31" on="0"/>
        <pt x="351" y="31" on="1"/>
        <pt x="365" y="31" on="0"/>
        <pt x="425" y="35" on="0"/>
        <pt x="450" y="39" on="1"/>
        <pt x="450" y="-1" on="1"/>
        <pt x="427" y="-6" on="0"/>
        <pt x="385" y="-10" on="0"/>
      </contour>
      <contour>
        <pt x="181" y="916" on="1"/>
        <pt x="305" y="844" on="1"/>
        <pt x="429" y="916" on="1"/>
        <pt x="429" y="870" on="1"/>
        <pt x="305" y="798" on="1"/>
        <pt x="181" y="870" on="1"/>
      </contour>
    </TTGlyph>
    <TTGlyph name="Ccaron.sc" xMin="47" yMin="-8" xMax="396" yMax="719">
      <contour>
        <pt x="307" y="-8" on="1"/>
        <pt x="239" y="-7" on="0"/>
        <pt x="140" y="27" on="0"/>
        <pt x="77" y="99" on="0"/>
        <pt x="47" y="211" on="0"/>
        <pt x="47" y="288" on="1"/>
        <pt x="47" y="367" on="0"/>
        <pt x="76" y="479" on="0"/>
        <pt x="138" y="551" on="0"/>
        <pt x="237" y="584" on="0"/>
        <pt x="306" y="584" on="1"/>
        <pt x="326" y="584" on="0"/>
        <pt x="371" y="580" on="0"/>
        <pt x="396" y="577" on="1"/>
        <pt x="396" y="538" on="1"/>
        <pt x="381" y="540" on="0"/>
        <pt x="334" y="544" on="0"/>
        <pt x="311" y="544" on="1"/>
        <pt x="252" y="544" on="0"/>
        <pt x="168" y="517" on="0"/>
        <pt x="115" y="456" on="0"/>
        <pt x="91" y="358" on="0"/>
        <pt x="91" y="288" on="1"/>
        <pt x="91" y="152" on="0"/>
        <pt x="195" y="32" on="0"/>
        <pt x="308" y="32" on="1"/>
        <pt x="321" y="32" on="0"/>
        <pt x="374" y="36" on="0"/>
        <pt x="396" y="38" on="1"/>
        <pt x="396" y="1" on="1"/>
        <pt x="376" y="-4" on="0"/>
        <pt x="336" y="-8" on="0"/>
      </contour>
      <contour>
        <pt x="160" y="719" on="1"/>
        <pt x="268" y="663" on="1"/>
        <pt x="377" y="719" on="1"/>
        <pt x="377" y="679" on="1"/>
        <pt x="268" y="622" on="1"/>
        <pt x="160" y="679" on="1"/>
      </contour>
    </TTGlyph>
    <TTGlyph name="Ccedilla" xMin="48" yMin="-220" xMax="450" yMax="748">
      <contour>
        <pt x="263" y="-220" on="1"/>
        <pt x="248" y="-220" on="0"/>
        <pt x="216" y="-215" on="0"/>
        <pt x="202" y="-210" on="1"/>
        <pt x="202" y="-170" on="1"/>
        <pt x="232" y="-181" on="0"/>
        <pt x="261" y="-181" on="1"/>
        <pt x="329" y="-181" on="0"/>
        <pt x="329" y="-110" on="1"/>
        <pt x="329" y="-87" on="0"/>
        <pt x="313" y="-33" on="0"/>
        <pt x="299" y="-7" on="1"/>
        <pt x="233" y="0" on="0"/>
        <pt x="138" y="52" on="0"/>
        <pt x="77" y="144" on="0"/>
        <pt x="48" y="278" on="0"/>
        <pt x="48" y="369" on="1"/>
        <pt x="48" y="471" on="0"/>
        <pt x="81" y="615" on="0"/>
        <pt x="154" y="706" on="0"/>
        <pt x="269" y="748" on="0"/>
        <pt x="351" y="748" on="1"/>
        <pt x="372" y="748" on="0"/>
        <pt x="422" y="745" on="0"/>
        <pt x="450" y="740" on="1"/>
        <pt x="450" y="700" on="1"/>
        <pt x="435" y="703" on="0"/>
        <pt x="383" y="707" on="0"/>
        <pt x="356" y="707" on="1"/>
        <pt x="284" y="707" on="0"/>
        <pt x="184" y="671" on="0"/>
        <pt x="121" y="590" on="0"/>
        <pt x="93" y="462" on="0"/>
        <pt x="93" y="369" on="1"/>
        <pt x="93" y="280" on="0"/>
        <pt x="123" y="152" on="0"/>
        <pt x="186" y="70" on="0"/>
        <pt x="283" y="31" on="0"/>
        <pt x="351" y="31" on="1"/>
        <pt x="365" y="31" on="0"/>
        <pt x="425" y="35" on="0"/>
        <pt x="450" y="39" on="1"/>
        <pt x="450" y="-1" on="1"/>
        <pt x="427" y="-6" on="0"/>
        <pt x="385" y="-10" on="0"/>
        <pt x="353" y="-10" on="1"/>
        <pt x="350" y="-10" on="0"/>
        <pt x="344" y="-9" on="0"/>
        <pt x="341" y="-9" on="1"/>
        <pt x="355" y="-36" on="0"/>
        <pt x="368" y="-89" on="0"/>
        <pt x="368" y="-111" on="1"/>
        <pt x="368" y="-165" on="0"/>
        <pt x="314" y="-220" on="0"/>
      </contour>
    </TTGlyph>
    <TTGlyph name="Ccedilla.sc" xMin="47" yMin="-172" xMax="396" yMax="584">
      <contour>
        <pt x="232" y="-172" on="1"/>
        <pt x="207" y="-172" on="0"/>
        <pt x="178" y="-164" on="1"/>
        <pt x="178" y="-128" on="1"/>
        <pt x="205" y="-137" on="0"/>
        <pt x="230" y="-137" on="1"/>
        <pt x="287" y="-137" on="0"/>
        <pt x="287" y="-83" on="1"/>
        <pt x="287" y="-66" on="0"/>
        <pt x="274" y="-25" on="0"/>
        <pt x="263" y="-5" on="1"/>
        <pt x="150" y="6" on="0"/>
        <pt x="47" y="146" on="0"/>
        <pt x="47" y="288" on="1"/>
        <pt x="47" y="367" on="0"/>
        <pt x="76" y="479" on="0"/>
        <pt x="138" y="551" on="0"/>
        <pt x="237" y="584" on="0"/>
        <pt x="306" y="584" on="1"/>
        <pt x="326" y="584" on="0"/>
        <pt x="371" y="580" on="0"/>
        <pt x="396" y="577" on="1"/>
        <pt x="396" y="538" on="1"/>
        <pt x="381" y="540" on="0"/>
        <pt x="334" y="544" on="0"/>
        <pt x="311" y="544" on="1"/>
        <pt x="252" y="544" on="0"/>
        <pt x="168" y="517" on="0"/>
        <pt x="115" y="456" on="0"/>
        <pt x="91" y="358" on="0"/>
        <pt x="91" y="288" on="1"/>
        <pt x="91" y="152" on="0"/>
        <pt x="195" y="32" on="0"/>
        <pt x="308" y="32" on="1"/>
        <pt x="321" y="32" on="0"/>
        <pt x="374" y="36" on="0"/>
        <pt x="396" y="38" on="1"/>
        <pt x="396" y="1" on="1"/>
        <pt x="373" y="-4" on="0"/>
        <pt x="325" y="-9" on="0"/>
        <pt x="301" y="-7" on="1"/>
        <pt x="323" y="-51" on="0"/>
        <pt x="323" y="-86" on="1"/>
        <pt x="323" y="-172" on="0"/>
      </contour>
    </TTGlyph>
    <TTGlyph name="Ccircumflex" xMin="48" yMin="-10" xMax="450" yMax="935">
      <contour>
        <pt x="353" y="-10" on="1"/>
        <pt x="272" y="-9" on="0"/>
        <pt x="157" y="35" on="0"/>
        <pt x="83" y="127" on="0"/>
        <pt x="48" y="270" on="0"/>
        <pt x="48" y="369" on="1"/>
        <pt x="48" y="471" on="0"/>
        <pt x="81" y="615" on="0"/>
        <pt x="154" y="706" on="0"/>
        <pt x="269" y="748" on="0"/>
        <pt x="351" y="748" on="1"/>
        <pt x="372" y="748" on="0"/>
        <pt x="422" y="745" on="0"/>
        <pt x="450" y="740" on="1"/>
        <pt x="450" y="700" on="1"/>
        <pt x="435" y="703" on="0"/>
        <pt x="383" y="707" on="0"/>
        <pt x="356" y="707" on="1"/>
        <pt x="284" y="707" on="0"/>
        <pt x="184" y="671" on="0"/>
        <pt x="121" y="590" on="0"/>
        <pt x="93" y="462" on="0"/>
        <pt x="93" y="369" on="1"/>
        <pt x="93" y="280" on="0"/>
        <pt x="123" y="152" on="0"/>
        <pt x="186" y="70" on="0"/>
        <pt x="283" y="31" on="0"/>
        <pt x="351" y="31" on="1"/>
        <pt x="365" y="31" on="0"/>
        <pt x="425" y="35" on="0"/>
        <pt x="450" y="39" on="1"/>
        <pt x="450" y="-1" on="1"/>
        <pt x="427" y="-6" on="0"/>
        <pt x="385" y="-10" on="0"/>
      </contour>
      <contour>
        <pt x="177" y="863" on="1"/>
        <pt x="301" y="935" on="1"/>
        <pt x="425" y="863" on="1"/>
        <pt x="425" y="817" on="1"/>
        <pt x="301" y="889" on="1"/>
        <pt x="177" y="817" on="1"/>
      </contour>
    </TTGlyph>
    <TTGlyph name="Ccircumflex.sc" xMin="47" yMin="-8" xMax="396" yMax="732">
      <contour>
        <pt x="307" y="-8" on="1"/>
        <pt x="239" y="-7" on="0"/>
        <pt x="140" y="27" on="0"/>
        <pt x="77" y="99" on="0"/>
        <pt x="47" y="211" on="0"/>
        <pt x="47" y="288" on="1"/>
        <pt x="47" y="367" on="0"/>
        <pt x="76" y="479" on="0"/>
        <pt x="138" y="551" on="0"/>
        <pt x="237" y="584" on="0"/>
        <pt x="306" y="584" on="1"/>
        <pt x="326" y="584" on="0"/>
        <pt x="371" y="580" on="0"/>
        <pt x="396" y="577" on="1"/>
        <pt x="396" y="538" on="1"/>
        <pt x="381" y="540" on="0"/>
        <pt x="334" y="544" on="0"/>
        <pt x="311" y="544" on="1"/>
        <pt x="252" y="544" on="0"/>
        <pt x="168" y="517" on="0"/>
        <pt x="115" y="456" on="0"/>
        <pt x="91" y="358" on="0"/>
        <pt x="91" y="288" on="1"/>
        <pt x="91" y="152" on="0"/>
        <pt x="195" y="32" on="0"/>
        <pt x="308" y="32" on="1"/>
        <pt x="321" y="32" on="0"/>
        <pt x="374" y="36" on="0"/>
        <pt x="396" y="38" on="1"/>
        <pt x="396" y="1" on="1"/>
        <pt x="376" y="-4" on="0"/>
        <pt x="336" y="-8" on="0"/>
      </contour>
      <contour>
        <pt x="156" y="676" on="1"/>
        <pt x="265" y="732" on="1"/>
        <pt x="374" y="676" on="1"/>
        <pt x="374" y="635" on="1"/>
        <pt x="265" y="691" on="1"/>
        <pt x="156" y="635" on="1"/>
      </contour>
    </TTGlyph>
    <TTGlyph name="Cdotaccent" xMin="48" yMin="-10" xMax="450" yMax="866">
      <contour>
        <pt x="301" y="799" on="1"/>
        <pt x="287" y="799" on="0"/>
        <pt x="268" y="815" on="0"/>
        <pt x="268" y="832" on="1"/>
        <pt x="268" y="850" on="0"/>
        <pt x="287" y="866" on="0"/>
        <pt x="301" y="866" on="1"/>
        <pt x="315" y="866" on="0"/>
        <pt x="335" y="849" on="0"/>
        <pt x="335" y="832" on="1"/>
        <pt x="335" y="815" on="0"/>
        <pt x="315" y="799" on="0"/>
      </contour>
      <contour>
        <pt x="353" y="-10" on="1"/>
        <pt x="272" y="-9" on="0"/>
        <pt x="157" y="35" on="0"/>
        <pt x="83" y="127" on="0"/>
        <pt x="48" y="270" on="0"/>
        <pt x="48" y="369" on="1"/>
        <pt x="48" y="471" on="0"/>
        <pt x="81" y="615" on="0"/>
        <pt x="154" y="706" on="0"/>
        <pt x="269" y="748" on="0"/>
        <pt x="351" y="748" on="1"/>
        <pt x="372" y="748" on="0"/>
        <pt x="422" y="745" on="0"/>
        <pt x="450" y="740" on="1"/>
        <pt x="450" y="700" on="1"/>
        <pt x="435" y="703" on="0"/>
        <pt x="383" y="707" on="0"/>
        <pt x="356" y="707" on="1"/>
        <pt x="284" y="707" on="0"/>
        <pt x="184" y="671" on="0"/>
        <pt x="121" y="590" on="0"/>
        <pt x="93" y="462" on="0"/>
        <pt x="93" y="369" on="1"/>
        <pt x="93" y="280" on="0"/>
        <pt x="123" y="152" on="0"/>
        <pt x="186" y="70" on="0"/>
        <pt x="283" y="31" on="0"/>
        <pt x="351" y="31" on="1"/>
        <pt x="365" y="31" on="0"/>
        <pt x="425" y="35" on="0"/>
        <pt x="450" y="39" on="1"/>
        <pt x="450" y="-1" on="1"/>
        <pt x="427" y="-6" on="0"/>
        <pt x="385" y="-10" on="0"/>
      </contour>
    </TTGlyph>
    <TTGlyph name="Cdotaccent.sc" xMin="47" yMin="-8" xMax="396" yMax="684">
      <contour>
        <pt x="307" y="-8" on="1"/>
        <pt x="239" y="-7" on="0"/>
        <pt x="140" y="27" on="0"/>
        <pt x="77" y="99" on="0"/>
        <pt x="47" y="211" on="0"/>
        <pt x="47" y="288" on="1"/>
        <pt x="47" y="367" on="0"/>
        <pt x="76" y="479" on="0"/>
        <pt x="138" y="551" on="0"/>
        <pt x="237" y="584" on="0"/>
        <pt x="306" y="584" on="1"/>
        <pt x="326" y="584" on="0"/>
        <pt x="371" y="580" on="0"/>
        <pt x="396" y="577" on="1"/>
        <pt x="396" y="538" on="1"/>
        <pt x="381" y="540" on="0"/>
        <pt x="334" y="544" on="0"/>
        <pt x="311" y="544" on="1"/>
        <pt x="252" y="544" on="0"/>
        <pt x="168" y="517" on="0"/>
        <pt x="115" y="456" on="0"/>
        <pt x="91" y="358" on="0"/>
        <pt x="91" y="288" on="1"/>
        <pt x="91" y="152" on="0"/>
        <pt x="195" y="32" on="0"/>
        <pt x="308" y="32" on="1"/>
        <pt x="321" y="32" on="0"/>
        <pt x="374" y="36" on="0"/>
        <pt x="396" y="38" on="1"/>
        <pt x="396" y="1" on="1"/>
        <pt x="376" y="-4" on="0"/>
        <pt x="336" y="-8" on="0"/>
      </contour>
      <contour>
        <pt x="265" y="624" on="1"/>
        <pt x="234" y="624" on="0"/>
        <pt x="234" y="655" on="1"/>
        <pt x="234" y="684" on="0"/>
        <pt x="265" y="684" on="1"/>
        <pt x="279" y="684" on="0"/>
        <pt x="297" y="670" on="0"/>
        <pt x="297" y="655" on="1"/>
        <pt x="297" y="638" on="0"/>
        <pt x="279" y="624" on="0"/>
      </contour>
    </TTGlyph>
    <TTGlyph name="D" xMin="79" yMin="-18" xMax="520" yMax="750">
      <contour>
        <pt x="186" y="-18" on="1"/>
        <pt x="160" y="-18" on="0"/>
        <pt x="107" y="-15" on="0"/>
        <pt x="79" y="-10" on="1"/>
        <pt x="79" y="732" on="1"/>
        <pt x="124" y="741" on="0"/>
        <pt x="196" y="750" on="0"/>
        <pt x="226" y="750" on="1"/>
        <pt x="377" y="750" on="0"/>
        <pt x="520" y="564" on="0"/>
        <pt x="520" y="369" on="1"/>
        <pt x="520" y="169" on="0"/>
        <pt x="359" y="-18" on="0"/>
      </contour>
      <contour>
        <pt x="192" y="24" on="1"/>
        <pt x="474" y="24" on="0"/>
        <pt x="474" y="369" on="1"/>
        <pt x="474" y="546" on="0"/>
        <pt x="354" y="709" on="0"/>
        <pt x="224" y="709" on="1"/>
        <pt x="172" y="709" on="0"/>
        <pt x="122" y="699" on="1"/>
        <pt x="122" y="29" on="1"/>
        <pt x="143" y="27" on="0"/>
        <pt x="177" y="24" on="0"/>
      </contour>
    </TTGlyph>
    <TTGlyph name="D.sc" xMin="74" yMin="-13" xMax="461" yMax="585">
      <contour>
        <pt x="172" y="-13" on="1"/>
        <pt x="148" y="-13" on="0"/>
        <pt x="99" y="-11" on="0"/>
        <pt x="74" y="-6" on="1"/>
        <pt x="74" y="572" on="1"/>
        <pt x="113" y="578" on="0"/>
        <pt x="177" y="585" on="0"/>
        <pt x="204" y="585" on="1"/>
        <pt x="337" y="585" on="0"/>
        <pt x="461" y="441" on="0"/>
        <pt x="461" y="288" on="1"/>
        <pt x="461" y="131" on="0"/>
        <pt x="322" y="-13" on="0"/>
      </contour>
      <contour>
        <pt x="180" y="27" on="1"/>
        <pt x="300" y="27" on="0"/>
        <pt x="417" y="154" on="0"/>
        <pt x="417" y="288" on="1"/>
        <pt x="417" y="423" on="0"/>
        <pt x="314" y="546" on="0"/>
        <pt x="203" y="546" on="1"/>
        <pt x="182" y="546" on="0"/>
        <pt x="139" y="543" on="0"/>
        <pt x="117" y="539" on="1"/>
        <pt x="117" y="31" on="1"/>
        <pt x="136" y="29" on="0"/>
        <pt x="166" y="27" on="0"/>
      </contour>
    </TTGlyph>
    <TTGlyph name="Dcaron" xMin="79" yMin="-18" xMax="520" yMax="916">
      <contour>
        <pt x="133" y="916" on="1"/>
        <pt x="257" y="844" on="1"/>
        <pt x="381" y="916" on="1"/>
        <pt x="381" y="870" on="1"/>
        <pt x="257" y="798" on="1"/>
        <pt x="133" y="870" on="1"/>
      </contour>
      <contour>
        <pt x="186" y="-18" on="1"/>
        <pt x="160" y="-18" on="0"/>
        <pt x="107" y="-15" on="0"/>
        <pt x="79" y="-10" on="1"/>
        <pt x="79" y="732" on="1"/>
        <pt x="124" y="741" on="0"/>
        <pt x="196" y="750" on="0"/>
        <pt x="226" y="750" on="1"/>
        <pt x="377" y="750" on="0"/>
        <pt x="520" y="564" on="0"/>
        <pt x="520" y="369" on="1"/>
        <pt x="520" y="169" on="0"/>
        <pt x="359" y="-18" on="0"/>
      </contour>
      <contour>
        <pt x="192" y="24" on="1"/>
        <pt x="474" y="24" on="0"/>
        <pt x="474" y="369" on="1"/>
        <pt x="474" y="546" on="0"/>
        <pt x="354" y="709" on="0"/>
        <pt x="224" y="709" on="1"/>
        <pt x="172" y="709" on="0"/>
        <pt x="122" y="699" on="1"/>
        <pt x="122" y="29" on="1"/>
        <pt x="143" y="27" on="0"/>
        <pt x="177" y="24" on="0"/>
      </contour>
    </TTGlyph>
    <TTGlyph name="Dcaron.sc" xMin="74" yMin="-13" xMax="461" yMax="719">
      <contour>
        <pt x="172" y="-13" on="1"/>
        <pt x="148" y="-13" on="0"/>
        <pt x="99" y="-11" on="0"/>
        <pt x="74" y="-6" on="1"/>
        <pt x="74" y="572" on="1"/>
        <pt x="113" y="578" on="0"/>
        <pt x="177" y="585" on="0"/>
        <pt x="204" y="585" on="1"/>
        <pt x="337" y="585" on="0"/>
        <pt x="461" y="441" on="0"/>
        <pt x="461" y="288" on="1"/>
        <pt x="461" y="131" on="0"/>
        <pt x="322" y="-13" on="0"/>
      </contour>
      <contour>
        <pt x="180" y="27" on="1"/>
        <pt x="300" y="27" on="0"/>
        <pt x="417" y="154" on="0"/>
        <pt x="417" y="288" on="1"/>
        <pt x="417" y="423" on="0"/>
        <pt x="314" y="546" on="0"/>
        <pt x="203" y="546" on="1"/>
        <pt x="182" y="546" on="0"/>
        <pt x="139" y="543" on="0"/>
        <pt x="117" y="539" on="1"/>
        <pt x="117" y="31" on="1"/>
        <pt x="136" y="29" on="0"/>
        <pt x="166" y="27" on="0"/>
      </contour>
      <contour>
        <pt x="123" y="679" on="1"/>
        <pt x="123" y="719" on="1"/>
        <pt x="232" y="663" on="1"/>
        <pt x="340" y="719" on="1"/>
        <pt x="340" y="679" on="1"/>
        <pt x="232" y="622" on="1"/>
      </contour>
    </TTGlyph>
    <TTGlyph name="Dcroat" xMin="0" yMin="-18" xMax="530" yMax="750">
      <contour>
        <pt x="0" y="388" on="1"/>
        <pt x="89" y="388" on="1"/>
        <pt x="89" y="732" on="1"/>
        <pt x="134" y="741" on="0"/>
        <pt x="206" y="750" on="0"/>
        <pt x="236" y="750" on="1"/>
        <pt x="387" y="750" on="0"/>
        <pt x="530" y="564" on="0"/>
        <pt x="530" y="369" on="1"/>
        <pt x="530" y="169" on="0"/>
        <pt x="369" y="-18" on="0"/>
        <pt x="196" y="-18" on="1"/>
        <pt x="170" y="-18" on="0"/>
        <pt x="117" y="-15" on="0"/>
        <pt x="89" y="-10" on="1"/>
        <pt x="89" y="348" on="1"/>
        <pt x="0" y="348" on="1"/>
      </contour>
      <contour>
        <pt x="202" y="24" on="1"/>
        <pt x="484" y="24" on="0"/>
        <pt x="484" y="369" on="1"/>
        <pt x="484" y="546" on="0"/>
        <pt x="364" y="709" on="0"/>
        <pt x="234" y="709" on="1"/>
        <pt x="182" y="709" on="0"/>
        <pt x="132" y="699" on="1"/>
        <pt x="132" y="388" on="1"/>
        <pt x="290" y="388" on="1"/>
        <pt x="290" y="348" on="1"/>
        <pt x="132" y="348" on="1"/>
        <pt x="132" y="29" on="1"/>
        <pt x="153" y="27" on="0"/>
        <pt x="187" y="24" on="0"/>
      </contour>
    </TTGlyph>
    <TTGlyph name="Dcroat.sc" xMin="6" yMin="-13" xMax="469" yMax="585">
      <contour>
        <pt x="6" y="306" on="1"/>
        <pt x="82" y="306" on="1"/>
        <pt x="82" y="572" on="1"/>
        <pt x="121" y="578" on="0"/>
        <pt x="185" y="585" on="0"/>
        <pt x="212" y="585" on="1"/>
        <pt x="345" y="585" on="0"/>
        <pt x="469" y="441" on="0"/>
        <pt x="469" y="288" on="1"/>
        <pt x="469" y="131" on="0"/>
        <pt x="330" y="-13" on="0"/>
        <pt x="180" y="-13" on="1"/>
        <pt x="156" y="-13" on="0"/>
        <pt x="107" y="-11" on="0"/>
        <pt x="82" y="-6" on="1"/>
        <pt x="82" y="268" on="1"/>
        <pt x="6" y="268" on="1"/>
      </contour>
      <contour>
        <pt x="188" y="27" on="1"/>
        <pt x="307" y="27" on="0"/>
        <pt x="425" y="154" on="0"/>
        <pt x="425" y="288" on="1"/>
        <pt x="425" y="423" on="0"/>
        <pt x="321" y="546" on="0"/>
        <pt x="211" y="546" on="1"/>
        <pt x="190" y="546" on="0"/>
        <pt x="147" y="543" on="0"/>
        <pt x="125" y="539" on="1"/>
        <pt x="125" y="306" on="1"/>
        <pt x="258" y="306" on="1"/>
        <pt x="258" y="268" on="1"/>
        <pt x="125" y="268" on="1"/>
        <pt x="125" y="31" on="1"/>
        <pt x="143" y="29" on="0"/>
        <pt x="174" y="27" on="0"/>
      </contour>
    </TTGlyph>
    <TTGlyph name="Ddotbelow" xMin="79" yMin="-163" xMax="520" yMax="750">
      <contour>
        <pt x="258" y="-163" on="1"/>
        <pt x="241" y="-163" on="0"/>
        <pt x="220" y="-146" on="0"/>
        <pt x="220" y="-126" on="1"/>
        <pt x="220" y="-105" on="0"/>
        <pt x="241" y="-89" on="0"/>
        <pt x="258" y="-89" on="1"/>
        <pt x="275" y="-89" on="0"/>
        <pt x="295" y="-106" on="0"/>
        <pt x="295" y="-126" on="1"/>
        <pt x="295" y="-146" on="0"/>
        <pt x="275" y="-163" on="0"/>
      </contour>
      <contour>
        <pt x="186" y="-18" on="1"/>
        <pt x="160" y="-18" on="0"/>
        <pt x="107" y="-15" on="0"/>
        <pt x="79" y="-10" on="1"/>
        <pt x="79" y="732" on="1"/>
        <pt x="124" y="741" on="0"/>
        <pt x="196" y="750" on="0"/>
        <pt x="226" y="750" on="1"/>
        <pt x="377" y="750" on="0"/>
        <pt x="520" y="564" on="0"/>
        <pt x="520" y="369" on="1"/>
        <pt x="520" y="169" on="0"/>
        <pt x="359" y="-18" on="0"/>
      </contour>
      <contour>
        <pt x="192" y="24" on="1"/>
        <pt x="474" y="24" on="0"/>
        <pt x="474" y="369" on="1"/>
        <pt x="474" y="546" on="0"/>
        <pt x="354" y="709" on="0"/>
        <pt x="224" y="709" on="1"/>
        <pt x="172" y="709" on="0"/>
        <pt x="122" y="699" on="1"/>
        <pt x="122" y="29" on="1"/>
        <pt x="143" y="27" on="0"/>
        <pt x="177" y="24" on="0"/>
      </contour>
    </TTGlyph>
    <TTGlyph name="Ddotbelow.sc" xMin="74" yMin="-131" xMax="461" yMax="585">
      <contour>
        <pt x="172" y="-13" on="1"/>
        <pt x="148" y="-13" on="0"/>
        <pt x="99" y="-11" on="0"/>
        <pt x="74" y="-6" on="1"/>
        <pt x="74" y="572" on="1"/>
        <pt x="113" y="578" on="0"/>
        <pt x="177" y="585" on="0"/>
        <pt x="204" y="585" on="1"/>
        <pt x="337" y="585" on="0"/>
        <pt x="461" y="441" on="0"/>
        <pt x="461" y="288" on="1"/>
        <pt x="461" y="131" on="0"/>
        <pt x="322" y="-13" on="0"/>
      </contour>
      <contour>
        <pt x="180" y="27" on="1"/>
        <pt x="300" y="27" on="0"/>
        <pt x="417" y="154" on="0"/>
        <pt x="417" y="288" on="1"/>
        <pt x="417" y="423" on="0"/>
        <pt x="314" y="546" on="0"/>
        <pt x="203" y="546" on="1"/>
        <pt x="182" y="546" on="0"/>
        <pt x="139" y="543" on="0"/>
        <pt x="117" y="539" on="1"/>
        <pt x="117" y="31" on="1"/>
        <pt x="136" y="29" on="0"/>
        <pt x="166" y="27" on="0"/>
      </contour>
      <contour>
        <pt x="233" y="-131" on="1"/>
        <pt x="200" y="-131" on="0"/>
        <pt x="200" y="-100" on="1"/>
        <pt x="200" y="-82" on="0"/>
        <pt x="217" y="-68" on="0"/>
        <pt x="233" y="-68" on="1"/>
        <pt x="248" y="-68" on="0"/>
        <pt x="267" y="-83" on="0"/>
        <pt x="267" y="-100" on="1"/>
        <pt x="267" y="-117" on="0"/>
        <pt x="248" y="-131" on="0"/>
      </contour>
    </TTGlyph>
    <TTGlyph name="Delta" xMin="21" yMin="0" xMax="535" yMax="740">
      <contour>
        <pt x="250" y="740" on="1"/>
        <pt x="306" y="740" on="1"/>
        <pt x="535" y="0" on="1"/>
        <pt x="21" y="0" on="1"/>
      </contour>
      <contour>
        <pt x="478" y="41" on="1"/>
        <pt x="278" y="689" on="1"/>
        <pt x="77" y="41" on="1"/>
      </contour>
    </TTGlyph>
    <TTGlyph name="E" xMin="79" yMin="0" xMax="453" yMax="740">
      <contour>
        <pt x="79" y="740" on="1"/>
        <pt x="444" y="740" on="1"/>
        <pt x="444" y="699" on="1"/>
        <pt x="122" y="699" on="1"/>
        <pt x="122" y="396" on="1"/>
        <pt x="411" y="396" on="1"/>
        <pt x="411" y="355" on="1"/>
        <pt x="122" y="355" on="1"/>
        <pt x="122" y="41" on="1"/>
        <pt x="453" y="41" on="1"/>
        <pt x="453" y="0" on="1"/>
        <pt x="79" y="0" on="1"/>
      </contour>
    </TTGlyph>
    <TTGlyph name="E.sc" xMin="75" yMin="0" xMax="402" yMax="577">
      <contour>
        <pt x="75" y="577" on="1"/>
        <pt x="395" y="577" on="1"/>
        <pt x="395" y="538" on="1"/>
        <pt x="118" y="538" on="1"/>
        <pt x="118" y="312" on="1"/>
        <pt x="367" y="312" on="1"/>
        <pt x="367" y="274" on="1"/>
        <pt x="118" y="274" on="1"/>
        <pt x="118" y="40" on="1"/>
        <pt x="402" y="40" on="1"/>
        <pt x="402" y="0" on="1"/>
        <pt x="75" y="0" on="1"/>
      </contour>
    </TTGlyph>
    <TTGlyph name="Eacute" xMin="79" yMin="0" xMax="453" yMax="914">
      <contour>
        <pt x="237" y="788" on="1"/>
        <pt x="315" y="914" on="1"/>
        <pt x="362" y="914" on="1"/>
        <pt x="275" y="784" on="1"/>
      </contour>
      <contour>
        <pt x="79" y="740" on="1"/>
        <pt x="444" y="740" on="1"/>
        <pt x="444" y="699" on="1"/>
        <pt x="122" y="699" on="1"/>
        <pt x="122" y="396" on="1"/>
        <pt x="411" y="396" on="1"/>
        <pt x="411" y="355" on="1"/>
        <pt x="122" y="355" on="1"/>
        <pt x="122" y="41" on="1"/>
        <pt x="453" y="41" on="1"/>
        <pt x="453" y="0" on="1"/>
        <pt x="79" y="0" on="1"/>
      </contour>
    </TTGlyph>
    <TTGlyph name="Eacute.sc" xMin="75" yMin="0" xMax="402" yMax="718">
      <contour>
        <pt x="75" y="577" on="1"/>
        <pt x="395" y="577" on="1"/>
        <pt x="395" y="538" on="1"/>
        <pt x="118" y="538" on="1"/>
        <pt x="118" y="312" on="1"/>
        <pt x="367" y="312" on="1"/>
        <pt x="367" y="274" on="1"/>
        <pt x="118" y="274" on="1"/>
        <pt x="118" y="40" on="1"/>
        <pt x="402" y="40" on="1"/>
        <pt x="402" y="0" on="1"/>
        <pt x="75" y="0" on="1"/>
      </contour>
      <contour>
        <pt x="212" y="616" on="1"/>
        <pt x="278" y="718" on="1"/>
        <pt x="324" y="718" on="1"/>
        <pt x="248" y="613" on="1"/>
      </contour>
    </TTGlyph>
    <TTGlyph name="Ebreve" xMin="79" yMin="0" xMax="453" yMax="950">
      <contour>
        <pt x="261" y="814" on="1"/>
        <pt x="195" y="814" on="0"/>
        <pt x="122" y="887" on="0"/>
        <pt x="122" y="950" on="1"/>
        <pt x="162" y="950" on="1"/>
        <pt x="162" y="903" on="0"/>
        <pt x="213" y="852" on="0"/>
        <pt x="261" y="852" on="1"/>
        <pt x="308" y="852" on="0"/>
        <pt x="359" y="903" on="0"/>
        <pt x="359" y="950" on="1"/>
        <pt x="399" y="950" on="1"/>
        <pt x="399" y="887" on="0"/>
        <pt x="326" y="814" on="0"/>
      </contour>
      <contour>
        <pt x="79" y="740" on="1"/>
        <pt x="444" y="740" on="1"/>
        <pt x="444" y="699" on="1"/>
        <pt x="122" y="699" on="1"/>
        <pt x="122" y="396" on="1"/>
        <pt x="411" y="396" on="1"/>
        <pt x="411" y="355" on="1"/>
        <pt x="122" y="355" on="1"/>
        <pt x="122" y="41" on="1"/>
        <pt x="453" y="41" on="1"/>
        <pt x="453" y="0" on="1"/>
        <pt x="79" y="0" on="1"/>
      </contour>
    </TTGlyph>
    <TTGlyph name="Ebreve.sc" xMin="75" yMin="0" xMax="402" yMax="743">
      <contour>
        <pt x="234" y="634" on="1"/>
        <pt x="177" y="634" on="0"/>
        <pt x="114" y="692" on="0"/>
        <pt x="114" y="743" on="1"/>
        <pt x="151" y="743" on="1"/>
        <pt x="151" y="705" on="0"/>
        <pt x="195" y="666" on="0"/>
        <pt x="234" y="666" on="1"/>
        <pt x="275" y="666" on="0"/>
        <pt x="319" y="705" on="0"/>
        <pt x="319" y="743" on="1"/>
        <pt x="356" y="743" on="1"/>
        <pt x="356" y="692" on="0"/>
        <pt x="292" y="634" on="0"/>
      </contour>
      <contour>
        <pt x="75" y="577" on="1"/>
        <pt x="395" y="577" on="1"/>
        <pt x="395" y="538" on="1"/>
        <pt x="118" y="538" on="1"/>
        <pt x="118" y="312" on="1"/>
        <pt x="367" y="312" on="1"/>
        <pt x="367" y="274" on="1"/>
        <pt x="118" y="274" on="1"/>
        <pt x="118" y="40" on="1"/>
        <pt x="402" y="40" on="1"/>
        <pt x="402" y="0" on="1"/>
        <pt x="75" y="0" on="1"/>
      </contour>
    </TTGlyph>
    <TTGlyph name="Ecaron" xMin="79" yMin="0" xMax="453" yMax="916">
      <contour>
        <pt x="139" y="916" on="1"/>
        <pt x="263" y="844" on="1"/>
        <pt x="387" y="916" on="1"/>
        <pt x="387" y="870" on="1"/>
        <pt x="263" y="798" on="1"/>
        <pt x="139" y="870" on="1"/>
      </contour>
      <contour>
        <pt x="79" y="740" on="1"/>
        <pt x="444" y="740" on="1"/>
        <pt x="444" y="699" on="1"/>
        <pt x="122" y="699" on="1"/>
        <pt x="122" y="396" on="1"/>
        <pt x="411" y="396" on="1"/>
        <pt x="411" y="355" on="1"/>
        <pt x="122" y="355" on="1"/>
        <pt x="122" y="41" on="1"/>
        <pt x="453" y="41" on="1"/>
        <pt x="453" y="0" on="1"/>
        <pt x="79" y="0" on="1"/>
      </contour>
    </TTGlyph>
    <TTGlyph name="Ecaron.sc" xMin="75" yMin="0" xMax="402" yMax="719">
      <contour>
        <pt x="75" y="577" on="1"/>
        <pt x="395" y="577" on="1"/>
        <pt x="395" y="538" on="1"/>
        <pt x="118" y="538" on="1"/>
        <pt x="118" y="312" on="1"/>
        <pt x="367" y="312" on="1"/>
        <pt x="367" y="274" on="1"/>
        <pt x="118" y="274" on="1"/>
        <pt x="118" y="40" on="1"/>
        <pt x="402" y="40" on="1"/>
        <pt x="402" y="0" on="1"/>
        <pt x="75" y="0" on="1"/>
      </contour>
      <contour>
        <pt x="129" y="679" on="1"/>
        <pt x="129" y="719" on="1"/>
        <pt x="237" y="663" on="1"/>
        <pt x="346" y="719" on="1"/>
        <pt x="346" y="679" on="1"/>
        <pt x="237" y="622" on="1"/>
      </contour>
    </TTGlyph>
    <TTGlyph name="Ecircumflex" xMin="79" yMin="0" xMax="453" yMax="935">
      <contour>
        <pt x="79" y="740" on="1"/>
        <pt x="444" y="740" on="1"/>
        <pt x="444" y="699" on="1"/>
        <pt x="122" y="699" on="1"/>
        <pt x="122" y="396" on="1"/>
        <pt x="411" y="396" on="1"/>
        <pt x="411" y="355" on="1"/>
        <pt x="122" y="355" on="1"/>
        <pt x="122" y="41" on="1"/>
        <pt x="453" y="41" on="1"/>
        <pt x="453" y="0" on="1"/>
        <pt x="79" y="0" on="1"/>
      </contour>
      <contour>
        <pt x="135" y="863" on="1"/>
        <pt x="259" y="935" on="1"/>
        <pt x="383" y="863" on="1"/>
        <pt x="383" y="817" on="1"/>
        <pt x="259" y="889" on="1"/>
        <pt x="135" y="817" on="1"/>
      </contour>
    </TTGlyph>
    <TTGlyph name="Ecircumflex.sc" xMin="75" yMin="0" xMax="402" yMax="732">
      <contour>
        <pt x="75" y="577" on="1"/>
        <pt x="395" y="577" on="1"/>
        <pt x="395" y="538" on="1"/>
        <pt x="118" y="538" on="1"/>
        <pt x="118" y="312" on="1"/>
        <pt x="367" y="312" on="1"/>
        <pt x="367" y="274" on="1"/>
        <pt x="118" y="274" on="1"/>
        <pt x="118" y="40" on="1"/>
        <pt x="402" y="40" on="1"/>
        <pt x="402" y="0" on="1"/>
        <pt x="75" y="0" on="1"/>
      </contour>
      <contour>
        <pt x="124" y="676" on="1"/>
        <pt x="233" y="732" on="1"/>
        <pt x="343" y="676" on="1"/>
        <pt x="343" y="635" on="1"/>
        <pt x="233" y="691" on="1"/>
        <pt x="124" y="635" on="1"/>
      </contour>
    </TTGlyph>
    <TTGlyph name="Edblgrave" xMin="79" yMin="0" xMax="453" yMax="914">
      <contour>
        <pt x="79" y="740" on="1"/>
        <pt x="444" y="740" on="1"/>
        <pt x="444" y="699" on="1"/>
        <pt x="122" y="699" on="1"/>
        <pt x="122" y="396" on="1"/>
        <pt x="411" y="396" on="1"/>
        <pt x="411" y="355" on="1"/>
        <pt x="122" y="355" on="1"/>
        <pt x="122" y="41" on="1"/>
        <pt x="453" y="41" on="1"/>
        <pt x="453" y="0" on="1"/>
        <pt x="79" y="0" on="1"/>
      </contour>
      <contour>
        <pt x="177" y="784" on="1"/>
        <pt x="90" y="914" on="1"/>
        <pt x="135" y="914" on="1"/>
        <pt x="213" y="798" on="1"/>
      </contour>
      <contour>
        <pt x="308" y="784" on="1"/>
        <pt x="221" y="914" on="1"/>
        <pt x="266" y="914" on="1"/>
        <pt x="344" y="798" on="1"/>
      </contour>
    </TTGlyph>
    <TTGlyph name="Edblgrave.sc" xMin="75" yMin="0" xMax="402" yMax="718">
      <contour>
        <pt x="75" y="577" on="1"/>
        <pt x="395" y="577" on="1"/>
        <pt x="395" y="538" on="1"/>
        <pt x="118" y="538" on="1"/>
        <pt x="118" y="312" on="1"/>
        <pt x="367" y="312" on="1"/>
        <pt x="367" y="274" on="1"/>
        <pt x="118" y="274" on="1"/>
        <pt x="118" y="40" on="1"/>
        <pt x="402" y="40" on="1"/>
        <pt x="402" y="0" on="1"/>
        <pt x="75" y="0" on="1"/>
      </contour>
      <contour>
        <pt x="86" y="718" on="1"/>
        <pt x="128" y="718" on="1"/>
        <pt x="194" y="623" on="1"/>
        <pt x="162" y="612" on="1"/>
      </contour>
      <contour>
        <pt x="200" y="718" on="1"/>
        <pt x="243" y="718" on="1"/>
        <pt x="309" y="623" on="1"/>
        <pt x="276" y="612" on="1"/>
      </contour>
    </TTGlyph>
    <TTGlyph name="Edieresis" xMin="79" yMin="0" xMax="453" yMax="880">
      <contour>
        <pt x="173" y="813" on="1"/>
        <pt x="159" y="813" on="0"/>
        <pt x="140" y="829" on="0"/>
        <pt x="140" y="846" on="1"/>
        <pt x="140" y="864" on="0"/>
        <pt x="159" y="880" on="0"/>
        <pt x="173" y="880" on="1"/>
        <pt x="187" y="880" on="0"/>
        <pt x="207" y="863" on="0"/>
        <pt x="207" y="846" on="1"/>
        <pt x="207" y="829" on="0"/>
        <pt x="187" y="813" on="0"/>
      </contour>
      <contour>
        <pt x="345" y="813" on="1"/>
        <pt x="331" y="813" on="0"/>
        <pt x="311" y="829" on="0"/>
        <pt x="311" y="846" on="1"/>
        <pt x="311" y="864" on="0"/>
        <pt x="331" y="880" on="0"/>
        <pt x="345" y="880" on="1"/>
        <pt x="359" y="880" on="0"/>
        <pt x="380" y="863" on="0"/>
        <pt x="380" y="846" on="1"/>
        <pt x="380" y="829" on="0"/>
        <pt x="359" y="813" on="0"/>
      </contour>
      <contour>
        <pt x="79" y="740" on="1"/>
        <pt x="444" y="740" on="1"/>
        <pt x="444" y="699" on="1"/>
        <pt x="122" y="699" on="1"/>
        <pt x="122" y="396" on="1"/>
        <pt x="411" y="396" on="1"/>
        <pt x="411" y="355" on="1"/>
        <pt x="122" y="355" on="1"/>
        <pt x="122" y="41" on="1"/>
        <pt x="453" y="41" on="1"/>
        <pt x="453" y="0" on="1"/>
        <pt x="79" y="0" on="1"/>
      </contour>
    </TTGlyph>
    <TTGlyph name="Edieresis.sc" xMin="75" yMin="0" xMax="402" yMax="695">
      <contour>
        <pt x="157" y="634" on="1"/>
        <pt x="143" y="634" on="0"/>
        <pt x="125" y="648" on="0"/>
        <pt x="125" y="664" on="1"/>
        <pt x="125" y="681" on="0"/>
        <pt x="143" y="695" on="0"/>
        <pt x="157" y="695" on="1"/>
        <pt x="170" y="695" on="0"/>
        <pt x="188" y="680" on="0"/>
        <pt x="188" y="664" on="1"/>
        <pt x="188" y="648" on="0"/>
        <pt x="170" y="634" on="0"/>
      </contour>
      <contour>
        <pt x="311" y="634" on="1"/>
        <pt x="297" y="634" on="0"/>
        <pt x="279" y="648" on="0"/>
        <pt x="279" y="664" on="1"/>
        <pt x="279" y="681" on="0"/>
        <pt x="297" y="695" on="0"/>
        <pt x="311" y="695" on="1"/>
        <pt x="324" y="695" on="0"/>
        <pt x="343" y="680" on="0"/>
        <pt x="343" y="664" on="1"/>
        <pt x="343" y="648" on="0"/>
        <pt x="324" y="634" on="0"/>
      </contour>
      <contour>
        <pt x="75" y="577" on="1"/>
        <pt x="395" y="577" on="1"/>
        <pt x="395" y="538" on="1"/>
        <pt x="118" y="538" on="1"/>
        <pt x="118" y="312" on="1"/>
        <pt x="367" y="312" on="1"/>
        <pt x="367" y="274" on="1"/>
        <pt x="118" y="274" on="1"/>
        <pt x="118" y="40" on="1"/>
        <pt x="402" y="40" on="1"/>
        <pt x="402" y="0" on="1"/>
        <pt x="75" y="0" on="1"/>
      </contour>
    </TTGlyph>
    <TTGlyph name="Edotaccent" xMin="79" yMin="0" xMax="453" yMax="866">
      <contour>
        <pt x="259" y="799" on="1"/>
        <pt x="245" y="799" on="0"/>
        <pt x="226" y="815" on="0"/>
        <pt x="226" y="832" on="1"/>
        <pt x="226" y="850" on="0"/>
        <pt x="245" y="866" on="0"/>
        <pt x="259" y="866" on="1"/>
        <pt x="273" y="866" on="0"/>
        <pt x="293" y="849" on="0"/>
        <pt x="293" y="832" on="1"/>
        <pt x="293" y="815" on="0"/>
        <pt x="273" y="799" on="0"/>
      </contour>
      <contour>
        <pt x="79" y="740" on="1"/>
        <pt x="444" y="740" on="1"/>
        <pt x="444" y="699" on="1"/>
        <pt x="122" y="699" on="1"/>
        <pt x="122" y="396" on="1"/>
        <pt x="411" y="396" on="1"/>
        <pt x="411" y="355" on="1"/>
        <pt x="122" y="355" on="1"/>
        <pt x="122" y="41" on="1"/>
        <pt x="453" y="41" on="1"/>
        <pt x="453" y="0" on="1"/>
        <pt x="79" y="0" on="1"/>
      </contour>
    </TTGlyph>
    <TTGlyph name="Edotaccent.sc" xMin="75" yMin="0" xMax="402" yMax="684">
      <contour>
        <pt x="233" y="624" on="1"/>
        <pt x="202" y="624" on="0"/>
        <pt x="202" y="655" on="1"/>
        <pt x="202" y="684" on="0"/>
        <pt x="233" y="684" on="1"/>
        <pt x="247" y="684" on="0"/>
        <pt x="265" y="670" on="0"/>
        <pt x="265" y="655" on="1"/>
        <pt x="265" y="638" on="0"/>
        <pt x="247" y="624" on="0"/>
      </contour>
      <contour>
        <pt x="75" y="577" on="1"/>
        <pt x="395" y="577" on="1"/>
        <pt x="395" y="538" on="1"/>
        <pt x="118" y="538" on="1"/>
        <pt x="118" y="312" on="1"/>
        <pt x="367" y="312" on="1"/>
        <pt x="367" y="274" on="1"/>
        <pt x="118" y="274" on="1"/>
        <pt x="118" y="40" on="1"/>
        <pt x="402" y="40" on="1"/>
        <pt x="402" y="0" on="1"/>
        <pt x="75" y="0" on="1"/>
      </contour>
    </TTGlyph>
    <TTGlyph name="Edotbelow" xMin="79" yMin="-163" xMax="453" yMax="740">
      <contour>
        <pt x="79" y="740" on="1"/>
        <pt x="444" y="740" on="1"/>
        <pt x="444" y="699" on="1"/>
        <pt x="122" y="699" on="1"/>
        <pt x="122" y="396" on="1"/>
        <pt x="411" y="396" on="1"/>
        <pt x="411" y="355" on="1"/>
        <pt x="122" y="355" on="1"/>
        <pt x="122" y="41" on="1"/>
        <pt x="453" y="41" on="1"/>
        <pt x="453" y="0" on="1"/>
        <pt x="79" y="0" on="1"/>
      </contour>
      <contour>
        <pt x="278" y="-163" on="1"/>
        <pt x="261" y="-163" on="0"/>
        <pt x="240" y="-146" on="0"/>
        <pt x="240" y="-126" on="1"/>
        <pt x="240" y="-105" on="0"/>
        <pt x="261" y="-89" on="0"/>
        <pt x="278" y="-89" on="1"/>
        <pt x="295" y="-89" on="0"/>
        <pt x="315" y="-106" on="0"/>
        <pt x="315" y="-126" on="1"/>
        <pt x="315" y="-146" on="0"/>
        <pt x="295" y="-163" on="0"/>
      </contour>
    </TTGlyph>
    <TTGlyph name="Edotbelow.sc" xMin="75" yMin="-131" xMax="402" yMax="577">
      <contour>
        <pt x="249" y="-131" on="1"/>
        <pt x="215" y="-131" on="0"/>
        <pt x="215" y="-100" on="1"/>
        <pt x="215" y="-82" on="0"/>
        <pt x="233" y="-68" on="0"/>
        <pt x="249" y="-68" on="1"/>
        <pt x="264" y="-68" on="0"/>
        <pt x="283" y="-83" on="0"/>
        <pt x="283" y="-100" on="1"/>
        <pt x="283" y="-117" on="0"/>
        <pt x="264" y="-131" on="0"/>
      </contour>
      <contour>
        <pt x="75" y="577" on="1"/>
        <pt x="395" y="577" on="1"/>
        <pt x="395" y="538" on="1"/>
        <pt x="118" y="538" on="1"/>
        <pt x="118" y="312" on="1"/>
        <pt x="367" y="312" on="1"/>
        <pt x="367" y="274" on="1"/>
        <pt x="118" y="274" on="1"/>
        <pt x="118" y="40" on="1"/>
        <pt x="402" y="40" on="1"/>
        <pt x="402" y="0" on="1"/>
        <pt x="75" y="0" on="1"/>
      </contour>
    </TTGlyph>
    <TTGlyph name="Egrave" xMin="79" yMin="0" xMax="453" yMax="914">
      <contour>
        <pt x="236" y="784" on="1"/>
        <pt x="149" y="914" on="1"/>
        <pt x="196" y="914" on="1"/>
        <pt x="274" y="798" on="1"/>
      </contour>
      <contour>
        <pt x="79" y="740" on="1"/>
        <pt x="444" y="740" on="1"/>
        <pt x="444" y="699" on="1"/>
        <pt x="122" y="699" on="1"/>
        <pt x="122" y="396" on="1"/>
        <pt x="411" y="396" on="1"/>
        <pt x="411" y="355" on="1"/>
        <pt x="122" y="355" on="1"/>
        <pt x="122" y="41" on="1"/>
        <pt x="453" y="41" on="1"/>
        <pt x="453" y="0" on="1"/>
        <pt x="79" y="0" on="1"/>
      </contour>
    </TTGlyph>
    <TTGlyph name="Egrave.sc" xMin="75" yMin="0" xMax="402" yMax="718">
      <contour>
        <pt x="75" y="577" on="1"/>
        <pt x="395" y="577" on="1"/>
        <pt x="395" y="538" on="1"/>
        <pt x="118" y="538" on="1"/>
        <pt x="118" y="312" on="1"/>
        <pt x="367" y="312" on="1"/>
        <pt x="367" y="274" on="1"/>
        <pt x="118" y="274" on="1"/>
        <pt x="118" y="40" on="1"/>
        <pt x="402" y="40" on="1"/>
        <pt x="402" y="0" on="1"/>
        <pt x="75" y="0" on="1"/>
      </contour>
      <contour>
        <pt x="137" y="718" on="1"/>
        <pt x="182" y="718" on="1"/>
        <pt x="248" y="623" on="1"/>
        <pt x="212" y="613" on="1"/>
      </contour>
    </TTGlyph>
    <TTGlyph name="Einvertedbreve" xMin="79" yMin="0" xMax="453" yMax="960">
      <contour>
        <pt x="79" y="740" on="1"/>
        <pt x="444" y="740" on="1"/>
        <pt x="444" y="699" on="1"/>
        <pt x="122" y="699" on="1"/>
        <pt x="122" y="396" on="1"/>
        <pt x="411" y="396" on="1"/>
        <pt x="411" y="355" on="1"/>
        <pt x="122" y="355" on="1"/>
        <pt x="122" y="41" on="1"/>
        <pt x="453" y="41" on="1"/>
        <pt x="453" y="0" on="1"/>
        <pt x="79" y="0" on="1"/>
      </contour>
      <contour>
        <pt x="358" y="824" on="1"/>
        <pt x="358" y="871" on="0"/>
        <pt x="307" y="923" on="0"/>
        <pt x="260" y="923" on="1"/>
        <pt x="212" y="923" on="0"/>
        <pt x="161" y="871" on="0"/>
        <pt x="161" y="824" on="1"/>
        <pt x="121" y="824" on="1"/>
        <pt x="121" y="887" on="0"/>
        <pt x="194" y="960" on="0"/>
        <pt x="260" y="960" on="1"/>
        <pt x="325" y="960" on="0"/>
        <pt x="398" y="887" on="0"/>
        <pt x="398" y="824" on="1"/>
      </contour>
    </TTGlyph>
    <TTGlyph name="Einvertedbreve.sc" xMin="75" yMin="0" xMax="402" yMax="750">
      <contour>
        <pt x="112" y="642" on="1"/>
        <pt x="112" y="693" on="0"/>
        <pt x="176" y="750" on="0"/>
        <pt x="233" y="750" on="1"/>
        <pt x="290" y="750" on="0"/>
        <pt x="355" y="693" on="0"/>
        <pt x="355" y="642" on="1"/>
        <pt x="318" y="642" on="1"/>
        <pt x="318" y="678" on="0"/>
        <pt x="274" y="718" on="0"/>
        <pt x="233" y="718" on="1"/>
        <pt x="193" y="718" on="0"/>
        <pt x="149" y="678" on="0"/>
        <pt x="149" y="642" on="1"/>
      </contour>
      <contour>
        <pt x="75" y="577" on="1"/>
        <pt x="395" y="577" on="1"/>
        <pt x="395" y="538" on="1"/>
        <pt x="118" y="538" on="1"/>
        <pt x="118" y="312" on="1"/>
        <pt x="367" y="312" on="1"/>
        <pt x="367" y="274" on="1"/>
        <pt x="118" y="274" on="1"/>
        <pt x="118" y="40" on="1"/>
        <pt x="402" y="40" on="1"/>
        <pt x="402" y="0" on="1"/>
        <pt x="75" y="0" on="1"/>
      </contour>
    </TTGlyph>
    <TTGlyph name="Emacron" xMin="79" yMin="0" xMax="453" yMax="881">
      <contour>
        <pt x="142" y="881" on="1"/>
        <pt x="359" y="881" on="1"/>
        <pt x="359" y="842" on="1"/>
        <pt x="142" y="842" on="1"/>
      </contour>
      <contour>
        <pt x="79" y="740" on="1"/>
        <pt x="444" y="740" on="1"/>
        <pt x="444" y="699" on="1"/>
        <pt x="122" y="699" on="1"/>
        <pt x="122" y="396" on="1"/>
        <pt x="411" y="396" on="1"/>
        <pt x="411" y="355" on="1"/>
        <pt x="122" y="355" on="1"/>
        <pt x="122" y="41" on="1"/>
        <pt x="453" y="41" on="1"/>
        <pt x="453" y="0" on="1"/>
        <pt x="79" y="0" on="1"/>
      </contour>
    </TTGlyph>
    <TTGlyph name="Emacron.sc" xMin="75" yMin="0" xMax="402" yMax="692">
      <contour>
        <pt x="75" y="577" on="1"/>
        <pt x="395" y="577" on="1"/>
        <pt x="395" y="538" on="1"/>
        <pt x="118" y="538" on="1"/>
        <pt x="118" y="312" on="1"/>
        <pt x="367" y="312" on="1"/>
        <pt x="367" y="274" on="1"/>
        <pt x="118" y="274" on="1"/>
        <pt x="118" y="40" on="1"/>
        <pt x="402" y="40" on="1"/>
        <pt x="402" y="0" on="1"/>
        <pt x="75" y="0" on="1"/>
      </contour>
      <contour>
        <pt x="130" y="692" on="1"/>
        <pt x="323" y="692" on="1"/>
        <pt x="323" y="656" on="1"/>
        <pt x="130" y="656" on="1"/>
      </contour>
    </TTGlyph>
    <TTGlyph name="Eng" xMin="79" yMin="-178" xMax="564" yMax="740">
      <contour>
        <pt x="444" y="-168" on="1"/>
        <pt x="467" y="-123" on="0"/>
        <pt x="503" y="-34" on="0"/>
        <pt x="513" y="4" on="1"/>
        <pt x="175" y="575" on="1"/>
        <pt x="126" y="664" on="1"/>
        <pt x="121" y="663" on="1"/>
        <pt x="121" y="0" on="1"/>
        <pt x="79" y="0" on="1"/>
        <pt x="79" y="740" on="1"/>
        <pt x="126" y="740" on="1"/>
        <pt x="471" y="160" on="1"/>
        <pt x="517" y="75" on="1"/>
        <pt x="522" y="76" on="1"/>
        <pt x="522" y="740" on="1"/>
        <pt x="564" y="740" on="1"/>
        <pt x="564" y="51" on="1"/>
        <pt x="564" y="31" on="0"/>
        <pt x="550" y="-26" on="0"/>
        <pt x="527" y="-88" on="0"/>
        <pt x="496" y="-151" on="0"/>
        <pt x="479" y="-178" on="1"/>
      </contour>
    </TTGlyph>
    <TTGlyph name="Eng.sc" xMin="75" yMin="-141" xMax="497" yMax="577">
      <contour>
        <pt x="390" y="-131" on="1"/>
        <pt x="410" y="-96" on="0"/>
        <pt x="440" y="-24" on="0"/>
        <pt x="448" y="8" on="1"/>
        <pt x="162" y="434" on="1"/>
        <pt x="120" y="503" on="1"/>
        <pt x="116" y="503" on="1"/>
        <pt x="116" y="0" on="1"/>
        <pt x="75" y="0" on="1"/>
        <pt x="75" y="577" on="1"/>
        <pt x="120" y="577" on="1"/>
        <pt x="412" y="140" on="1"/>
        <pt x="452" y="74" on="1"/>
        <pt x="456" y="75" on="1"/>
        <pt x="456" y="577" on="1"/>
        <pt x="497" y="577" on="1"/>
        <pt x="497" y="45" on="1"/>
        <pt x="497" y="28" on="0"/>
        <pt x="485" y="-17" on="0"/>
        <pt x="465" y="-68" on="0"/>
        <pt x="438" y="-119" on="0"/>
        <pt x="423" y="-141" on="1"/>
      </contour>
    </TTGlyph>
    <TTGlyph name="Eogonek" xMin="79" yMin="-220" xMax="453" yMax="740">
      <contour>
        <pt x="79" y="740" on="1"/>
        <pt x="444" y="740" on="1"/>
        <pt x="444" y="699" on="1"/>
        <pt x="122" y="699" on="1"/>
        <pt x="122" y="396" on="1"/>
        <pt x="411" y="396" on="1"/>
        <pt x="411" y="355" on="1"/>
        <pt x="122" y="355" on="1"/>
        <pt x="122" y="41" on="1"/>
        <pt x="453" y="41" on="1"/>
        <pt x="453" y="-18" on="1"/>
        <pt x="405" y="-43" on="0"/>
        <pt x="362" y="-98" on="0"/>
        <pt x="362" y="-133" on="1"/>
        <pt x="362" y="-182" on="0"/>
        <pt x="410" y="-182" on="1"/>
        <pt x="433" y="-182" on="0"/>
        <pt x="453" y="-172" on="1"/>
        <pt x="453" y="-208" on="1"/>
        <pt x="429" y="-220" on="0"/>
        <pt x="404" y="-220" on="1"/>
        <pt x="366" y="-220" on="0"/>
        <pt x="323" y="-176" on="0"/>
        <pt x="323" y="-137" on="1"/>
        <pt x="323" y="-58" on="0"/>
        <pt x="416" y="0" on="1"/>
        <pt x="79" y="0" on="1"/>
      </contour>
    </TTGlyph>
    <TTGlyph name="Eogonek.sc" xMin="75" yMin="-172" xMax="402" yMax="577">
      <contour>
        <pt x="360" y="-172" on="1"/>
        <pt x="325" y="-172" on="0"/>
        <pt x="287" y="-138" on="0"/>
        <pt x="287" y="-106" on="1"/>
        <pt x="287" y="-45" on="0"/>
        <pt x="366" y="0" on="1"/>
        <pt x="75" y="0" on="1"/>
        <pt x="75" y="577" on="1"/>
        <pt x="395" y="577" on="1"/>
        <pt x="395" y="538" on="1"/>
        <pt x="118" y="538" on="1"/>
        <pt x="118" y="312" on="1"/>
        <pt x="367" y="312" on="1"/>
        <pt x="367" y="274" on="1"/>
        <pt x="118" y="274" on="1"/>
        <pt x="118" y="40" on="1"/>
        <pt x="402" y="40" on="1"/>
        <pt x="402" y="-13" on="1"/>
        <pt x="365" y="-27" on="0"/>
        <pt x="323" y="-76" on="0"/>
        <pt x="323" y="-104" on="1"/>
        <pt x="323" y="-138" on="0"/>
        <pt x="363" y="-138" on="1"/>
        <pt x="383" y="-138" on="0"/>
        <pt x="402" y="-130" on="1"/>
        <pt x="402" y="-162" on="1"/>
        <pt x="391" y="-167" on="0"/>
        <pt x="371" y="-172" on="0"/>
      </contour>
    </TTGlyph>
    <TTGlyph name="Eth" xMin="0" yMin="-18" xMax="530" yMax="750">
      <contour>
        <pt x="0" y="388" on="1"/>
        <pt x="89" y="388" on="1"/>
        <pt x="89" y="732" on="1"/>
        <pt x="134" y="741" on="0"/>
        <pt x="206" y="750" on="0"/>
        <pt x="236" y="750" on="1"/>
        <pt x="387" y="750" on="0"/>
        <pt x="530" y="564" on="0"/>
        <pt x="530" y="369" on="1"/>
        <pt x="530" y="169" on="0"/>
        <pt x="369" y="-18" on="0"/>
        <pt x="196" y="-18" on="1"/>
        <pt x="170" y="-18" on="0"/>
        <pt x="117" y="-15" on="0"/>
        <pt x="89" y="-10" on="1"/>
        <pt x="89" y="348" on="1"/>
        <pt x="0" y="348" on="1"/>
      </contour>
      <contour>
        <pt x="202" y="24" on="1"/>
        <pt x="484" y="24" on="0"/>
        <pt x="484" y="369" on="1"/>
        <pt x="484" y="546" on="0"/>
        <pt x="364" y="709" on="0"/>
        <pt x="234" y="709" on="1"/>
        <pt x="182" y="709" on="0"/>
        <pt x="132" y="699" on="1"/>
        <pt x="132" y="388" on="1"/>
        <pt x="290" y="388" on="1"/>
        <pt x="290" y="348" on="1"/>
        <pt x="132" y="348" on="1"/>
        <pt x="132" y="29" on="1"/>
        <pt x="153" y="27" on="0"/>
        <pt x="187" y="24" on="0"/>
      </contour>
    </TTGlyph>
    <TTGlyph name="Eth.sc" xMin="6" yMin="-13" xMax="469" yMax="585">
      <contour>
        <pt x="6" y="306" on="1"/>
        <pt x="82" y="306" on="1"/>
        <pt x="82" y="572" on="1"/>
        <pt x="121" y="578" on="0"/>
        <pt x="185" y="585" on="0"/>
        <pt x="212" y="585" on="1"/>
        <pt x="345" y="585" on="0"/>
        <pt x="469" y="441" on="0"/>
        <pt x="469" y="288" on="1"/>
        <pt x="469" y="131" on="0"/>
        <pt x="330" y="-13" on="0"/>
        <pt x="180" y="-13" on="1"/>
        <pt x="156" y="-13" on="0"/>
        <pt x="107" y="-11" on="0"/>
        <pt x="82" y="-6" on="1"/>
        <pt x="82" y="268" on="1"/>
        <pt x="6" y="268" on="1"/>
      </contour>
      <contour>
        <pt x="188" y="27" on="1"/>
        <pt x="307" y="27" on="0"/>
        <pt x="425" y="154" on="0"/>
        <pt x="425" y="288" on="1"/>
        <pt x="425" y="423" on="0"/>
        <pt x="321" y="546" on="0"/>
        <pt x="211" y="546" on="1"/>
        <pt x="190" y="546" on="0"/>
        <pt x="147" y="543" on="0"/>
        <pt x="125" y="539" on="1"/>
        <pt x="125" y="306" on="1"/>
        <pt x="258" y="306" on="1"/>
        <pt x="258" y="268" on="1"/>
        <pt x="125" y="268" on="1"/>
        <pt x="125" y="31" on="1"/>
        <pt x="143" y="29" on="0"/>
        <pt x="174" y="27" on="0"/>
      </contour>
    </TTGlyph>
    <TTGlyph name="Etilde" xMin="79" yMin="0" xMax="453" yMax="903">
      <contour>
        <pt x="115" y="849" on="1"/>
        <pt x="129" y="869" on="0"/>
        <pt x="179" y="903" on="0"/>
        <pt x="203" y="903" on="1"/>
        <pt x="222" y="903" on="0"/>
        <pt x="252" y="890" on="0"/>
        <pt x="280" y="873" on="0"/>
        <pt x="307" y="860" on="0"/>
        <pt x="324" y="860" on="1"/>
        <pt x="340" y="860" on="0"/>
        <pt x="367" y="882" on="0"/>
        <pt x="377" y="900" on="1"/>
        <pt x="404" y="880" on="1"/>
        <pt x="393" y="854" on="0"/>
        <pt x="345" y="821" on="0"/>
        <pt x="321" y="821" on="1"/>
        <pt x="302" y="821" on="0"/>
        <pt x="272" y="834" on="0"/>
        <pt x="244" y="851" on="0"/>
        <pt x="216" y="864" on="0"/>
        <pt x="200" y="864" on="1"/>
        <pt x="183" y="864" on="0"/>
        <pt x="150" y="841" on="0"/>
        <pt x="139" y="825" on="1"/>
      </contour>
      <contour>
        <pt x="79" y="740" on="1"/>
        <pt x="444" y="740" on="1"/>
        <pt x="444" y="699" on="1"/>
        <pt x="122" y="699" on="1"/>
        <pt x="122" y="396" on="1"/>
        <pt x="411" y="396" on="1"/>
        <pt x="411" y="355" on="1"/>
        <pt x="122" y="355" on="1"/>
        <pt x="122" y="41" on="1"/>
        <pt x="453" y="41" on="1"/>
        <pt x="453" y="0" on="1"/>
        <pt x="79" y="0" on="1"/>
      </contour>
    </TTGlyph>
    <TTGlyph name="Etilde.sc" xMin="75" yMin="0" xMax="402" yMax="709">
      <contour>
        <pt x="107" y="662" on="1"/>
        <pt x="121" y="681" on="0"/>
        <pt x="164" y="709" on="0"/>
        <pt x="185" y="709" on="1"/>
        <pt x="201" y="709" on="0"/>
        <pt x="228" y="699" on="0"/>
        <pt x="253" y="686" on="0"/>
        <pt x="277" y="676" on="0"/>
        <pt x="291" y="676" on="1"/>
        <pt x="321" y="676" on="0"/>
        <pt x="340" y="707" on="1"/>
        <pt x="363" y="691" on="1"/>
        <pt x="352" y="668" on="0"/>
        <pt x="309" y="640" on="0"/>
        <pt x="288" y="640" on="1"/>
        <pt x="272" y="640" on="0"/>
        <pt x="245" y="651" on="0"/>
        <pt x="220" y="663" on="0"/>
        <pt x="195" y="674" on="0"/>
        <pt x="181" y="674" on="1"/>
        <pt x="167" y="674" on="0"/>
        <pt x="138" y="657" on="0"/>
        <pt x="127" y="643" on="1"/>
      </contour>
      <contour>
        <pt x="75" y="577" on="1"/>
        <pt x="395" y="577" on="1"/>
        <pt x="395" y="538" on="1"/>
        <pt x="118" y="538" on="1"/>
        <pt x="118" y="312" on="1"/>
        <pt x="367" y="312" on="1"/>
        <pt x="367" y="274" on="1"/>
        <pt x="118" y="274" on="1"/>
        <pt x="118" y="40" on="1"/>
        <pt x="402" y="40" on="1"/>
        <pt x="402" y="0" on="1"/>
        <pt x="75" y="0" on="1"/>
      </contour>
    </TTGlyph>
    <TTGlyph name="Euro" xMin="40" yMin="-10" xMax="451" yMax="748">
      <contour>
        <pt x="40" y="472" on="1"/>
        <pt x="115" y="472" on="1"/>
        <pt x="122" y="545" on="0"/>
        <pt x="163" y="650" on="0"/>
        <pt x="231" y="717" on="0"/>
        <pt x="328" y="748" on="0"/>
        <pt x="393" y="748" on="1"/>
        <pt x="413" y="748" on="0"/>
        <pt x="437" y="747" on="0"/>
        <pt x="451" y="745" on="1"/>
        <pt x="435" y="705" on="1"/>
        <pt x="427" y="706" on="0"/>
        <pt x="411" y="707" on="0"/>
        <pt x="398" y="707" on="1"/>
        <pt x="288" y="707" on="0"/>
        <pt x="174" y="599" on="0"/>
        <pt x="161" y="472" on="1"/>
        <pt x="379" y="472" on="1"/>
        <pt x="359" y="434" on="1"/>
        <pt x="157" y="434" on="1"/>
        <pt x="156" y="418" on="0"/>
        <pt x="156" y="386" on="0"/>
        <pt x="156" y="369" on="1"/>
        <pt x="156" y="352" on="0"/>
        <pt x="156" y="320" on="0"/>
        <pt x="158" y="305" on="1"/>
        <pt x="347" y="305" on="1"/>
        <pt x="327" y="267" on="1"/>
        <pt x="161" y="267" on="1"/>
        <pt x="175" y="143" on="0"/>
        <pt x="287" y="31" on="0"/>
        <pt x="393" y="31" on="1"/>
        <pt x="400" y="31" on="0"/>
        <pt x="423" y="33" on="0"/>
        <pt x="437" y="34" on="1"/>
        <pt x="437" y="-8" on="1"/>
        <pt x="429" y="-10" on="0"/>
        <pt x="411" y="-10" on="0"/>
        <pt x="395" y="-10" on="1"/>
        <pt x="267" y="-8" on="0"/>
        <pt x="132" y="124" on="0"/>
        <pt x="116" y="267" on="1"/>
        <pt x="40" y="267" on="1"/>
        <pt x="40" y="305" on="1"/>
        <pt x="113" y="305" on="1"/>
        <pt x="111" y="320" on="0"/>
        <pt x="111" y="352" on="0"/>
        <pt x="111" y="369" on="1"/>
        <pt x="111" y="386" on="0"/>
        <pt x="112" y="418" on="0"/>
        <pt x="113" y="434" on="1"/>
        <pt x="40" y="434" on="1"/>
      </contour>
    </TTGlyph>
    <TTGlyph name="Euro.tab" xMin="37" yMin="-10" xMax="453" yMax="748">
      <contour>
        <pt x="37" y="472" on="1"/>
        <pt x="114" y="472" on="1"/>
        <pt x="121" y="546" on="0"/>
        <pt x="162" y="651" on="0"/>
        <pt x="230" y="717" on="0"/>
        <pt x="329" y="748" on="0"/>
        <pt x="395" y="748" on="1"/>
        <pt x="415" y="748" on="0"/>
        <pt x="439" y="747" on="0"/>
        <pt x="453" y="745" on="1"/>
        <pt x="438" y="705" on="1"/>
        <pt x="430" y="706" on="0"/>
        <pt x="414" y="707" on="0"/>
        <pt x="400" y="707" on="1"/>
        <pt x="344" y="707" on="0"/>
        <pt x="260" y="681" on="0"/>
        <pt x="201" y="625" on="0"/>
        <pt x="167" y="535" on="0"/>
        <pt x="160" y="472" on="1"/>
        <pt x="381" y="472" on="1"/>
        <pt x="361" y="434" on="1"/>
        <pt x="156" y="434" on="1"/>
        <pt x="154" y="419" on="0"/>
        <pt x="154" y="386" on="0"/>
        <pt x="154" y="369" on="1"/>
        <pt x="154" y="352" on="0"/>
        <pt x="154" y="320" on="0"/>
        <pt x="156" y="305" on="1"/>
        <pt x="348" y="305" on="1"/>
        <pt x="328" y="267" on="1"/>
        <pt x="160" y="267" on="1"/>
        <pt x="174" y="143" on="0"/>
        <pt x="288" y="31" on="0"/>
        <pt x="395" y="31" on="1"/>
        <pt x="402" y="31" on="0"/>
        <pt x="425" y="33" on="0"/>
        <pt x="439" y="34" on="1"/>
        <pt x="439" y="-8" on="1"/>
        <pt x="431" y="-10" on="0"/>
        <pt x="412" y="-10" on="0"/>
        <pt x="396" y="-10" on="1"/>
        <pt x="267" y="-8" on="0"/>
        <pt x="130" y="124" on="0"/>
        <pt x="114" y="267" on="1"/>
        <pt x="37" y="267" on="1"/>
        <pt x="37" y="305" on="1"/>
        <pt x="111" y="305" on="1"/>
        <pt x="109" y="320" on="0"/>
        <pt x="109" y="352" on="0"/>
        <pt x="109" y="369" on="1"/>
        <pt x="109" y="386" on="0"/>
        <pt x="110" y="419" on="0"/>
        <pt x="111" y="434" on="1"/>
        <pt x="37" y="434" on="1"/>
      </contour>
    </TTGlyph>
    <TTGlyph name="F" xMin="79" yMin="0" xMax="424" yMax="740">
      <contour>
        <pt x="79" y="740" on="1"/>
        <pt x="424" y="740" on="1"/>
        <pt x="424" y="699" on="1"/>
        <pt x="122" y="699" on="1"/>
        <pt x="122" y="395" on="1"/>
        <pt x="407" y="395" on="1"/>
        <pt x="407" y="354" on="1"/>
        <pt x="122" y="354" on="1"/>
        <pt x="122" y="0" on="1"/>
        <pt x="79" y="0" on="1"/>
      </contour>
    </TTGlyph>
    <TTGlyph name="F.sc" xMin="75" yMin="0" xMax="379" yMax="577">
      <contour>
        <pt x="75" y="577" on="1"/>
        <pt x="379" y="577" on="1"/>
        <pt x="379" y="538" on="1"/>
        <pt x="118" y="538" on="1"/>
        <pt x="118" y="310" on="1"/>
        <pt x="363" y="310" on="1"/>
        <pt x="363" y="271" on="1"/>
        <pt x="118" y="271" on="1"/>
        <pt x="118" y="0" on="1"/>
        <pt x="75" y="0" on="1"/>
      </contour>
    </TTGlyph>
    <TTGlyph name="F_B.sc" xMin="75" yMin="-8" xMax="840" yMax="585">
      <contour>
        <pt x="75" y="577" on="1"/>
        <pt x="379" y="577" on="1"/>
        <pt x="379" y="538" on="1"/>
        <pt x="118" y="538" on="1"/>
        <pt x="118" y="310" on="1"/>
        <pt x="363" y="310" on="1"/>
        <pt x="363" y="271" on="1"/>
        <pt x="118" y="271" on="1"/>
        <pt x="118" y="0" on="1"/>
        <pt x="75" y="0" on="1"/>
      </contour>
      <contour>
        <pt x="638" y="-8" on="1"/>
        <pt x="619" y="-8" on="0"/>
        <pt x="574" y="-6" on="0"/>
        <pt x="529" y="-3" on="0"/>
        <pt x="488" y="1" on="0"/>
        <pt x="474" y="4" on="1"/>
        <pt x="474" y="575" on="1"/>
        <pt x="502" y="578" on="0"/>
        <pt x="545" y="581" on="0"/>
        <pt x="579" y="584" on="0"/>
        <pt x="609" y="585" on="0"/>
        <pt x="624" y="585" on="1"/>
        <pt x="725" y="585" on="0"/>
        <pt x="820" y="510" on="0"/>
        <pt x="820" y="430" on="1"/>
        <pt x="820" y="375" on="0"/>
        <pt x="768" y="305" on="0"/>
        <pt x="718" y="296" on="1"/>
        <pt x="718" y="293" on="1"/>
        <pt x="775" y="285" on="0"/>
        <pt x="840" y="211" on="0"/>
        <pt x="840" y="151" on="1"/>
        <pt x="840" y="-8" on="0"/>
      </contour>
      <contour>
        <pt x="641" y="27" on="1"/>
        <pt x="796" y="27" on="0"/>
        <pt x="796" y="152" on="1"/>
        <pt x="796" y="217" on="0"/>
        <pt x="717" y="273" on="0"/>
        <pt x="624" y="273" on="1"/>
        <pt x="516" y="273" on="1"/>
        <pt x="516" y="36" on="1"/>
        <pt x="523" y="34" on="0"/>
        <pt x="551" y="31" on="0"/>
        <pt x="587" y="29" on="0"/>
        <pt x="625" y="27" on="0"/>
      </contour>
      <contour>
        <pt x="623" y="310" on="1"/>
        <pt x="707" y="310" on="0"/>
        <pt x="776" y="364" on="0"/>
        <pt x="776" y="429" on="1"/>
        <pt x="776" y="491" on="0"/>
        <pt x="704" y="548" on="0"/>
        <pt x="627" y="548" on="1"/>
        <pt x="597" y="548" on="0"/>
        <pt x="545" y="545" on="0"/>
        <pt x="516" y="541" on="1"/>
        <pt x="516" y="310" on="1"/>
      </contour>
    </TTGlyph>
    <TTGlyph name="F_F.sc" xMin="75" yMin="0" xMax="778" yMax="577">
      <contour>
        <pt x="75" y="577" on="1"/>
        <pt x="379" y="577" on="1"/>
        <pt x="379" y="538" on="1"/>
        <pt x="118" y="538" on="1"/>
        <pt x="118" y="310" on="1"/>
        <pt x="363" y="310" on="1"/>
        <pt x="363" y="271" on="1"/>
        <pt x="118" y="271" on="1"/>
        <pt x="118" y="0" on="1"/>
        <pt x="75" y="0" on="1"/>
      </contour>
      <contour>
        <pt x="474" y="577" on="1"/>
        <pt x="778" y="577" on="1"/>
        <pt x="778" y="538" on="1"/>
        <pt x="517" y="538" on="1"/>
        <pt x="517" y="310" on="1"/>
        <pt x="762" y="310" on="1"/>
        <pt x="762" y="271" on="1"/>
        <pt x="517" y="271" on="1"/>
        <pt x="517" y="0" on="1"/>
        <pt x="474" y="0" on="1"/>
      </contour>
    </TTGlyph>
    <TTGlyph name="F_F_B.sc" xMin="75" yMin="-8" xMax="1238" yMax="585">
      <contour>
        <pt x="75" y="577" on="1"/>
        <pt x="379" y="577" on="1"/>
        <pt x="379" y="538" on="1"/>
        <pt x="118" y="538" on="1"/>
        <pt x="118" y="310" on="1"/>
        <pt x="363" y="310" on="1"/>
        <pt x="363" y="271" on="1"/>
        <pt x="118" y="271" on="1"/>
        <pt x="118" y="0" on="1"/>
        <pt x="75" y="0" on="1"/>
      </contour>
      <contour>
        <pt x="474" y="577" on="1"/>
        <pt x="778" y="577" on="1"/>
        <pt x="778" y="538" on="1"/>
        <pt x="517" y="538" on="1"/>
        <pt x="517" y="310" on="1"/>
        <pt x="762" y="310" on="1"/>
        <pt x="762" y="271" on="1"/>
        <pt x="517" y="271" on="1"/>
        <pt x="517" y="0" on="1"/>
        <pt x="474" y="0" on="1"/>
      </contour>
      <contour>
        <pt x="1036" y="-8" on="1"/>
        <pt x="1017" y="-8" on="0"/>
        <pt x="972" y="-6" on="0"/>
        <pt x="927" y="-3" on="0"/>
        <pt x="886" y="1" on="0"/>
        <pt x="872" y="4" on="1"/>
        <pt x="872" y="575" on="1"/>
        <pt x="900" y="578" on="0"/>
        <pt x="943" y="581" on="0"/>
        <pt x="977" y="584" on="0"/>
        <pt x="1007" y="585" on="0"/>
        <pt x="1022" y="585" on="1"/>
        <pt x="1123" y="585" on="0"/>
        <pt x="1218" y="510" on="0"/>
        <pt x="1218" y="430" on="1"/>
        <pt x="1218" y="375" on="0"/>
        <pt x="1166" y="305" on="0"/>
        <pt x="1116" y="296" on="1"/>
        <pt x="1116" y="293" on="1"/>
        <pt x="1173" y="285" on="0"/>
        <pt x="1238" y="211" on="0"/>
        <pt x="1238" y="151" on="1"/>
        <pt x="1238" y="-8" on="0"/>
      </contour>
      <contour>
        <pt x="1039" y="27" on="1"/>
        <pt x="1194" y="27" on="0"/>
        <pt x="1194" y="152" on="1"/>
        <pt x="1194" y="217" on="0"/>
        <pt x="1115" y="273" on="0"/>
        <pt x="1022" y="273" on="1"/>
        <pt x="914" y="273" on="1"/>
        <pt x="914" y="36" on="1"/>
        <pt x="921" y="34" on="0"/>
        <pt x="949" y="31" on="0"/>
        <pt x="985" y="29" on="0"/>
        <pt x="1023" y="27" on="0"/>
      </contour>
      <contour>
        <pt x="1021" y="310" on="1"/>
        <pt x="1105" y="310" on="0"/>
        <pt x="1174" y="364" on="0"/>
        <pt x="1174" y="429" on="1"/>
        <pt x="1174" y="491" on="0"/>
        <pt x="1102" y="548" on="0"/>
        <pt x="1025" y="548" on="1"/>
        <pt x="995" y="548" on="0"/>
        <pt x="943" y="545" on="0"/>
        <pt x="914" y="541" on="1"/>
        <pt x="914" y="310" on="1"/>
      </contour>
    </TTGlyph>
    <TTGlyph name="F_F_H.sc" xMin="75" yMin="0" xMax="1265" yMax="577">
      <contour>
        <pt x="75" y="577" on="1"/>
        <pt x="379" y="577" on="1"/>
        <pt x="379" y="538" on="1"/>
        <pt x="118" y="538" on="1"/>
        <pt x="118" y="310" on="1"/>
        <pt x="363" y="310" on="1"/>
        <pt x="363" y="271" on="1"/>
        <pt x="118" y="271" on="1"/>
        <pt x="118" y="0" on="1"/>
        <pt x="75" y="0" on="1"/>
      </contour>
      <contour>
        <pt x="474" y="577" on="1"/>
        <pt x="778" y="577" on="1"/>
        <pt x="778" y="538" on="1"/>
        <pt x="517" y="538" on="1"/>
        <pt x="517" y="310" on="1"/>
        <pt x="762" y="310" on="1"/>
        <pt x="762" y="271" on="1"/>
        <pt x="517" y="271" on="1"/>
        <pt x="517" y="0" on="1"/>
        <pt x="474" y="0" on="1"/>
      </contour>
      <contour>
        <pt x="872" y="577" on="1"/>
        <pt x="915" y="577" on="1"/>
        <pt x="915" y="314" on="1"/>
        <pt x="1222" y="314" on="1"/>
        <pt x="1222" y="577" on="1"/>
        <pt x="1265" y="577" on="1"/>
        <pt x="1265" y="0" on="1"/>
        <pt x="1222" y="0" on="1"/>
        <pt x="1222" y="275" on="1"/>
        <pt x="915" y="275" on="1"/>
        <pt x="915" y="0" on="1"/>
        <pt x="872" y="0" on="1"/>
      </contour>
    </TTGlyph>
    <TTGlyph name="F_F_I.sc" xMin="75" yMin="0" xMax="915" yMax="577">
      <contour>
        <pt x="75" y="577" on="1"/>
        <pt x="379" y="577" on="1"/>
        <pt x="379" y="538" on="1"/>
        <pt x="118" y="538" on="1"/>
        <pt x="118" y="310" on="1"/>
        <pt x="363" y="310" on="1"/>
        <pt x="363" y="271" on="1"/>
        <pt x="118" y="271" on="1"/>
        <pt x="118" y="0" on="1"/>
        <pt x="75" y="0" on="1"/>
      </contour>
      <contour>
        <pt x="474" y="577" on="1"/>
        <pt x="778" y="577" on="1"/>
        <pt x="778" y="538" on="1"/>
        <pt x="517" y="538" on="1"/>
        <pt x="517" y="310" on="1"/>
        <pt x="762" y="310" on="1"/>
        <pt x="762" y="271" on="1"/>
        <pt x="517" y="271" on="1"/>
        <pt x="517" y="0" on="1"/>
        <pt x="474" y="0" on="1"/>
      </contour>
      <contour>
        <pt x="872" y="577" on="1"/>
        <pt x="915" y="577" on="1"/>
        <pt x="915" y="0" on="1"/>
        <pt x="872" y="0" on="1"/>
      </contour>
    </TTGlyph>
    <TTGlyph name="F_F_J.sc" xMin="75" yMin="-140" xMax="928" yMax="577">
      <contour>
        <pt x="75" y="577" on="1"/>
        <pt x="379" y="577" on="1"/>
        <pt x="379" y="538" on="1"/>
        <pt x="118" y="538" on="1"/>
        <pt x="118" y="310" on="1"/>
        <pt x="363" y="310" on="1"/>
        <pt x="363" y="271" on="1"/>
        <pt x="118" y="271" on="1"/>
        <pt x="118" y="0" on="1"/>
        <pt x="75" y="0" on="1"/>
      </contour>
      <contour>
        <pt x="474" y="577" on="1"/>
        <pt x="778" y="577" on="1"/>
        <pt x="778" y="538" on="1"/>
        <pt x="517" y="538" on="1"/>
        <pt x="517" y="310" on="1"/>
        <pt x="762" y="310" on="1"/>
        <pt x="762" y="271" on="1"/>
        <pt x="517" y="271" on="1"/>
        <pt x="517" y="0" on="1"/>
        <pt x="474" y="0" on="1"/>
      </contour>
      <contour>
        <pt x="814" y="-124" on="1"/>
        <pt x="835" y="-82" on="0"/>
        <pt x="863" y="-17" on="0"/>
        <pt x="879" y="42" on="0"/>
        <pt x="885" y="103" on="0"/>
        <pt x="885" y="142" on="1"/>
        <pt x="885" y="577" on="1"/>
        <pt x="928" y="577" on="1"/>
        <pt x="928" y="140" on="1"/>
        <pt x="928" y="66" on="0"/>
        <pt x="888" y="-66" on="0"/>
        <pt x="843" y="-140" on="1"/>
      </contour>
    </TTGlyph>
    <TTGlyph name="F_F_K.sc" xMin="75" yMin="0" xMax="1271" yMax="577">
      <contour>
        <pt x="75" y="577" on="1"/>
        <pt x="379" y="577" on="1"/>
        <pt x="379" y="538" on="1"/>
        <pt x="118" y="538" on="1"/>
        <pt x="118" y="310" on="1"/>
        <pt x="363" y="310" on="1"/>
        <pt x="363" y="271" on="1"/>
        <pt x="118" y="271" on="1"/>
        <pt x="118" y="0" on="1"/>
        <pt x="75" y="0" on="1"/>
      </contour>
      <contour>
        <pt x="474" y="577" on="1"/>
        <pt x="778" y="577" on="1"/>
        <pt x="778" y="538" on="1"/>
        <pt x="517" y="538" on="1"/>
        <pt x="517" y="310" on="1"/>
        <pt x="762" y="310" on="1"/>
        <pt x="762" y="271" on="1"/>
        <pt x="517" y="271" on="1"/>
        <pt x="517" y="0" on="1"/>
        <pt x="474" y="0" on="1"/>
      </contour>
      <contour>
        <pt x="872" y="577" on="1"/>
        <pt x="915" y="577" on="1"/>
        <pt x="915" y="313" on="1"/>
        <pt x="993" y="313" on="1"/>
        <pt x="1203" y="577" on="1"/>
        <pt x="1255" y="577" on="1"/>
        <pt x="1049" y="316" on="1"/>
        <pt x="1024" y="296" on="1"/>
        <pt x="1024" y="293" on="1"/>
        <pt x="1050" y="275" on="1"/>
        <pt x="1271" y="0" on="1"/>
        <pt x="1222" y="0" on="1"/>
        <pt x="998" y="274" on="1"/>
        <pt x="915" y="274" on="1"/>
        <pt x="915" y="0" on="1"/>
        <pt x="872" y="0" on="1"/>
      </contour>
    </TTGlyph>
    <TTGlyph name="F_F_L.sc" xMin="75" yMin="0" xMax="1138" yMax="577">
      <contour>
        <pt x="872" y="577" on="1"/>
        <pt x="915" y="577" on="1"/>
        <pt x="915" y="40" on="1"/>
        <pt x="1138" y="40" on="1"/>
        <pt x="1138" y="0" on="1"/>
        <pt x="872" y="0" on="1"/>
      </contour>
      <contour>
        <pt x="75" y="577" on="1"/>
        <pt x="379" y="577" on="1"/>
        <pt x="379" y="538" on="1"/>
        <pt x="118" y="538" on="1"/>
        <pt x="118" y="310" on="1"/>
        <pt x="363" y="310" on="1"/>
        <pt x="363" y="271" on="1"/>
        <pt x="118" y="271" on="1"/>
        <pt x="118" y="0" on="1"/>
        <pt x="75" y="0" on="1"/>
      </contour>
      <contour>
        <pt x="474" y="577" on="1"/>
        <pt x="778" y="577" on="1"/>
        <pt x="778" y="538" on="1"/>
        <pt x="517" y="538" on="1"/>
        <pt x="517" y="310" on="1"/>
        <pt x="762" y="310" on="1"/>
        <pt x="762" y="271" on="1"/>
        <pt x="517" y="271" on="1"/>
        <pt x="517" y="0" on="1"/>
        <pt x="474" y="0" on="1"/>
      </contour>
    </TTGlyph>
    <TTGlyph name="F_F_T.sc" xMin="75" yMin="0" xMax="1171" yMax="577">
      <contour>
        <pt x="962" y="537" on="1"/>
        <pt x="796" y="537" on="1"/>
        <pt x="796" y="577" on="1"/>
        <pt x="1171" y="577" on="1"/>
        <pt x="1171" y="537" on="1"/>
        <pt x="1005" y="537" on="1"/>
        <pt x="1005" y="0" on="1"/>
        <pt x="962" y="0" on="1"/>
      </contour>
      <contour>
        <pt x="75" y="577" on="1"/>
        <pt x="379" y="577" on="1"/>
        <pt x="379" y="538" on="1"/>
        <pt x="118" y="538" on="1"/>
        <pt x="118" y="310" on="1"/>
        <pt x="363" y="310" on="1"/>
        <pt x="363" y="271" on="1"/>
        <pt x="118" y="271" on="1"/>
        <pt x="118" y="0" on="1"/>
        <pt x="75" y="0" on="1"/>
      </contour>
      <contour>
        <pt x="474" y="577" on="1"/>
        <pt x="778" y="577" on="1"/>
        <pt x="778" y="538" on="1"/>
        <pt x="517" y="538" on="1"/>
        <pt x="517" y="310" on="1"/>
        <pt x="762" y="310" on="1"/>
        <pt x="762" y="271" on="1"/>
        <pt x="517" y="271" on="1"/>
        <pt x="517" y="0" on="1"/>
        <pt x="474" y="0" on="1"/>
      </contour>
    </TTGlyph>
    <TTGlyph name="F_H.sc" xMin="75" yMin="0" xMax="867" yMax="577">
      <contour>
        <pt x="75" y="577" on="1"/>
        <pt x="379" y="577" on="1"/>
        <pt x="379" y="538" on="1"/>
        <pt x="118" y="538" on="1"/>
        <pt x="118" y="310" on="1"/>
        <pt x="363" y="310" on="1"/>
        <pt x="363" y="271" on="1"/>
        <pt x="118" y="271" on="1"/>
        <pt x="118" y="0" on="1"/>
        <pt x="75" y="0" on="1"/>
      </contour>
      <contour>
        <pt x="474" y="577" on="1"/>
        <pt x="517" y="577" on="1"/>
        <pt x="517" y="314" on="1"/>
        <pt x="824" y="314" on="1"/>
        <pt x="824" y="577" on="1"/>
        <pt x="867" y="577" on="1"/>
        <pt x="867" y="0" on="1"/>
        <pt x="824" y="0" on="1"/>
        <pt x="824" y="275" on="1"/>
        <pt x="517" y="275" on="1"/>
        <pt x="517" y="0" on="1"/>
        <pt x="474" y="0" on="1"/>
      </contour>
    </TTGlyph>
    <TTGlyph name="F_I.sc" xMin="75" yMin="0" xMax="517" yMax="577">
      <contour>
        <pt x="75" y="577" on="1"/>
        <pt x="379" y="577" on="1"/>
        <pt x="379" y="538" on="1"/>
        <pt x="118" y="538" on="1"/>
        <pt x="118" y="310" on="1"/>
        <pt x="363" y="310" on="1"/>
        <pt x="363" y="271" on="1"/>
        <pt x="118" y="271" on="1"/>
        <pt x="118" y="0" on="1"/>
        <pt x="75" y="0" on="1"/>
      </contour>
      <contour>
        <pt x="474" y="577" on="1"/>
        <pt x="517" y="577" on="1"/>
        <pt x="517" y="0" on="1"/>
        <pt x="474" y="0" on="1"/>
      </contour>
    </TTGlyph>
    <TTGlyph name="F_J.sc" xMin="75" yMin="-140" xMax="530" yMax="577">
      <contour>
        <pt x="75" y="577" on="1"/>
        <pt x="379" y="577" on="1"/>
        <pt x="379" y="538" on="1"/>
        <pt x="118" y="538" on="1"/>
        <pt x="118" y="310" on="1"/>
        <pt x="363" y="310" on="1"/>
        <pt x="363" y="271" on="1"/>
        <pt x="118" y="271" on="1"/>
        <pt x="118" y="0" on="1"/>
        <pt x="75" y="0" on="1"/>
      </contour>
      <contour>
        <pt x="416" y="-124" on="1"/>
        <pt x="437" y="-82" on="0"/>
        <pt x="465" y="-17" on="0"/>
        <pt x="481" y="42" on="0"/>
        <pt x="487" y="103" on="0"/>
        <pt x="487" y="142" on="1"/>
        <pt x="487" y="577" on="1"/>
        <pt x="530" y="577" on="1"/>
        <pt x="530" y="140" on="1"/>
        <pt x="530" y="66" on="0"/>
        <pt x="490" y="-66" on="0"/>
        <pt x="445" y="-140" on="1"/>
      </contour>
    </TTGlyph>
    <TTGlyph name="F_K.sc" xMin="75" yMin="0" xMax="873" yMax="577">
      <contour>
        <pt x="75" y="577" on="1"/>
        <pt x="379" y="577" on="1"/>
        <pt x="379" y="538" on="1"/>
        <pt x="118" y="538" on="1"/>
        <pt x="118" y="310" on="1"/>
        <pt x="363" y="310" on="1"/>
        <pt x="363" y="271" on="1"/>
        <pt x="118" y="271" on="1"/>
        <pt x="118" y="0" on="1"/>
        <pt x="75" y="0" on="1"/>
      </contour>
      <contour>
        <pt x="474" y="577" on="1"/>
        <pt x="517" y="577" on="1"/>
        <pt x="517" y="313" on="1"/>
        <pt x="595" y="313" on="1"/>
        <pt x="805" y="577" on="1"/>
        <pt x="857" y="577" on="1"/>
        <pt x="651" y="316" on="1"/>
        <pt x="626" y="296" on="1"/>
        <pt x="626" y="293" on="1"/>
        <pt x="652" y="275" on="1"/>
        <pt x="873" y="0" on="1"/>
        <pt x="824" y="0" on="1"/>
        <pt x="600" y="274" on="1"/>
        <pt x="517" y="274" on="1"/>
        <pt x="517" y="0" on="1"/>
        <pt x="474" y="0" on="1"/>
      </contour>
    </TTGlyph>
    <TTGlyph name="F_L.sc" xMin="75" yMin="0" xMax="740" yMax="577">
      <contour>
        <pt x="474" y="577" on="1"/>
        <pt x="517" y="577" on="1"/>
        <pt x="517" y="40" on="1"/>
        <pt x="740" y="40" on="1"/>
        <pt x="740" y="0" on="1"/>
        <pt x="474" y="0" on="1"/>
      </contour>
      <contour>
        <pt x="75" y="577" on="1"/>
        <pt x="379" y="577" on="1"/>
        <pt x="379" y="538" on="1"/>
        <pt x="118" y="538" on="1"/>
        <pt x="118" y="310" on="1"/>
        <pt x="363" y="310" on="1"/>
        <pt x="363" y="271" on="1"/>
        <pt x="118" y="271" on="1"/>
        <pt x="118" y="0" on="1"/>
        <pt x="75" y="0" on="1"/>
      </contour>
    </TTGlyph>
    <TTGlyph name="F_T.sc" xMin="75" yMin="0" xMax="772" yMax="577">
      <contour>
        <pt x="563" y="537" on="1"/>
        <pt x="397" y="537" on="1"/>
        <pt x="397" y="577" on="1"/>
        <pt x="772" y="577" on="1"/>
        <pt x="772" y="537" on="1"/>
        <pt x="606" y="537" on="1"/>
        <pt x="606" y="0" on="1"/>
        <pt x="563" y="0" on="1"/>
      </contour>
      <contour>
        <pt x="75" y="577" on="1"/>
        <pt x="379" y="577" on="1"/>
        <pt x="379" y="538" on="1"/>
        <pt x="118" y="538" on="1"/>
        <pt x="118" y="310" on="1"/>
        <pt x="363" y="310" on="1"/>
        <pt x="363" y="271" on="1"/>
        <pt x="118" y="271" on="1"/>
        <pt x="118" y="0" on="1"/>
        <pt x="75" y="0" on="1"/>
      </contour>
    </TTGlyph>
    <TTGlyph name="G" xMin="48" yMin="-10" xMax="488" yMax="748">
      <contour>
        <pt x="353" y="-10" on="1"/>
        <pt x="272" y="-9" on="0"/>
        <pt x="156" y="36" on="0"/>
        <pt x="83" y="128" on="0"/>
        <pt x="48" y="270" on="0"/>
        <pt x="48" y="369" on="1"/>
        <pt x="48" y="471" on="0"/>
        <pt x="82" y="615" on="0"/>
        <pt x="155" y="706" on="0"/>
        <pt x="271" y="748" on="0"/>
        <pt x="354" y="748" on="1"/>
        <pt x="377" y="748" on="0"/>
        <pt x="454" y="740" on="0"/>
        <pt x="488" y="734" on="1"/>
        <pt x="488" y="693" on="1"/>
        <pt x="453" y="700" on="0"/>
        <pt x="386" y="707" on="0"/>
        <pt x="358" y="707" on="1"/>
        <pt x="286" y="707" on="0"/>
        <pt x="185" y="671" on="0"/>
        <pt x="122" y="590" on="0"/>
        <pt x="93" y="461" on="0"/>
        <pt x="93" y="369" on="1"/>
        <pt x="93" y="192" on="0"/>
        <pt x="216" y="31" on="0"/>
        <pt x="351" y="31" on="1"/>
        <pt x="366" y="31" on="0"/>
        <pt x="416" y="34" on="0"/>
        <pt x="444" y="38" on="1"/>
        <pt x="444" y="376" on="1"/>
        <pt x="486" y="376" on="1"/>
        <pt x="486" y="2" on="1"/>
        <pt x="445" y="-5" on="0"/>
        <pt x="385" y="-10" on="0"/>
      </contour>
    </TTGlyph>
    <TTGlyph name="G.sc" xMin="47" yMin="-8" xMax="429" yMax="584">
      <contour>
        <pt x="308" y="-8" on="1"/>
        <pt x="171" y="-7" on="0"/>
        <pt x="47" y="135" on="0"/>
        <pt x="47" y="288" on="1"/>
        <pt x="47" y="367" on="0"/>
        <pt x="77" y="479" on="0"/>
        <pt x="140" y="551" on="0"/>
        <pt x="240" y="584" on="0"/>
        <pt x="311" y="584" on="1"/>
        <pt x="332" y="584" on="0"/>
        <pt x="399" y="577" on="0"/>
        <pt x="429" y="572" on="1"/>
        <pt x="429" y="532" on="1"/>
        <pt x="366" y="544" on="0"/>
        <pt x="315" y="544" on="1"/>
        <pt x="254" y="544" on="0"/>
        <pt x="169" y="516" on="0"/>
        <pt x="115" y="455" on="0"/>
        <pt x="91" y="358" on="0"/>
        <pt x="91" y="288" on="1"/>
        <pt x="91" y="153" on="0"/>
        <pt x="195" y="32" on="0"/>
        <pt x="308" y="32" on="1"/>
        <pt x="320" y="32" on="0"/>
        <pt x="364" y="35" on="0"/>
        <pt x="387" y="37" on="1"/>
        <pt x="387" y="293" on="1"/>
        <pt x="428" y="293" on="1"/>
        <pt x="428" y="3" on="1"/>
        <pt x="391" y="-3" on="0"/>
        <pt x="337" y="-8" on="0"/>
      </contour>
    </TTGlyph>
    <TTGlyph name="Gacute" xMin="48" yMin="-10" xMax="488" yMax="914">
      <contour>
        <pt x="307" y="788" on="1"/>
        <pt x="385" y="914" on="1"/>
        <pt x="432" y="914" on="1"/>
        <pt x="345" y="784" on="1"/>
      </contour>
      <contour>
        <pt x="353" y="-10" on="1"/>
        <pt x="272" y="-9" on="0"/>
        <pt x="156" y="36" on="0"/>
        <pt x="83" y="128" on="0"/>
        <pt x="48" y="270" on="0"/>
        <pt x="48" y="369" on="1"/>
        <pt x="48" y="471" on="0"/>
        <pt x="82" y="615" on="0"/>
        <pt x="155" y="706" on="0"/>
        <pt x="271" y="748" on="0"/>
        <pt x="354" y="748" on="1"/>
        <pt x="377" y="748" on="0"/>
        <pt x="454" y="740" on="0"/>
        <pt x="488" y="734" on="1"/>
        <pt x="488" y="693" on="1"/>
        <pt x="453" y="700" on="0"/>
        <pt x="386" y="707" on="0"/>
        <pt x="358" y="707" on="1"/>
        <pt x="286" y="707" on="0"/>
        <pt x="185" y="671" on="0"/>
        <pt x="122" y="590" on="0"/>
        <pt x="93" y="461" on="0"/>
        <pt x="93" y="369" on="1"/>
        <pt x="93" y="192" on="0"/>
        <pt x="216" y="31" on="0"/>
        <pt x="351" y="31" on="1"/>
        <pt x="366" y="31" on="0"/>
        <pt x="416" y="34" on="0"/>
        <pt x="444" y="38" on="1"/>
        <pt x="444" y="376" on="1"/>
        <pt x="486" y="376" on="1"/>
        <pt x="486" y="2" on="1"/>
        <pt x="445" y="-5" on="0"/>
        <pt x="385" y="-10" on="0"/>
      </contour>
    </TTGlyph>
    <TTGlyph name="Gacute.sc" xMin="47" yMin="-8" xMax="429" yMax="718">
      <contour>
        <pt x="308" y="-8" on="1"/>
        <pt x="171" y="-7" on="0"/>
        <pt x="47" y="135" on="0"/>
        <pt x="47" y="288" on="1"/>
        <pt x="47" y="367" on="0"/>
        <pt x="77" y="479" on="0"/>
        <pt x="140" y="551" on="0"/>
        <pt x="240" y="584" on="0"/>
        <pt x="311" y="584" on="1"/>
        <pt x="332" y="584" on="0"/>
        <pt x="399" y="577" on="0"/>
        <pt x="429" y="572" on="1"/>
        <pt x="429" y="532" on="1"/>
        <pt x="366" y="544" on="0"/>
        <pt x="315" y="544" on="1"/>
        <pt x="254" y="544" on="0"/>
        <pt x="169" y="516" on="0"/>
        <pt x="115" y="455" on="0"/>
        <pt x="91" y="358" on="0"/>
        <pt x="91" y="288" on="1"/>
        <pt x="91" y="153" on="0"/>
        <pt x="195" y="32" on="0"/>
        <pt x="308" y="32" on="1"/>
        <pt x="320" y="32" on="0"/>
        <pt x="364" y="35" on="0"/>
        <pt x="387" y="37" on="1"/>
        <pt x="387" y="293" on="1"/>
        <pt x="428" y="293" on="1"/>
        <pt x="428" y="3" on="1"/>
        <pt x="391" y="-3" on="0"/>
        <pt x="337" y="-8" on="0"/>
      </contour>
      <contour>
        <pt x="267" y="616" on="1"/>
        <pt x="334" y="718" on="1"/>
        <pt x="379" y="718" on="1"/>
        <pt x="303" y="613" on="1"/>
      </contour>
    </TTGlyph>
    <TTGlyph name="Gbreve" xMin="48" yMin="-10" xMax="488" yMax="950">
      <contour>
        <pt x="332" y="814" on="1"/>
        <pt x="266" y="814" on="0"/>
        <pt x="193" y="887" on="0"/>
        <pt x="193" y="950" on="1"/>
        <pt x="233" y="950" on="1"/>
        <pt x="233" y="903" on="0"/>
        <pt x="284" y="852" on="0"/>
        <pt x="332" y="852" on="1"/>
        <pt x="379" y="852" on="0"/>
        <pt x="430" y="903" on="0"/>
        <pt x="430" y="950" on="1"/>
        <pt x="470" y="950" on="1"/>
        <pt x="470" y="887" on="0"/>
        <pt x="397" y="814" on="0"/>
      </contour>
      <contour>
        <pt x="353" y="-10" on="1"/>
        <pt x="272" y="-9" on="0"/>
        <pt x="156" y="36" on="0"/>
        <pt x="83" y="128" on="0"/>
        <pt x="48" y="270" on="0"/>
        <pt x="48" y="369" on="1"/>
        <pt x="48" y="471" on="0"/>
        <pt x="82" y="615" on="0"/>
        <pt x="155" y="706" on="0"/>
        <pt x="271" y="748" on="0"/>
        <pt x="354" y="748" on="1"/>
        <pt x="377" y="748" on="0"/>
        <pt x="454" y="740" on="0"/>
        <pt x="488" y="734" on="1"/>
        <pt x="488" y="693" on="1"/>
        <pt x="453" y="700" on="0"/>
        <pt x="386" y="707" on="0"/>
        <pt x="358" y="707" on="1"/>
        <pt x="286" y="707" on="0"/>
        <pt x="185" y="671" on="0"/>
        <pt x="122" y="590" on="0"/>
        <pt x="93" y="461" on="0"/>
        <pt x="93" y="369" on="1"/>
        <pt x="93" y="192" on="0"/>
        <pt x="216" y="31" on="0"/>
        <pt x="351" y="31" on="1"/>
        <pt x="366" y="31" on="0"/>
        <pt x="416" y="34" on="0"/>
        <pt x="444" y="38" on="1"/>
        <pt x="444" y="376" on="1"/>
        <pt x="486" y="376" on="1"/>
        <pt x="486" y="2" on="1"/>
        <pt x="445" y="-5" on="0"/>
        <pt x="385" y="-10" on="0"/>
      </contour>
    </TTGlyph>
    <TTGlyph name="Gbreve.sc" xMin="47" yMin="-8" xMax="429" yMax="743">
      <contour>
        <pt x="308" y="-8" on="1"/>
        <pt x="171" y="-7" on="0"/>
        <pt x="47" y="135" on="0"/>
        <pt x="47" y="288" on="1"/>
        <pt x="47" y="367" on="0"/>
        <pt x="77" y="479" on="0"/>
        <pt x="140" y="551" on="0"/>
        <pt x="240" y="584" on="0"/>
        <pt x="311" y="584" on="1"/>
        <pt x="332" y="584" on="0"/>
        <pt x="399" y="577" on="0"/>
        <pt x="429" y="572" on="1"/>
        <pt x="429" y="532" on="1"/>
        <pt x="366" y="544" on="0"/>
        <pt x="315" y="544" on="1"/>
        <pt x="254" y="544" on="0"/>
        <pt x="169" y="516" on="0"/>
        <pt x="115" y="455" on="0"/>
        <pt x="91" y="358" on="0"/>
        <pt x="91" y="288" on="1"/>
        <pt x="91" y="153" on="0"/>
        <pt x="195" y="32" on="0"/>
        <pt x="308" y="32" on="1"/>
        <pt x="320" y="32" on="0"/>
        <pt x="364" y="35" on="0"/>
        <pt x="387" y="37" on="1"/>
        <pt x="387" y="293" on="1"/>
        <pt x="428" y="293" on="1"/>
        <pt x="428" y="3" on="1"/>
        <pt x="391" y="-3" on="0"/>
        <pt x="337" y="-8" on="0"/>
      </contour>
      <contour>
        <pt x="290" y="634" on="1"/>
        <pt x="233" y="634" on="0"/>
        <pt x="169" y="692" on="0"/>
        <pt x="169" y="743" on="1"/>
        <pt x="206" y="743" on="1"/>
        <pt x="206" y="705" on="0"/>
        <pt x="249" y="666" on="0"/>
        <pt x="290" y="666" on="1"/>
        <pt x="330" y="666" on="0"/>
        <pt x="374" y="705" on="0"/>
        <pt x="374" y="743" on="1"/>
        <pt x="411" y="743" on="1"/>
        <pt x="411" y="692" on="0"/>
        <pt x="347" y="634" on="0"/>
      </contour>
    </TTGlyph>
    <TTGlyph name="Gcircumflex" xMin="48" yMin="-10" xMax="488" yMax="935">
      <contour>
        <pt x="353" y="-10" on="1"/>
        <pt x="272" y="-9" on="0"/>
        <pt x="156" y="36" on="0"/>
        <pt x="83" y="128" on="0"/>
        <pt x="48" y="270" on="0"/>
        <pt x="48" y="369" on="1"/>
        <pt x="48" y="471" on="0"/>
        <pt x="82" y="615" on="0"/>
        <pt x="155" y="706" on="0"/>
        <pt x="271" y="748" on="0"/>
        <pt x="354" y="748" on="1"/>
        <pt x="377" y="748" on="0"/>
        <pt x="454" y="740" on="0"/>
        <pt x="488" y="734" on="1"/>
        <pt x="488" y="693" on="1"/>
        <pt x="453" y="700" on="0"/>
        <pt x="386" y="707" on="0"/>
        <pt x="358" y="707" on="1"/>
        <pt x="286" y="707" on="0"/>
        <pt x="185" y="671" on="0"/>
        <pt x="122" y="590" on="0"/>
        <pt x="93" y="461" on="0"/>
        <pt x="93" y="369" on="1"/>
        <pt x="93" y="192" on="0"/>
        <pt x="216" y="31" on="0"/>
        <pt x="351" y="31" on="1"/>
        <pt x="366" y="31" on="0"/>
        <pt x="416" y="34" on="0"/>
        <pt x="444" y="38" on="1"/>
        <pt x="444" y="376" on="1"/>
        <pt x="486" y="376" on="1"/>
        <pt x="486" y="2" on="1"/>
        <pt x="445" y="-5" on="0"/>
        <pt x="385" y="-10" on="0"/>
      </contour>
      <contour>
        <pt x="205" y="863" on="1"/>
        <pt x="329" y="935" on="1"/>
        <pt x="453" y="863" on="1"/>
        <pt x="453" y="817" on="1"/>
        <pt x="329" y="889" on="1"/>
        <pt x="205" y="817" on="1"/>
      </contour>
    </TTGlyph>
    <TTGlyph name="Gcircumflex.sc" xMin="47" yMin="-8" xMax="429" yMax="732">
      <contour>
        <pt x="308" y="-8" on="1"/>
        <pt x="171" y="-7" on="0"/>
        <pt x="47" y="135" on="0"/>
        <pt x="47" y="288" on="1"/>
        <pt x="47" y="367" on="0"/>
        <pt x="77" y="479" on="0"/>
        <pt x="140" y="551" on="0"/>
        <pt x="240" y="584" on="0"/>
        <pt x="311" y="584" on="1"/>
        <pt x="332" y="584" on="0"/>
        <pt x="399" y="577" on="0"/>
        <pt x="429" y="572" on="1"/>
        <pt x="429" y="532" on="1"/>
        <pt x="366" y="544" on="0"/>
        <pt x="315" y="544" on="1"/>
        <pt x="254" y="544" on="0"/>
        <pt x="169" y="516" on="0"/>
        <pt x="115" y="455" on="0"/>
        <pt x="91" y="358" on="0"/>
        <pt x="91" y="288" on="1"/>
        <pt x="91" y="153" on="0"/>
        <pt x="195" y="32" on="0"/>
        <pt x="308" y="32" on="1"/>
        <pt x="320" y="32" on="0"/>
        <pt x="364" y="35" on="0"/>
        <pt x="387" y="37" on="1"/>
        <pt x="387" y="293" on="1"/>
        <pt x="428" y="293" on="1"/>
        <pt x="428" y="3" on="1"/>
        <pt x="391" y="-3" on="0"/>
        <pt x="337" y="-8" on="0"/>
      </contour>
      <contour>
        <pt x="180" y="676" on="1"/>
        <pt x="289" y="732" on="1"/>
        <pt x="397" y="676" on="1"/>
        <pt x="397" y="635" on="1"/>
        <pt x="289" y="691" on="1"/>
        <pt x="180" y="635" on="1"/>
      </contour>
    </TTGlyph>
    <TTGlyph name="Gcommaaccent" xMin="48" yMin="-220" xMax="488" yMax="748">
      <contour>
        <pt x="321" y="-66" on="1"/>
        <pt x="365" y="-66" on="1"/>
        <pt x="310" y="-220" on="1"/>
        <pt x="269" y="-220" on="1"/>
      </contour>
      <contour>
        <pt x="353" y="-10" on="1"/>
        <pt x="272" y="-9" on="0"/>
        <pt x="156" y="36" on="0"/>
        <pt x="83" y="128" on="0"/>
        <pt x="48" y="270" on="0"/>
        <pt x="48" y="369" on="1"/>
        <pt x="48" y="471" on="0"/>
        <pt x="82" y="615" on="0"/>
        <pt x="155" y="706" on="0"/>
        <pt x="271" y="748" on="0"/>
        <pt x="354" y="748" on="1"/>
        <pt x="377" y="748" on="0"/>
        <pt x="454" y="740" on="0"/>
        <pt x="488" y="734" on="1"/>
        <pt x="488" y="693" on="1"/>
        <pt x="453" y="700" on="0"/>
        <pt x="386" y="707" on="0"/>
        <pt x="358" y="707" on="1"/>
        <pt x="286" y="707" on="0"/>
        <pt x="185" y="671" on="0"/>
        <pt x="122" y="590" on="0"/>
        <pt x="93" y="461" on="0"/>
        <pt x="93" y="369" on="1"/>
        <pt x="93" y="192" on="0"/>
        <pt x="216" y="31" on="0"/>
        <pt x="351" y="31" on="1"/>
        <pt x="366" y="31" on="0"/>
        <pt x="416" y="34" on="0"/>
        <pt x="444" y="38" on="1"/>
        <pt x="444" y="376" on="1"/>
        <pt x="486" y="376" on="1"/>
        <pt x="486" y="2" on="1"/>
        <pt x="445" y="-5" on="0"/>
        <pt x="385" y="-10" on="0"/>
      </contour>
    </TTGlyph>
    <TTGlyph name="Gcommaaccent.sc" xMin="47" yMin="-172" xMax="429" yMax="584">
      <contour>
        <pt x="308" y="-8" on="1"/>
        <pt x="171" y="-7" on="0"/>
        <pt x="47" y="135" on="0"/>
        <pt x="47" y="288" on="1"/>
        <pt x="47" y="367" on="0"/>
        <pt x="77" y="479" on="0"/>
        <pt x="140" y="551" on="0"/>
        <pt x="240" y="584" on="0"/>
        <pt x="311" y="584" on="1"/>
        <pt x="332" y="584" on="0"/>
        <pt x="399" y="577" on="0"/>
        <pt x="429" y="572" on="1"/>
        <pt x="429" y="532" on="1"/>
        <pt x="366" y="544" on="0"/>
        <pt x="315" y="544" on="1"/>
        <pt x="254" y="544" on="0"/>
        <pt x="169" y="516" on="0"/>
        <pt x="115" y="455" on="0"/>
        <pt x="91" y="358" on="0"/>
        <pt x="91" y="288" on="1"/>
        <pt x="91" y="153" on="0"/>
        <pt x="195" y="32" on="0"/>
        <pt x="308" y="32" on="1"/>
        <pt x="320" y="32" on="0"/>
        <pt x="364" y="35" on="0"/>
        <pt x="387" y="37" on="1"/>
        <pt x="387" y="293" on="1"/>
        <pt x="428" y="293" on="1"/>
        <pt x="428" y="3" on="1"/>
        <pt x="391" y="-3" on="0"/>
        <pt x="337" y="-8" on="0"/>
      </contour>
      <contour>
        <pt x="278" y="-52" on="1"/>
        <pt x="321" y="-52" on="1"/>
        <pt x="274" y="-172" on="1"/>
        <pt x="235" y="-172" on="1"/>
      </contour>
    </TTGlyph>
    <TTGlyph name="Gdotaccent" xMin="48" yMin="-10" xMax="488" yMax="866">
      <contour>
        <pt x="329" y="799" on="1"/>
        <pt x="315" y="799" on="0"/>
        <pt x="296" y="815" on="0"/>
        <pt x="296" y="832" on="1"/>
        <pt x="296" y="850" on="0"/>
        <pt x="315" y="866" on="0"/>
        <pt x="329" y="866" on="1"/>
        <pt x="343" y="866" on="0"/>
        <pt x="363" y="849" on="0"/>
        <pt x="363" y="832" on="1"/>
        <pt x="363" y="815" on="0"/>
        <pt x="343" y="799" on="0"/>
      </contour>
      <contour>
        <pt x="353" y="-10" on="1"/>
        <pt x="272" y="-9" on="0"/>
        <pt x="156" y="36" on="0"/>
        <pt x="83" y="128" on="0"/>
        <pt x="48" y="270" on="0"/>
        <pt x="48" y="369" on="1"/>
        <pt x="48" y="471" on="0"/>
        <pt x="82" y="615" on="0"/>
        <pt x="155" y="706" on="0"/>
        <pt x="271" y="748" on="0"/>
        <pt x="354" y="748" on="1"/>
        <pt x="377" y="748" on="0"/>
        <pt x="454" y="740" on="0"/>
        <pt x="488" y="734" on="1"/>
        <pt x="488" y="693" on="1"/>
        <pt x="453" y="700" on="0"/>
        <pt x="386" y="707" on="0"/>
        <pt x="358" y="707" on="1"/>
        <pt x="286" y="707" on="0"/>
        <pt x="185" y="671" on="0"/>
        <pt x="122" y="590" on="0"/>
        <pt x="93" y="461" on="0"/>
        <pt x="93" y="369" on="1"/>
        <pt x="93" y="192" on="0"/>
        <pt x="216" y="31" on="0"/>
        <pt x="351" y="31" on="1"/>
        <pt x="366" y="31" on="0"/>
        <pt x="416" y="34" on="0"/>
        <pt x="444" y="38" on="1"/>
        <pt x="444" y="376" on="1"/>
        <pt x="486" y="376" on="1"/>
        <pt x="486" y="2" on="1"/>
        <pt x="445" y="-5" on="0"/>
        <pt x="385" y="-10" on="0"/>
      </contour>
    </TTGlyph>
    <TTGlyph name="Gdotaccent.sc" xMin="47" yMin="-8" xMax="429" yMax="684">
      <contour>
        <pt x="308" y="-8" on="1"/>
        <pt x="171" y="-7" on="0"/>
        <pt x="47" y="135" on="0"/>
        <pt x="47" y="288" on="1"/>
        <pt x="47" y="367" on="0"/>
        <pt x="77" y="479" on="0"/>
        <pt x="140" y="551" on="0"/>
        <pt x="240" y="584" on="0"/>
        <pt x="311" y="584" on="1"/>
        <pt x="332" y="584" on="0"/>
        <pt x="399" y="577" on="0"/>
        <pt x="429" y="572" on="1"/>
        <pt x="429" y="532" on="1"/>
        <pt x="366" y="544" on="0"/>
        <pt x="315" y="544" on="1"/>
        <pt x="254" y="544" on="0"/>
        <pt x="169" y="516" on="0"/>
        <pt x="115" y="455" on="0"/>
        <pt x="91" y="358" on="0"/>
        <pt x="91" y="288" on="1"/>
        <pt x="91" y="153" on="0"/>
        <pt x="195" y="32" on="0"/>
        <pt x="308" y="32" on="1"/>
        <pt x="320" y="32" on="0"/>
        <pt x="364" y="35" on="0"/>
        <pt x="387" y="37" on="1"/>
        <pt x="387" y="293" on="1"/>
        <pt x="428" y="293" on="1"/>
        <pt x="428" y="3" on="1"/>
        <pt x="391" y="-3" on="0"/>
        <pt x="337" y="-8" on="0"/>
      </contour>
      <contour>
        <pt x="289" y="624" on="1"/>
        <pt x="275" y="624" on="0"/>
        <pt x="257" y="638" on="0"/>
        <pt x="257" y="655" on="1"/>
        <pt x="257" y="670" on="0"/>
        <pt x="275" y="684" on="0"/>
        <pt x="289" y="684" on="1"/>
        <pt x="303" y="684" on="0"/>
        <pt x="321" y="670" on="0"/>
        <pt x="321" y="655" on="1"/>
        <pt x="321" y="638" on="0"/>
        <pt x="303" y="624" on="0"/>
      </contour>
    </TTGlyph>
    <TTGlyph name="H" xMin="79" yMin="0" xMax="527" yMax="740">
      <contour>
        <pt x="79" y="740" on="1"/>
        <pt x="122" y="740" on="1"/>
        <pt x="122" y="398" on="1"/>
        <pt x="484" y="398" on="1"/>
        <pt x="484" y="740" on="1"/>
        <pt x="527" y="740" on="1"/>
        <pt x="527" y="0" on="1"/>
        <pt x="484" y="0" on="1"/>
        <pt x="484" y="356" on="1"/>
        <pt x="122" y="356" on="1"/>
        <pt x="122" y="0" on="1"/>
        <pt x="79" y="0" on="1"/>
      </contour>
    </TTGlyph>
    <TTGlyph name="H.sc" xMin="75" yMin="0" xMax="468" yMax="577">
      <contour>
        <pt x="75" y="577" on="1"/>
        <pt x="118" y="577" on="1"/>
        <pt x="118" y="314" on="1"/>
        <pt x="425" y="314" on="1"/>
        <pt x="425" y="577" on="1"/>
        <pt x="468" y="577" on="1"/>
        <pt x="468" y="0" on="1"/>
        <pt x="425" y="0" on="1"/>
        <pt x="425" y="275" on="1"/>
        <pt x="118" y="275" on="1"/>
        <pt x="118" y="0" on="1"/>
        <pt x="75" y="0" on="1"/>
      </contour>
    </TTGlyph>
    <TTGlyph name="Hbar" xMin="1" yMin="0" xMax="642" yMax="740">
      <contour>
        <pt x="1" y="578" on="1"/>
        <pt x="97" y="578" on="1"/>
        <pt x="97" y="740" on="1"/>
        <pt x="140" y="740" on="1"/>
        <pt x="140" y="578" on="1"/>
        <pt x="502" y="578" on="1"/>
        <pt x="502" y="740" on="1"/>
        <pt x="545" y="740" on="1"/>
        <pt x="545" y="578" on="1"/>
        <pt x="642" y="578" on="1"/>
        <pt x="642" y="549" on="1"/>
        <pt x="545" y="549" on="1"/>
        <pt x="545" y="0" on="1"/>
        <pt x="502" y="0" on="1"/>
        <pt x="502" y="356" on="1"/>
        <pt x="140" y="356" on="1"/>
        <pt x="140" y="0" on="1"/>
        <pt x="97" y="0" on="1"/>
        <pt x="97" y="549" on="1"/>
        <pt x="1" y="549" on="1"/>
      </contour>
      <contour>
        <pt x="502" y="398" on="1"/>
        <pt x="502" y="549" on="1"/>
        <pt x="140" y="549" on="1"/>
        <pt x="140" y="398" on="1"/>
      </contour>
    </TTGlyph>
    <TTGlyph name="Hbar.sc" xMin="6" yMin="0" xMax="562" yMax="577">
      <contour>
        <pt x="6" y="454" on="1"/>
        <pt x="87" y="454" on="1"/>
        <pt x="87" y="577" on="1"/>
        <pt x="130" y="577" on="1"/>
        <pt x="130" y="454" on="1"/>
        <pt x="437" y="454" on="1"/>
        <pt x="437" y="577" on="1"/>
        <pt x="480" y="577" on="1"/>
        <pt x="480" y="454" on="1"/>
        <pt x="562" y="454" on="1"/>
        <pt x="562" y="427" on="1"/>
        <pt x="480" y="427" on="1"/>
        <pt x="480" y="0" on="1"/>
        <pt x="437" y="0" on="1"/>
        <pt x="437" y="275" on="1"/>
        <pt x="130" y="275" on="1"/>
        <pt x="130" y="0" on="1"/>
        <pt x="87" y="0" on="1"/>
        <pt x="87" y="427" on="1"/>
        <pt x="6" y="427" on="1"/>
      </contour>
      <contour>
        <pt x="437" y="314" on="1"/>
        <pt x="437" y="427" on="1"/>
        <pt x="130" y="427" on="1"/>
        <pt x="130" y="314" on="1"/>
      </contour>
    </TTGlyph>
    <TTGlyph name="Hcircumflex" xMin="79" yMin="0" xMax="527" yMax="935">
      <contour>
        <pt x="79" y="740" on="1"/>
        <pt x="122" y="740" on="1"/>
        <pt x="122" y="398" on="1"/>
        <pt x="484" y="398" on="1"/>
        <pt x="484" y="740" on="1"/>
        <pt x="527" y="740" on="1"/>
        <pt x="527" y="0" on="1"/>
        <pt x="484" y="0" on="1"/>
        <pt x="484" y="356" on="1"/>
        <pt x="122" y="356" on="1"/>
        <pt x="122" y="0" on="1"/>
        <pt x="79" y="0" on="1"/>
      </contour>
      <contour>
        <pt x="167" y="863" on="1"/>
        <pt x="291" y="935" on="1"/>
        <pt x="415" y="863" on="1"/>
        <pt x="415" y="817" on="1"/>
        <pt x="291" y="889" on="1"/>
        <pt x="167" y="817" on="1"/>
      </contour>
    </TTGlyph>
    <TTGlyph name="Hcircumflex.sc" xMin="75" yMin="0" xMax="468" yMax="732">
      <contour>
        <pt x="75" y="577" on="1"/>
        <pt x="118" y="577" on="1"/>
        <pt x="118" y="314" on="1"/>
        <pt x="425" y="314" on="1"/>
        <pt x="425" y="577" on="1"/>
        <pt x="468" y="577" on="1"/>
        <pt x="468" y="0" on="1"/>
        <pt x="425" y="0" on="1"/>
        <pt x="425" y="275" on="1"/>
        <pt x="118" y="275" on="1"/>
        <pt x="118" y="0" on="1"/>
        <pt x="75" y="0" on="1"/>
      </contour>
      <contour>
        <pt x="154" y="676" on="1"/>
        <pt x="263" y="732" on="1"/>
        <pt x="371" y="676" on="1"/>
        <pt x="371" y="635" on="1"/>
        <pt x="263" y="691" on="1"/>
        <pt x="154" y="635" on="1"/>
      </contour>
    </TTGlyph>
    <TTGlyph name="Hdotbelow" xMin="79" yMin="-163" xMax="527" yMax="740">
      <contour>
        <pt x="79" y="740" on="1"/>
        <pt x="122" y="740" on="1"/>
        <pt x="122" y="398" on="1"/>
        <pt x="484" y="398" on="1"/>
        <pt x="484" y="740" on="1"/>
        <pt x="527" y="740" on="1"/>
        <pt x="527" y="0" on="1"/>
        <pt x="484" y="0" on="1"/>
        <pt x="484" y="356" on="1"/>
        <pt x="122" y="356" on="1"/>
        <pt x="122" y="0" on="1"/>
        <pt x="79" y="0" on="1"/>
      </contour>
      <contour>
        <pt x="310" y="-163" on="1"/>
        <pt x="293" y="-163" on="0"/>
        <pt x="272" y="-146" on="0"/>
        <pt x="272" y="-126" on="1"/>
        <pt x="272" y="-105" on="0"/>
        <pt x="293" y="-89" on="0"/>
        <pt x="310" y="-89" on="1"/>
        <pt x="327" y="-89" on="0"/>
        <pt x="347" y="-106" on="0"/>
        <pt x="347" y="-126" on="1"/>
        <pt x="347" y="-146" on="0"/>
        <pt x="327" y="-163" on="0"/>
      </contour>
    </TTGlyph>
    <TTGlyph name="Hdotbelow.sc" xMin="75" yMin="-131" xMax="468" yMax="577">
      <contour>
        <pt x="75" y="577" on="1"/>
        <pt x="118" y="577" on="1"/>
        <pt x="118" y="314" on="1"/>
        <pt x="425" y="314" on="1"/>
        <pt x="425" y="577" on="1"/>
        <pt x="468" y="577" on="1"/>
        <pt x="468" y="0" on="1"/>
        <pt x="425" y="0" on="1"/>
        <pt x="425" y="275" on="1"/>
        <pt x="118" y="275" on="1"/>
        <pt x="118" y="0" on="1"/>
        <pt x="75" y="0" on="1"/>
      </contour>
      <contour>
        <pt x="278" y="-131" on="1"/>
        <pt x="244" y="-131" on="0"/>
        <pt x="244" y="-100" on="1"/>
        <pt x="244" y="-82" on="0"/>
        <pt x="262" y="-68" on="0"/>
        <pt x="278" y="-68" on="1"/>
        <pt x="293" y="-68" on="0"/>
        <pt x="311" y="-83" on="0"/>
        <pt x="311" y="-100" on="1"/>
        <pt x="311" y="-117" on="0"/>
        <pt x="293" y="-131" on="0"/>
      </contour>
    </TTGlyph>
    <TTGlyph name="I" xMin="79" yMin="0" xMax="122" yMax="740">
      <contour>
        <pt x="79" y="740" on="1"/>
        <pt x="122" y="740" on="1"/>
        <pt x="122" y="0" on="1"/>
        <pt x="79" y="0" on="1"/>
      </contour>
    </TTGlyph>
    <TTGlyph name="I.sc" xMin="75" yMin="0" xMax="118" yMax="577">
      <contour>
        <pt x="75" y="577" on="1"/>
        <pt x="118" y="577" on="1"/>
        <pt x="118" y="0" on="1"/>
        <pt x="75" y="0" on="1"/>
      </contour>
    </TTGlyph>
    <TTGlyph name="IJ" xMin="79" yMin="-177" xMax="326" yMax="740">
      <contour>
        <pt x="79" y="740" on="1"/>
        <pt x="122" y="740" on="1"/>
        <pt x="122" y="0" on="1"/>
        <pt x="79" y="0" on="1"/>
      </contour>
      <contour>
        <pt x="199" y="-159" on="1"/>
        <pt x="224" y="-104" on="0"/>
        <pt x="257" y="-21" on="0"/>
        <pt x="276" y="54" on="0"/>
        <pt x="283" y="132" on="0"/>
        <pt x="283" y="181" on="1"/>
        <pt x="283" y="740" on="1"/>
        <pt x="326" y="740" on="1"/>
        <pt x="326" y="180" on="1"/>
        <pt x="326" y="87" on="0"/>
        <pt x="279" y="-85" on="0"/>
        <pt x="228" y="-177" on="1"/>
      </contour>
    </TTGlyph>
    <TTGlyph name="Iacute" xMin="79" yMin="0" xMax="207" yMax="914">
      <contour>
        <pt x="79" y="740" on="1"/>
        <pt x="122" y="740" on="1"/>
        <pt x="122" y="0" on="1"/>
        <pt x="79" y="0" on="1"/>
      </contour>
      <contour>
        <pt x="82" y="788" on="1"/>
        <pt x="160" y="914" on="1"/>
        <pt x="207" y="914" on="1"/>
        <pt x="120" y="784" on="1"/>
      </contour>
    </TTGlyph>
    <TTGlyph name="Iacute.sc" xMin="75" yMin="0" xMax="189" yMax="718">
      <contour>
        <pt x="75" y="577" on="1"/>
        <pt x="118" y="577" on="1"/>
        <pt x="118" y="0" on="1"/>
        <pt x="75" y="0" on="1"/>
      </contour>
      <contour>
        <pt x="78" y="616" on="1"/>
        <pt x="144" y="718" on="1"/>
        <pt x="189" y="718" on="1"/>
        <pt x="114" y="613" on="1"/>
      </contour>
    </TTGlyph>
    <TTGlyph name="Ibreve" xMin="-33" yMin="0" xMax="244" yMax="950">
      <contour>
        <pt x="79" y="740" on="1"/>
        <pt x="122" y="740" on="1"/>
        <pt x="122" y="0" on="1"/>
        <pt x="79" y="0" on="1"/>
      </contour>
      <contour>
        <pt x="106" y="814" on="1"/>
        <pt x="40" y="814" on="0"/>
        <pt x="-33" y="887" on="0"/>
        <pt x="-33" y="950" on="1"/>
        <pt x="7" y="950" on="1"/>
        <pt x="7" y="903" on="0"/>
        <pt x="58" y="852" on="0"/>
        <pt x="106" y="852" on="1"/>
        <pt x="153" y="852" on="0"/>
        <pt x="204" y="903" on="0"/>
        <pt x="204" y="950" on="1"/>
        <pt x="244" y="950" on="1"/>
        <pt x="244" y="887" on="0"/>
        <pt x="171" y="814" on="0"/>
      </contour>
    </TTGlyph>
    <TTGlyph name="Ibreve.sc" xMin="-21" yMin="0" xMax="221" yMax="743">
      <contour>
        <pt x="75" y="577" on="1"/>
        <pt x="118" y="577" on="1"/>
        <pt x="118" y="0" on="1"/>
        <pt x="75" y="0" on="1"/>
      </contour>
      <contour>
        <pt x="100" y="634" on="1"/>
        <pt x="43" y="634" on="0"/>
        <pt x="-21" y="692" on="0"/>
        <pt x="-21" y="743" on="1"/>
        <pt x="16" y="743" on="1"/>
        <pt x="16" y="705" on="0"/>
        <pt x="60" y="666" on="0"/>
        <pt x="100" y="666" on="1"/>
        <pt x="140" y="666" on="0"/>
        <pt x="184" y="705" on="0"/>
        <pt x="184" y="743" on="1"/>
        <pt x="221" y="743" on="1"/>
        <pt x="221" y="692" on="0"/>
        <pt x="157" y="634" on="0"/>
      </contour>
    </TTGlyph>
    <TTGlyph name="Icircumflex" xMin="-21" yMin="0" xMax="227" yMax="935">
      <contour>
        <pt x="79" y="740" on="1"/>
        <pt x="122" y="740" on="1"/>
        <pt x="122" y="0" on="1"/>
        <pt x="79" y="0" on="1"/>
      </contour>
      <contour>
        <pt x="-21" y="863" on="1"/>
        <pt x="103" y="935" on="1"/>
        <pt x="227" y="863" on="1"/>
        <pt x="227" y="817" on="1"/>
        <pt x="103" y="889" on="1"/>
        <pt x="-21" y="817" on="1"/>
      </contour>
    </TTGlyph>
    <TTGlyph name="Icircumflex.sc" xMin="-10" yMin="0" xMax="208" yMax="732">
      <contour>
        <pt x="75" y="577" on="1"/>
        <pt x="118" y="577" on="1"/>
        <pt x="118" y="0" on="1"/>
        <pt x="75" y="0" on="1"/>
      </contour>
      <contour>
        <pt x="-10" y="676" on="1"/>
        <pt x="99" y="732" on="1"/>
        <pt x="208" y="676" on="1"/>
        <pt x="208" y="635" on="1"/>
        <pt x="99" y="691" on="1"/>
        <pt x="-10" y="635" on="1"/>
      </contour>
    </TTGlyph>
    <TTGlyph name="Idblgrave" xMin="-65" yMin="0" xMax="189" yMax="914">
      <contour>
        <pt x="79" y="740" on="1"/>
        <pt x="122" y="740" on="1"/>
        <pt x="122" y="0" on="1"/>
        <pt x="79" y="0" on="1"/>
      </contour>
      <contour>
        <pt x="22" y="784" on="1"/>
        <pt x="-65" y="914" on="1"/>
        <pt x="-20" y="914" on="1"/>
        <pt x="58" y="798" on="1"/>
      </contour>
      <contour>
        <pt x="153" y="784" on="1"/>
        <pt x="66" y="914" on="1"/>
        <pt x="111" y="914" on="1"/>
        <pt x="189" y="798" on="1"/>
      </contour>
    </TTGlyph>
    <TTGlyph name="Idblgrave.sc" xMin="-48" yMin="0" xMax="175" yMax="718">
      <contour>
        <pt x="75" y="577" on="1"/>
        <pt x="118" y="577" on="1"/>
        <pt x="118" y="0" on="1"/>
        <pt x="75" y="0" on="1"/>
      </contour>
      <contour>
        <pt x="28" y="612" on="1"/>
        <pt x="-48" y="718" on="1"/>
        <pt x="-6" y="718" on="1"/>
        <pt x="61" y="623" on="1"/>
      </contour>
      <contour>
        <pt x="142" y="612" on="1"/>
        <pt x="66" y="718" on="1"/>
        <pt x="108" y="718" on="1"/>
        <pt x="175" y="623" on="1"/>
      </contour>
    </TTGlyph>
    <TTGlyph name="Idieresis" xMin="-15" yMin="0" xMax="225" yMax="880">
      <contour>
        <pt x="79" y="740" on="1"/>
        <pt x="122" y="740" on="1"/>
        <pt x="122" y="0" on="1"/>
        <pt x="79" y="0" on="1"/>
      </contour>
      <contour>
        <pt x="18" y="813" on="1"/>
        <pt x="4" y="813" on="0"/>
        <pt x="-15" y="829" on="0"/>
        <pt x="-15" y="846" on="1"/>
        <pt x="-15" y="864" on="0"/>
        <pt x="4" y="880" on="0"/>
        <pt x="18" y="880" on="1"/>
        <pt x="32" y="880" on="0"/>
        <pt x="52" y="863" on="0"/>
        <pt x="52" y="846" on="1"/>
        <pt x="52" y="829" on="0"/>
        <pt x="32" y="813" on="0"/>
      </contour>
      <contour>
        <pt x="190" y="813" on="1"/>
        <pt x="176" y="813" on="0"/>
        <pt x="156" y="829" on="0"/>
        <pt x="156" y="846" on="1"/>
        <pt x="156" y="864" on="0"/>
        <pt x="176" y="880" on="0"/>
        <pt x="190" y="880" on="1"/>
        <pt x="204" y="880" on="0"/>
        <pt x="225" y="863" on="0"/>
        <pt x="225" y="846" on="1"/>
        <pt x="225" y="829" on="0"/>
        <pt x="204" y="813" on="0"/>
      </contour>
    </TTGlyph>
    <TTGlyph name="Idieresis.sc" xMin="-9" yMin="0" xMax="208" yMax="695">
      <contour>
        <pt x="75" y="577" on="1"/>
        <pt x="118" y="577" on="1"/>
        <pt x="118" y="0" on="1"/>
        <pt x="75" y="0" on="1"/>
      </contour>
      <contour>
        <pt x="22" y="634" on="1"/>
        <pt x="8" y="634" on="0"/>
        <pt x="-9" y="648" on="0"/>
        <pt x="-9" y="664" on="1"/>
        <pt x="-9" y="681" on="0"/>
        <pt x="8" y="695" on="0"/>
        <pt x="22" y="695" on="1"/>
        <pt x="36" y="695" on="0"/>
        <pt x="54" y="680" on="0"/>
        <pt x="54" y="664" on="1"/>
        <pt x="54" y="648" on="0"/>
        <pt x="36" y="634" on="0"/>
      </contour>
      <contour>
        <pt x="176" y="634" on="1"/>
        <pt x="162" y="634" on="0"/>
        <pt x="144" y="648" on="0"/>
        <pt x="144" y="664" on="1"/>
        <pt x="144" y="681" on="0"/>
        <pt x="162" y="695" on="0"/>
        <pt x="176" y="695" on="1"/>
        <pt x="190" y="695" on="0"/>
        <pt x="208" y="680" on="0"/>
        <pt x="208" y="664" on="1"/>
        <pt x="208" y="648" on="0"/>
        <pt x="190" y="634" on="0"/>
      </contour>
    </TTGlyph>
    <TTGlyph name="Idotaccent" xMin="71" yMin="0" xMax="138" yMax="866">
      <contour>
        <pt x="79" y="740" on="1"/>
        <pt x="122" y="740" on="1"/>
        <pt x="122" y="0" on="1"/>
        <pt x="79" y="0" on="1"/>
      </contour>
      <contour>
        <pt x="104" y="799" on="1"/>
        <pt x="90" y="799" on="0"/>
        <pt x="71" y="815" on="0"/>
        <pt x="71" y="832" on="1"/>
        <pt x="71" y="850" on="0"/>
        <pt x="90" y="866" on="0"/>
        <pt x="104" y="866" on="1"/>
        <pt x="118" y="866" on="0"/>
        <pt x="138" y="849" on="0"/>
        <pt x="138" y="832" on="1"/>
        <pt x="138" y="815" on="0"/>
        <pt x="118" y="799" on="0"/>
      </contour>
    </TTGlyph>
    <TTGlyph name="Idotaccent.sc" xMin="68" yMin="0" xMax="131" yMax="684">
      <contour>
        <pt x="75" y="577" on="1"/>
        <pt x="118" y="577" on="1"/>
        <pt x="118" y="0" on="1"/>
        <pt x="75" y="0" on="1"/>
      </contour>
      <contour>
        <pt x="98" y="624" on="1"/>
        <pt x="84" y="624" on="0"/>
        <pt x="68" y="638" on="0"/>
        <pt x="68" y="655" on="1"/>
        <pt x="68" y="670" on="0"/>
        <pt x="84" y="684" on="0"/>
        <pt x="98" y="684" on="1"/>
        <pt x="113" y="684" on="0"/>
        <pt x="131" y="670" on="0"/>
        <pt x="131" y="655" on="1"/>
        <pt x="131" y="638" on="0"/>
        <pt x="113" y="624" on="0"/>
      </contour>
    </TTGlyph>
    <TTGlyph name="Idotbelow" xMin="66" yMin="-163" xMax="141" yMax="740">
      <contour>
        <pt x="79" y="740" on="1"/>
        <pt x="122" y="740" on="1"/>
        <pt x="122" y="0" on="1"/>
        <pt x="79" y="0" on="1"/>
      </contour>
      <contour>
        <pt x="104" y="-163" on="1"/>
        <pt x="87" y="-163" on="0"/>
        <pt x="66" y="-146" on="0"/>
        <pt x="66" y="-126" on="1"/>
        <pt x="66" y="-105" on="0"/>
        <pt x="87" y="-89" on="0"/>
        <pt x="104" y="-89" on="1"/>
        <pt x="121" y="-89" on="0"/>
        <pt x="141" y="-106" on="0"/>
        <pt x="141" y="-126" on="1"/>
        <pt x="141" y="-146" on="0"/>
        <pt x="121" y="-163" on="0"/>
      </contour>
    </TTGlyph>
    <TTGlyph name="Idotbelow.sc" xMin="65" yMin="-131" xMax="133" yMax="577">
      <contour>
        <pt x="75" y="577" on="1"/>
        <pt x="118" y="577" on="1"/>
        <pt x="118" y="0" on="1"/>
        <pt x="75" y="0" on="1"/>
      </contour>
      <contour>
        <pt x="98" y="-131" on="1"/>
        <pt x="83" y="-131" on="0"/>
        <pt x="65" y="-117" on="0"/>
        <pt x="65" y="-100" on="1"/>
        <pt x="65" y="-82" on="0"/>
        <pt x="83" y="-68" on="0"/>
        <pt x="98" y="-68" on="1"/>
        <pt x="113" y="-68" on="0"/>
        <pt x="133" y="-83" on="0"/>
        <pt x="133" y="-100" on="1"/>
        <pt x="133" y="-117" on="0"/>
        <pt x="113" y="-131" on="0"/>
      </contour>
    </TTGlyph>
    <TTGlyph name="Igrave" xMin="-6" yMin="0" xMax="122" yMax="914">
      <contour>
        <pt x="79" y="740" on="1"/>
        <pt x="122" y="740" on="1"/>
        <pt x="122" y="0" on="1"/>
        <pt x="79" y="0" on="1"/>
      </contour>
      <contour>
        <pt x="81" y="784" on="1"/>
        <pt x="-6" y="914" on="1"/>
        <pt x="41" y="914" on="1"/>
        <pt x="119" y="798" on="1"/>
      </contour>
    </TTGlyph>
    <TTGlyph name="Igrave.sc" xMin="3" yMin="0" xMax="119" yMax="718">
      <contour>
        <pt x="75" y="577" on="1"/>
        <pt x="119" y="577" on="1"/>
        <pt x="119" y="0" on="1"/>
        <pt x="75" y="0" on="1"/>
      </contour>
      <contour>
        <pt x="78" y="613" on="1"/>
        <pt x="3" y="718" on="1"/>
        <pt x="48" y="718" on="1"/>
        <pt x="114" y="623" on="1"/>
      </contour>
    </TTGlyph>
    <TTGlyph name="Iinvertedbreve" xMin="-35" yMin="0" xMax="242" yMax="960">
      <contour>
        <pt x="79" y="740" on="1"/>
        <pt x="122" y="740" on="1"/>
        <pt x="122" y="0" on="1"/>
        <pt x="79" y="0" on="1"/>
      </contour>
      <contour>
        <pt x="202" y="824" on="1"/>
        <pt x="202" y="871" on="0"/>
        <pt x="151" y="923" on="0"/>
        <pt x="104" y="923" on="1"/>
        <pt x="56" y="923" on="0"/>
        <pt x="5" y="871" on="0"/>
        <pt x="5" y="824" on="1"/>
        <pt x="-35" y="824" on="1"/>
        <pt x="-35" y="887" on="0"/>
        <pt x="38" y="960" on="0"/>
        <pt x="104" y="960" on="1"/>
        <pt x="169" y="960" on="0"/>
        <pt x="242" y="887" on="0"/>
        <pt x="242" y="824" on="1"/>
      </contour>
    </TTGlyph>
    <TTGlyph name="Iinvertedbreve.sc" xMin="-22" yMin="0" xMax="220" yMax="750">
      <contour>
        <pt x="75" y="577" on="1"/>
        <pt x="118" y="577" on="1"/>
        <pt x="118" y="0" on="1"/>
        <pt x="75" y="0" on="1"/>
      </contour>
      <contour>
        <pt x="183" y="642" on="1"/>
        <pt x="183" y="678" on="0"/>
        <pt x="139" y="718" on="0"/>
        <pt x="99" y="718" on="1"/>
        <pt x="59" y="718" on="0"/>
        <pt x="15" y="678" on="0"/>
        <pt x="15" y="642" on="1"/>
        <pt x="-22" y="642" on="1"/>
        <pt x="-22" y="693" on="0"/>
        <pt x="42" y="750" on="0"/>
        <pt x="99" y="750" on="1"/>
        <pt x="156" y="750" on="0"/>
        <pt x="220" y="693" on="0"/>
        <pt x="220" y="642" on="1"/>
      </contour>
    </TTGlyph>
    <TTGlyph name="Imacron" xMin="-14" yMin="0" xMax="203" yMax="881">
      <contour>
        <pt x="79" y="740" on="1"/>
        <pt x="122" y="740" on="1"/>
        <pt x="122" y="0" on="1"/>
        <pt x="79" y="0" on="1"/>
      </contour>
      <contour>
        <pt x="-14" y="881" on="1"/>
        <pt x="203" y="881" on="1"/>
        <pt x="203" y="842" on="1"/>
        <pt x="-14" y="842" on="1"/>
      </contour>
    </TTGlyph>
    <TTGlyph name="Imacron.sc" xMin="-5" yMin="0" xMax="189" yMax="692">
      <contour>
        <pt x="75" y="577" on="1"/>
        <pt x="118" y="577" on="1"/>
        <pt x="118" y="0" on="1"/>
        <pt x="75" y="0" on="1"/>
      </contour>
      <contour>
        <pt x="-5" y="692" on="1"/>
        <pt x="189" y="692" on="1"/>
        <pt x="189" y="656" on="1"/>
        <pt x="-5" y="656" on="1"/>
      </contour>
    </TTGlyph>
    <TTGlyph name="Iogonek" xMin="-8" yMin="-220" xMax="122" yMax="740">
      <contour>
        <pt x="79" y="740" on="1"/>
        <pt x="122" y="740" on="1"/>
        <pt x="122" y="-18" on="1"/>
        <pt x="74" y="-43" on="0"/>
        <pt x="31" y="-98" on="0"/>
        <pt x="31" y="-133" on="1"/>
        <pt x="31" y="-182" on="0"/>
        <pt x="79" y="-182" on="1"/>
        <pt x="102" y="-182" on="0"/>
        <pt x="122" y="-172" on="1"/>
        <pt x="122" y="-208" on="1"/>
        <pt x="98" y="-220" on="0"/>
        <pt x="73" y="-220" on="1"/>
        <pt x="35" y="-220" on="0"/>
        <pt x="-8" y="-176" on="0"/>
        <pt x="-8" y="-137" on="1"/>
        <pt x="-8" y="-58" on="0"/>
        <pt x="85" y="0" on="1"/>
        <pt x="79" y="0" on="1"/>
      </contour>
    </TTGlyph>
    <TTGlyph name="Iogonek.sc" xMin="3" yMin="-172" xMax="118" yMax="577">
      <contour>
        <pt x="75" y="577" on="1"/>
        <pt x="118" y="577" on="1"/>
        <pt x="118" y="-13" on="1"/>
        <pt x="81" y="-27" on="0"/>
        <pt x="40" y="-76" on="0"/>
        <pt x="40" y="-104" on="1"/>
        <pt x="40" y="-138" on="0"/>
        <pt x="79" y="-138" on="1"/>
        <pt x="100" y="-138" on="0"/>
        <pt x="118" y="-130" on="1"/>
        <pt x="118" y="-162" on="1"/>
        <pt x="96" y="-172" on="0"/>
        <pt x="76" y="-172" on="1"/>
        <pt x="41" y="-172" on="0"/>
        <pt x="3" y="-138" on="0"/>
        <pt x="3" y="-106" on="1"/>
        <pt x="3" y="-45" on="0"/>
        <pt x="82" y="0" on="1"/>
        <pt x="75" y="0" on="1"/>
      </contour>
    </TTGlyph>
    <TTGlyph name="Itilde" xMin="-40" yMin="0" xMax="249" yMax="903">
      <contour>
        <pt x="79" y="740" on="1"/>
        <pt x="122" y="740" on="1"/>
        <pt x="122" y="0" on="1"/>
        <pt x="79" y="0" on="1"/>
      </contour>
      <contour>
        <pt x="-40" y="849" on="1"/>
        <pt x="-26" y="869" on="0"/>
        <pt x="24" y="903" on="0"/>
        <pt x="48" y="903" on="1"/>
        <pt x="67" y="903" on="0"/>
        <pt x="97" y="890" on="0"/>
        <pt x="125" y="873" on="0"/>
        <pt x="152" y="860" on="0"/>
        <pt x="169" y="860" on="1"/>
        <pt x="185" y="860" on="0"/>
        <pt x="212" y="882" on="0"/>
        <pt x="222" y="900" on="1"/>
        <pt x="249" y="880" on="1"/>
        <pt x="238" y="854" on="0"/>
        <pt x="190" y="821" on="0"/>
        <pt x="166" y="821" on="1"/>
        <pt x="147" y="821" on="0"/>
        <pt x="117" y="834" on="0"/>
        <pt x="89" y="851" on="0"/>
        <pt x="61" y="864" on="0"/>
        <pt x="45" y="864" on="1"/>
        <pt x="28" y="864" on="0"/>
        <pt x="-5" y="841" on="0"/>
        <pt x="-16" y="825" on="1"/>
      </contour>
    </TTGlyph>
    <TTGlyph name="Itilde.sc" xMin="-28" yMin="0" xMax="228" yMax="709">
      <contour>
        <pt x="75" y="577" on="1"/>
        <pt x="118" y="577" on="1"/>
        <pt x="118" y="0" on="1"/>
        <pt x="75" y="0" on="1"/>
      </contour>
      <contour>
        <pt x="-28" y="662" on="1"/>
        <pt x="-14" y="681" on="0"/>
        <pt x="29" y="709" on="0"/>
        <pt x="51" y="709" on="1"/>
        <pt x="67" y="709" on="0"/>
        <pt x="94" y="699" on="0"/>
        <pt x="118" y="686" on="0"/>
        <pt x="143" y="676" on="0"/>
        <pt x="158" y="676" on="1"/>
        <pt x="186" y="676" on="0"/>
        <pt x="205" y="707" on="1"/>
        <pt x="228" y="691" on="1"/>
        <pt x="217" y="668" on="0"/>
        <pt x="175" y="640" on="0"/>
        <pt x="153" y="640" on="1"/>
        <pt x="137" y="640" on="0"/>
        <pt x="110" y="651" on="0"/>
        <pt x="85" y="663" on="0"/>
        <pt x="61" y="674" on="0"/>
        <pt x="47" y="674" on="1"/>
        <pt x="32" y="674" on="0"/>
        <pt x="3" y="657" on="0"/>
        <pt x="-8" y="643" on="1"/>
      </contour>
    </TTGlyph>
    <TTGlyph name="J" xMin="-3" yMin="-177" xMax="124" yMax="740">
      <contour>
        <pt x="-3" y="-159" on="1"/>
        <pt x="22" y="-104" on="0"/>
        <pt x="55" y="-21" on="0"/>
        <pt x="74" y="54" on="0"/>
        <pt x="81" y="132" on="0"/>
        <pt x="81" y="181" on="1"/>
        <pt x="81" y="740" on="1"/>
        <pt x="124" y="740" on="1"/>
        <pt x="124" y="180" on="1"/>
        <pt x="124" y="87" on="0"/>
        <pt x="77" y="-85" on="0"/>
        <pt x="26" y="-177" on="1"/>
      </contour>
    </TTGlyph>
    <TTGlyph name="J.sc" xMin="6" yMin="-140" xMax="120" yMax="577">
      <contour>
        <pt x="6" y="-124" on="1"/>
        <pt x="27" y="-82" on="0"/>
        <pt x="55" y="-17" on="0"/>
        <pt x="71" y="42" on="0"/>
        <pt x="77" y="103" on="0"/>
        <pt x="77" y="142" on="1"/>
        <pt x="77" y="577" on="1"/>
        <pt x="120" y="577" on="1"/>
        <pt x="120" y="140" on="1"/>
        <pt x="120" y="66" on="0"/>
        <pt x="80" y="-66" on="0"/>
        <pt x="35" y="-140" on="1"/>
      </contour>
    </TTGlyph>
    <TTGlyph name="Jcircumflex" xMin="-26" yMin="-177" xMax="222" yMax="935">
      <contour>
        <pt x="-3" y="-159" on="1"/>
        <pt x="22" y="-104" on="0"/>
        <pt x="55" y="-21" on="0"/>
        <pt x="74" y="54" on="0"/>
        <pt x="81" y="132" on="0"/>
        <pt x="81" y="181" on="1"/>
        <pt x="81" y="740" on="1"/>
        <pt x="124" y="740" on="1"/>
        <pt x="124" y="180" on="1"/>
        <pt x="124" y="87" on="0"/>
        <pt x="77" y="-85" on="0"/>
        <pt x="26" y="-177" on="1"/>
      </contour>
      <contour>
        <pt x="-26" y="863" on="1"/>
        <pt x="98" y="935" on="1"/>
        <pt x="222" y="863" on="1"/>
        <pt x="222" y="817" on="1"/>
        <pt x="98" y="889" on="1"/>
        <pt x="-26" y="817" on="1"/>
      </contour>
    </TTGlyph>
    <TTGlyph name="Jcircumflex.sc" xMin="-13" yMin="-140" xMax="204" yMax="732">
      <contour>
        <pt x="7" y="-124" on="1"/>
        <pt x="28" y="-82" on="0"/>
        <pt x="55" y="-17" on="0"/>
        <pt x="71" y="42" on="0"/>
        <pt x="77" y="103" on="0"/>
        <pt x="77" y="142" on="1"/>
        <pt x="77" y="577" on="1"/>
        <pt x="120" y="577" on="1"/>
        <pt x="120" y="140" on="1"/>
        <pt x="120" y="66" on="0"/>
        <pt x="80" y="-66" on="0"/>
        <pt x="35" y="-140" on="1"/>
      </contour>
      <contour>
        <pt x="-13" y="676" on="1"/>
        <pt x="96" y="732" on="1"/>
        <pt x="204" y="676" on="1"/>
        <pt x="204" y="635" on="1"/>
        <pt x="96" y="691" on="1"/>
        <pt x="-13" y="635" on="1"/>
      </contour>
    </TTGlyph>
    <TTGlyph name="K" xMin="79" yMin="0" xMax="536" yMax="740">
      <contour>
        <pt x="79" y="740" on="1"/>
        <pt x="122" y="740" on="1"/>
        <pt x="122" y="397" on="1"/>
        <pt x="210" y="397" on="1"/>
        <pt x="463" y="740" on="1"/>
        <pt x="516" y="740" on="1"/>
        <pt x="270" y="405" on="1"/>
        <pt x="244" y="380" on="1"/>
        <pt x="244" y="376" on="1"/>
        <pt x="272" y="353" on="1"/>
        <pt x="536" y="0" on="1"/>
        <pt x="485" y="0" on="1"/>
        <pt x="217" y="355" on="1"/>
        <pt x="122" y="355" on="1"/>
        <pt x="122" y="0" on="1"/>
        <pt x="79" y="0" on="1"/>
      </contour>
    </TTGlyph>
    <TTGlyph name="K.sc" xMin="75" yMin="0" xMax="474" yMax="577">
      <contour>
        <pt x="75" y="577" on="1"/>
        <pt x="118" y="577" on="1"/>
        <pt x="118" y="313" on="1"/>
        <pt x="196" y="313" on="1"/>
        <pt x="406" y="577" on="1"/>
        <pt x="458" y="577" on="1"/>
        <pt x="252" y="316" on="1"/>
        <pt x="227" y="296" on="1"/>
        <pt x="227" y="293" on="1"/>
        <pt x="253" y="275" on="1"/>
        <pt x="474" y="0" on="1"/>
        <pt x="425" y="0" on="1"/>
        <pt x="201" y="274" on="1"/>
        <pt x="118" y="274" on="1"/>
        <pt x="118" y="0" on="1"/>
        <pt x="75" y="0" on="1"/>
      </contour>
    </TTGlyph>
    <TTGlyph name="Kcommaaccent" xMin="79" yMin="-220" xMax="536" yMax="740">
      <contour>
        <pt x="261" y="-66" on="1"/>
        <pt x="305" y="-66" on="1"/>
        <pt x="250" y="-220" on="1"/>
        <pt x="209" y="-220" on="1"/>
      </contour>
      <contour>
        <pt x="79" y="740" on="1"/>
        <pt x="122" y="740" on="1"/>
        <pt x="122" y="397" on="1"/>
        <pt x="210" y="397" on="1"/>
        <pt x="463" y="740" on="1"/>
        <pt x="516" y="740" on="1"/>
        <pt x="270" y="405" on="1"/>
        <pt x="244" y="380" on="1"/>
        <pt x="244" y="376" on="1"/>
        <pt x="272" y="353" on="1"/>
        <pt x="536" y="0" on="1"/>
        <pt x="485" y="0" on="1"/>
        <pt x="217" y="355" on="1"/>
        <pt x="122" y="355" on="1"/>
        <pt x="122" y="0" on="1"/>
        <pt x="79" y="0" on="1"/>
      </contour>
    </TTGlyph>
    <TTGlyph name="Kcommaaccent.sc" xMin="75" yMin="-172" xMax="474" yMax="577">
      <contour>
        <pt x="75" y="577" on="1"/>
        <pt x="118" y="577" on="1"/>
        <pt x="118" y="313" on="1"/>
        <pt x="196" y="313" on="1"/>
        <pt x="406" y="577" on="1"/>
        <pt x="458" y="577" on="1"/>
        <pt x="252" y="316" on="1"/>
        <pt x="227" y="296" on="1"/>
        <pt x="227" y="293" on="1"/>
        <pt x="253" y="275" on="1"/>
        <pt x="474" y="0" on="1"/>
        <pt x="425" y="0" on="1"/>
        <pt x="201" y="274" on="1"/>
        <pt x="118" y="274" on="1"/>
        <pt x="118" y="0" on="1"/>
        <pt x="75" y="0" on="1"/>
      </contour>
      <contour>
        <pt x="232" y="-52" on="1"/>
        <pt x="276" y="-52" on="1"/>
        <pt x="228" y="-172" on="1"/>
        <pt x="189" y="-172" on="1"/>
      </contour>
    </TTGlyph>
    <TTGlyph name="L" xMin="79" yMin="0" xMax="379" yMax="740">
      <contour>
        <pt x="79" y="740" on="1"/>
        <pt x="122" y="740" on="1"/>
        <pt x="122" y="41" on="1"/>
        <pt x="379" y="41" on="1"/>
        <pt x="379" y="0" on="1"/>
        <pt x="79" y="0" on="1"/>
      </contour>
    </TTGlyph>
    <TTGlyph name="L.sc" xMin="75" yMin="0" xMax="341" yMax="577">
      <contour>
        <pt x="75" y="577" on="1"/>
        <pt x="118" y="577" on="1"/>
        <pt x="118" y="40" on="1"/>
        <pt x="341" y="40" on="1"/>
        <pt x="341" y="0" on="1"/>
        <pt x="75" y="0" on="1"/>
      </contour>
    </TTGlyph>
    <TTGlyph name="Lacute" xMin="79" yMin="0" xMax="379" yMax="914">
      <contour>
        <pt x="94" y="788" on="1"/>
        <pt x="172" y="914" on="1"/>
        <pt x="219" y="914" on="1"/>
        <pt x="132" y="784" on="1"/>
      </contour>
      <contour>
        <pt x="79" y="740" on="1"/>
        <pt x="122" y="740" on="1"/>
        <pt x="122" y="41" on="1"/>
        <pt x="379" y="41" on="1"/>
        <pt x="379" y="0" on="1"/>
        <pt x="79" y="0" on="1"/>
      </contour>
    </TTGlyph>
    <TTGlyph name="Lacute.sc" xMin="75" yMin="0" xMax="341" yMax="718">
      <contour>
        <pt x="75" y="577" on="1"/>
        <pt x="118" y="577" on="1"/>
        <pt x="118" y="40" on="1"/>
        <pt x="341" y="40" on="1"/>
        <pt x="341" y="0" on="1"/>
        <pt x="75" y="0" on="1"/>
      </contour>
      <contour>
        <pt x="88" y="616" on="1"/>
        <pt x="154" y="718" on="1"/>
        <pt x="200" y="718" on="1"/>
        <pt x="124" y="613" on="1"/>
      </contour>
    </TTGlyph>
    <TTGlyph name="Lcaron" xMin="79" yMin="0" xMax="379" yMax="744">
      <contour>
        <pt x="304" y="744" on="1"/>
        <pt x="345" y="744" on="1"/>
        <pt x="323" y="516" on="1"/>
        <pt x="304" y="516" on="1"/>
      </contour>
      <contour>
        <pt x="79" y="740" on="1"/>
        <pt x="122" y="740" on="1"/>
        <pt x="122" y="41" on="1"/>
        <pt x="379" y="41" on="1"/>
        <pt x="379" y="0" on="1"/>
        <pt x="79" y="0" on="1"/>
      </contour>
    </TTGlyph>
    <TTGlyph name="Lcaron.sc" xMin="75" yMin="0" xMax="341" yMax="584">
      <contour>
        <pt x="75" y="577" on="1"/>
        <pt x="118" y="577" on="1"/>
        <pt x="118" y="40" on="1"/>
        <pt x="341" y="40" on="1"/>
        <pt x="341" y="0" on="1"/>
        <pt x="75" y="0" on="1"/>
      </contour>
      <contour>
        <pt x="275" y="584" on="1"/>
        <pt x="314" y="584" on="1"/>
        <pt x="294" y="407" on="1"/>
        <pt x="275" y="407" on="1"/>
      </contour>
    </TTGlyph>
    <TTGlyph name="Lcommaaccent" xMin="79" yMin="-220" xMax="379" yMax="740">
      <contour>
        <pt x="221" y="-66" on="1"/>
        <pt x="265" y="-66" on="1"/>
        <pt x="210" y="-220" on="1"/>
        <pt x="169" y="-220" on="1"/>
      </contour>
      <contour>
        <pt x="79" y="740" on="1"/>
        <pt x="122" y="740" on="1"/>
        <pt x="122" y="41" on="1"/>
        <pt x="379" y="41" on="1"/>
        <pt x="379" y="0" on="1"/>
        <pt x="79" y="0" on="1"/>
      </contour>
    </TTGlyph>
    <TTGlyph name="Lcommaaccent.sc" xMin="75" yMin="-172" xMax="341" yMax="577">
      <contour>
        <pt x="75" y="577" on="1"/>
        <pt x="118" y="577" on="1"/>
        <pt x="118" y="40" on="1"/>
        <pt x="341" y="40" on="1"/>
        <pt x="341" y="0" on="1"/>
        <pt x="75" y="0" on="1"/>
      </contour>
      <contour>
        <pt x="197" y="-52" on="1"/>
        <pt x="241" y="-52" on="1"/>
        <pt x="193" y="-172" on="1"/>
        <pt x="154" y="-172" on="1"/>
      </contour>
    </TTGlyph>
    <TTGlyph name="Ldot" xMin="79" yMin="0" xMax="379" yMax="740">
      <contour>
        <pt x="79" y="740" on="1"/>
        <pt x="122" y="740" on="1"/>
        <pt x="122" y="41" on="1"/>
        <pt x="379" y="41" on="1"/>
        <pt x="379" y="0" on="1"/>
        <pt x="79" y="0" on="1"/>
      </contour>
      <contour>
        <pt x="290" y="336" on="1"/>
        <pt x="276" y="336" on="0"/>
        <pt x="257" y="352" on="0"/>
        <pt x="257" y="370" on="1"/>
        <pt x="257" y="388" on="0"/>
        <pt x="276" y="404" on="0"/>
        <pt x="290" y="404" on="1"/>
        <pt x="305" y="404" on="0"/>
        <pt x="325" y="387" on="0"/>
        <pt x="325" y="370" on="1"/>
        <pt x="325" y="353" on="0"/>
        <pt x="305" y="336" on="0"/>
      </contour>
    </TTGlyph>
    <TTGlyph name="Ldot.sc" xMin="75" yMin="0" xMax="341" yMax="577">
      <contour>
        <pt x="75" y="577" on="1"/>
        <pt x="118" y="577" on="1"/>
        <pt x="118" y="40" on="1"/>
        <pt x="341" y="40" on="1"/>
        <pt x="341" y="0" on="1"/>
        <pt x="75" y="0" on="1"/>
      </contour>
      <contour>
        <pt x="267" y="258" on="1"/>
        <pt x="236" y="258" on="0"/>
        <pt x="236" y="289" on="1"/>
        <pt x="236" y="319" on="0"/>
        <pt x="267" y="319" on="1"/>
        <pt x="281" y="319" on="0"/>
        <pt x="299" y="305" on="0"/>
        <pt x="299" y="289" on="1"/>
        <pt x="299" y="273" on="0"/>
        <pt x="281" y="258" on="0"/>
      </contour>
    </TTGlyph>
    <TTGlyph name="Lslash" xMin="13" yMin="0" xMax="403" yMax="740">
      <contour>
        <pt x="13" y="273" on="1"/>
        <pt x="103" y="358" on="1"/>
        <pt x="103" y="740" on="1"/>
        <pt x="146" y="740" on="1"/>
        <pt x="146" y="398" on="1"/>
        <pt x="244" y="491" on="1"/>
        <pt x="244" y="439" on="1"/>
        <pt x="146" y="346" on="1"/>
        <pt x="146" y="41" on="1"/>
        <pt x="403" y="41" on="1"/>
        <pt x="403" y="0" on="1"/>
        <pt x="103" y="0" on="1"/>
        <pt x="103" y="305" on="1"/>
        <pt x="13" y="220" on="1"/>
      </contour>
    </TTGlyph>
    <TTGlyph name="Lslash.sc" xMin="19" yMin="0" xMax="362" yMax="577">
      <contour>
        <pt x="19" y="218" on="1"/>
        <pt x="97" y="283" on="1"/>
        <pt x="97" y="577" on="1"/>
        <pt x="140" y="577" on="1"/>
        <pt x="140" y="315" on="1"/>
        <pt x="226" y="387" on="1"/>
        <pt x="226" y="341" on="1"/>
        <pt x="140" y="269" on="1"/>
        <pt x="140" y="40" on="1"/>
        <pt x="362" y="40" on="1"/>
        <pt x="362" y="0" on="1"/>
        <pt x="97" y="0" on="1"/>
        <pt x="97" y="237" on="1"/>
        <pt x="19" y="172" on="1"/>
      </contour>
    </TTGlyph>
    <TTGlyph name="M" xMin="79" yMin="0" xMax="687" yMax="740">
      <contour>
        <pt x="79" y="740" on="1"/>
        <pt x="133" y="740" on="1"/>
        <pt x="349" y="173" on="1"/>
        <pt x="381" y="82" on="1"/>
        <pt x="385" y="82" on="1"/>
        <pt x="417" y="173" on="1"/>
        <pt x="633" y="740" on="1"/>
        <pt x="687" y="740" on="1"/>
        <pt x="687" y="0" on="1"/>
        <pt x="644" y="0" on="1"/>
        <pt x="644" y="647" on="1"/>
        <pt x="640" y="648" on="1"/>
        <pt x="605" y="549" on="1"/>
        <pt x="408" y="32" on="1"/>
        <pt x="358" y="32" on="1"/>
        <pt x="161" y="549" on="1"/>
        <pt x="126" y="648" on="1"/>
        <pt x="122" y="647" on="1"/>
        <pt x="122" y="0" on="1"/>
        <pt x="79" y="0" on="1"/>
      </contour>
    </TTGlyph>
    <TTGlyph name="M.sc" xMin="75" yMin="0" xMax="606" yMax="577">
      <contour>
        <pt x="75" y="577" on="1"/>
        <pt x="130" y="577" on="1"/>
        <pt x="310" y="150" on="1"/>
        <pt x="338" y="75" on="1"/>
        <pt x="343" y="75" on="1"/>
        <pt x="371" y="150" on="1"/>
        <pt x="551" y="577" on="1"/>
        <pt x="606" y="577" on="1"/>
        <pt x="606" y="0" on="1"/>
        <pt x="564" y="0" on="1"/>
        <pt x="564" y="499" on="1"/>
        <pt x="561" y="499" on="1"/>
        <pt x="527" y="413" on="1"/>
        <pt x="365" y="25" on="1"/>
        <pt x="317" y="25" on="1"/>
        <pt x="154" y="413" on="1"/>
        <pt x="120" y="499" on="1"/>
        <pt x="117" y="499" on="1"/>
        <pt x="117" y="0" on="1"/>
        <pt x="75" y="0" on="1"/>
      </contour>
    </TTGlyph>
    <TTGlyph name="N" xMin="79" yMin="0" xMax="564" yMax="740">
      <contour>
        <pt x="79" y="740" on="1"/>
        <pt x="126" y="740" on="1"/>
        <pt x="471" y="160" on="1"/>
        <pt x="517" y="75" on="1"/>
        <pt x="522" y="76" on="1"/>
        <pt x="522" y="740" on="1"/>
        <pt x="564" y="740" on="1"/>
        <pt x="564" y="0" on="1"/>
        <pt x="516" y="0" on="1"/>
        <pt x="175" y="574" on="1"/>
        <pt x="126" y="664" on="1"/>
        <pt x="121" y="663" on="1"/>
        <pt x="121" y="0" on="1"/>
        <pt x="79" y="0" on="1"/>
      </contour>
    </TTGlyph>
    <TTGlyph name="N.sc" xMin="75" yMin="0" xMax="497" yMax="577">
      <contour>
        <pt x="75" y="577" on="1"/>
        <pt x="120" y="577" on="1"/>
        <pt x="412" y="139" on="1"/>
        <pt x="452" y="72" on="1"/>
        <pt x="456" y="73" on="1"/>
        <pt x="456" y="577" on="1"/>
        <pt x="497" y="577" on="1"/>
        <pt x="497" y="0" on="1"/>
        <pt x="453" y="0" on="1"/>
        <pt x="162" y="435" on="1"/>
        <pt x="120" y="504" on="1"/>
        <pt x="116" y="504" on="1"/>
        <pt x="116" y="0" on="1"/>
        <pt x="75" y="0" on="1"/>
      </contour>
    </TTGlyph>
    <TTGlyph name="Nacute" xMin="79" yMin="0" xMax="564" yMax="914">
      <contour>
        <pt x="305" y="788" on="1"/>
        <pt x="383" y="914" on="1"/>
        <pt x="430" y="914" on="1"/>
        <pt x="343" y="784" on="1"/>
      </contour>
      <contour>
        <pt x="79" y="740" on="1"/>
        <pt x="126" y="740" on="1"/>
        <pt x="471" y="160" on="1"/>
        <pt x="517" y="75" on="1"/>
        <pt x="522" y="76" on="1"/>
        <pt x="522" y="740" on="1"/>
        <pt x="564" y="740" on="1"/>
        <pt x="564" y="0" on="1"/>
        <pt x="516" y="0" on="1"/>
        <pt x="175" y="574" on="1"/>
        <pt x="126" y="664" on="1"/>
        <pt x="121" y="663" on="1"/>
        <pt x="121" y="0" on="1"/>
        <pt x="79" y="0" on="1"/>
      </contour>
    </TTGlyph>
    <TTGlyph name="Nacute.sc" xMin="75" yMin="0" xMax="497" yMax="718">
      <contour>
        <pt x="75" y="577" on="1"/>
        <pt x="120" y="577" on="1"/>
        <pt x="412" y="139" on="1"/>
        <pt x="452" y="72" on="1"/>
        <pt x="456" y="73" on="1"/>
        <pt x="456" y="577" on="1"/>
        <pt x="497" y="577" on="1"/>
        <pt x="497" y="0" on="1"/>
        <pt x="453" y="0" on="1"/>
        <pt x="162" y="435" on="1"/>
        <pt x="120" y="504" on="1"/>
        <pt x="116" y="504" on="1"/>
        <pt x="116" y="0" on="1"/>
        <pt x="75" y="0" on="1"/>
      </contour>
      <contour>
        <pt x="269" y="616" on="1"/>
        <pt x="336" y="718" on="1"/>
        <pt x="381" y="718" on="1"/>
        <pt x="305" y="613" on="1"/>
      </contour>
    </TTGlyph>
    <TTGlyph name="Ncaron" xMin="79" yMin="0" xMax="564" yMax="916">
      <contour>
        <pt x="207" y="916" on="1"/>
        <pt x="331" y="844" on="1"/>
        <pt x="455" y="916" on="1"/>
        <pt x="455" y="870" on="1"/>
        <pt x="331" y="798" on="1"/>
        <pt x="207" y="870" on="1"/>
      </contour>
      <contour>
        <pt x="79" y="740" on="1"/>
        <pt x="126" y="740" on="1"/>
        <pt x="471" y="160" on="1"/>
        <pt x="517" y="75" on="1"/>
        <pt x="522" y="76" on="1"/>
        <pt x="522" y="740" on="1"/>
        <pt x="564" y="740" on="1"/>
        <pt x="564" y="0" on="1"/>
        <pt x="516" y="0" on="1"/>
        <pt x="175" y="574" on="1"/>
        <pt x="126" y="664" on="1"/>
        <pt x="121" y="663" on="1"/>
        <pt x="121" y="0" on="1"/>
        <pt x="79" y="0" on="1"/>
      </contour>
    </TTGlyph>
    <TTGlyph name="Ncaron.sc" xMin="75" yMin="0" xMax="497" yMax="719">
      <contour>
        <pt x="75" y="577" on="1"/>
        <pt x="120" y="577" on="1"/>
        <pt x="412" y="139" on="1"/>
        <pt x="452" y="72" on="1"/>
        <pt x="456" y="73" on="1"/>
        <pt x="456" y="577" on="1"/>
        <pt x="497" y="577" on="1"/>
        <pt x="497" y="0" on="1"/>
        <pt x="453" y="0" on="1"/>
        <pt x="162" y="435" on="1"/>
        <pt x="120" y="504" on="1"/>
        <pt x="116" y="504" on="1"/>
        <pt x="116" y="0" on="1"/>
        <pt x="75" y="0" on="1"/>
      </contour>
      <contour>
        <pt x="185" y="679" on="1"/>
        <pt x="185" y="719" on="1"/>
        <pt x="294" y="663" on="1"/>
        <pt x="403" y="719" on="1"/>
        <pt x="403" y="679" on="1"/>
        <pt x="295" y="622" on="1"/>
      </contour>
    </TTGlyph>
    <TTGlyph name="Ncommaaccent" xMin="79" yMin="-220" xMax="564" yMax="740">
      <contour>
        <pt x="334" y="-66" on="1"/>
        <pt x="378" y="-66" on="1"/>
        <pt x="323" y="-220" on="1"/>
        <pt x="282" y="-220" on="1"/>
      </contour>
      <contour>
        <pt x="79" y="740" on="1"/>
        <pt x="126" y="740" on="1"/>
        <pt x="471" y="160" on="1"/>
        <pt x="517" y="75" on="1"/>
        <pt x="522" y="76" on="1"/>
        <pt x="522" y="740" on="1"/>
        <pt x="564" y="740" on="1"/>
        <pt x="564" y="0" on="1"/>
        <pt x="516" y="0" on="1"/>
        <pt x="175" y="574" on="1"/>
        <pt x="126" y="664" on="1"/>
        <pt x="121" y="663" on="1"/>
        <pt x="121" y="0" on="1"/>
        <pt x="79" y="0" on="1"/>
      </contour>
    </TTGlyph>
    <TTGlyph name="Ncommaaccent.sc" xMin="75" yMin="-172" xMax="497" yMax="577">
      <contour>
        <pt x="75" y="577" on="1"/>
        <pt x="120" y="577" on="1"/>
        <pt x="412" y="139" on="1"/>
        <pt x="452" y="72" on="1"/>
        <pt x="456" y="73" on="1"/>
        <pt x="456" y="577" on="1"/>
        <pt x="497" y="577" on="1"/>
        <pt x="497" y="0" on="1"/>
        <pt x="453" y="0" on="1"/>
        <pt x="162" y="435" on="1"/>
        <pt x="120" y="504" on="1"/>
        <pt x="116" y="504" on="1"/>
        <pt x="116" y="0" on="1"/>
        <pt x="75" y="0" on="1"/>
      </contour>
      <contour>
        <pt x="292" y="-52" on="1"/>
        <pt x="335" y="-52" on="1"/>
        <pt x="288" y="-172" on="1"/>
        <pt x="248" y="-172" on="1"/>
      </contour>
    </TTGlyph>
    <TTGlyph name="Ndotaccent" xMin="79" yMin="0" xMax="564" yMax="866">
      <contour>
        <pt x="327" y="799" on="1"/>
        <pt x="313" y="799" on="0"/>
        <pt x="294" y="815" on="0"/>
        <pt x="294" y="832" on="1"/>
        <pt x="294" y="850" on="0"/>
        <pt x="313" y="866" on="0"/>
        <pt x="327" y="866" on="1"/>
        <pt x="341" y="866" on="0"/>
        <pt x="361" y="849" on="0"/>
        <pt x="361" y="832" on="1"/>
        <pt x="361" y="815" on="0"/>
        <pt x="341" y="799" on="0"/>
      </contour>
      <contour>
        <pt x="79" y="740" on="1"/>
        <pt x="126" y="740" on="1"/>
        <pt x="471" y="160" on="1"/>
        <pt x="517" y="75" on="1"/>
        <pt x="522" y="76" on="1"/>
        <pt x="522" y="740" on="1"/>
        <pt x="564" y="740" on="1"/>
        <pt x="564" y="0" on="1"/>
        <pt x="516" y="0" on="1"/>
        <pt x="175" y="574" on="1"/>
        <pt x="126" y="664" on="1"/>
        <pt x="121" y="663" on="1"/>
        <pt x="121" y="0" on="1"/>
        <pt x="79" y="0" on="1"/>
      </contour>
    </TTGlyph>
    <TTGlyph name="Ndotaccent.sc" xMin="75" yMin="0" xMax="497" yMax="684">
      <contour>
        <pt x="75" y="577" on="1"/>
        <pt x="120" y="577" on="1"/>
        <pt x="412" y="139" on="1"/>
        <pt x="452" y="72" on="1"/>
        <pt x="456" y="73" on="1"/>
        <pt x="456" y="577" on="1"/>
        <pt x="497" y="577" on="1"/>
        <pt x="497" y="0" on="1"/>
        <pt x="453" y="0" on="1"/>
        <pt x="162" y="435" on="1"/>
        <pt x="120" y="504" on="1"/>
        <pt x="116" y="504" on="1"/>
        <pt x="116" y="0" on="1"/>
        <pt x="75" y="0" on="1"/>
      </contour>
      <contour>
        <pt x="290" y="624" on="1"/>
        <pt x="276" y="624" on="0"/>
        <pt x="259" y="638" on="0"/>
        <pt x="259" y="655" on="1"/>
        <pt x="259" y="670" on="0"/>
        <pt x="276" y="684" on="0"/>
        <pt x="290" y="684" on="1"/>
        <pt x="304" y="684" on="0"/>
        <pt x="322" y="670" on="0"/>
        <pt x="322" y="655" on="1"/>
        <pt x="322" y="638" on="0"/>
        <pt x="304" y="624" on="0"/>
      </contour>
    </TTGlyph>
    <TTGlyph name="Ntilde" xMin="79" yMin="0" xMax="564" yMax="903">
      <contour>
        <pt x="183" y="849" on="1"/>
        <pt x="197" y="869" on="0"/>
        <pt x="247" y="903" on="0"/>
        <pt x="271" y="903" on="1"/>
        <pt x="290" y="903" on="0"/>
        <pt x="320" y="890" on="0"/>
        <pt x="348" y="873" on="0"/>
        <pt x="375" y="860" on="0"/>
        <pt x="392" y="860" on="1"/>
        <pt x="408" y="860" on="0"/>
        <pt x="435" y="882" on="0"/>
        <pt x="445" y="900" on="1"/>
        <pt x="472" y="880" on="1"/>
        <pt x="461" y="854" on="0"/>
        <pt x="413" y="821" on="0"/>
        <pt x="389" y="821" on="1"/>
        <pt x="370" y="821" on="0"/>
        <pt x="340" y="834" on="0"/>
        <pt x="312" y="851" on="0"/>
        <pt x="284" y="864" on="0"/>
        <pt x="268" y="864" on="1"/>
        <pt x="251" y="864" on="0"/>
        <pt x="218" y="841" on="0"/>
        <pt x="207" y="825" on="1"/>
      </contour>
      <contour>
        <pt x="79" y="740" on="1"/>
        <pt x="126" y="740" on="1"/>
        <pt x="471" y="160" on="1"/>
        <pt x="517" y="75" on="1"/>
        <pt x="522" y="76" on="1"/>
        <pt x="522" y="740" on="1"/>
        <pt x="564" y="740" on="1"/>
        <pt x="564" y="0" on="1"/>
        <pt x="516" y="0" on="1"/>
        <pt x="175" y="574" on="1"/>
        <pt x="126" y="664" on="1"/>
        <pt x="121" y="663" on="1"/>
        <pt x="121" y="0" on="1"/>
        <pt x="79" y="0" on="1"/>
      </contour>
    </TTGlyph>
    <TTGlyph name="Ntilde.sc" xMin="75" yMin="0" xMax="497" yMax="709">
      <contour>
        <pt x="164" y="662" on="1"/>
        <pt x="178" y="681" on="0"/>
        <pt x="221" y="709" on="0"/>
        <pt x="243" y="709" on="1"/>
        <pt x="259" y="709" on="0"/>
        <pt x="285" y="699" on="0"/>
        <pt x="310" y="686" on="0"/>
        <pt x="334" y="676" on="0"/>
        <pt x="349" y="676" on="1"/>
        <pt x="378" y="676" on="0"/>
        <pt x="397" y="707" on="1"/>
        <pt x="420" y="691" on="1"/>
        <pt x="409" y="668" on="0"/>
        <pt x="367" y="640" on="0"/>
        <pt x="345" y="640" on="1"/>
        <pt x="328" y="640" on="0"/>
        <pt x="302" y="651" on="0"/>
        <pt x="277" y="663" on="0"/>
        <pt x="252" y="674" on="0"/>
        <pt x="238" y="674" on="1"/>
        <pt x="224" y="674" on="0"/>
        <pt x="195" y="657" on="0"/>
        <pt x="184" y="643" on="1"/>
      </contour>
      <contour>
        <pt x="75" y="577" on="1"/>
        <pt x="120" y="577" on="1"/>
        <pt x="412" y="139" on="1"/>
        <pt x="452" y="72" on="1"/>
        <pt x="456" y="73" on="1"/>
        <pt x="456" y="577" on="1"/>
        <pt x="497" y="577" on="1"/>
        <pt x="497" y="0" on="1"/>
        <pt x="453" y="0" on="1"/>
        <pt x="162" y="435" on="1"/>
        <pt x="120" y="504" on="1"/>
        <pt x="116" y="504" on="1"/>
        <pt x="116" y="0" on="1"/>
        <pt x="75" y="0" on="1"/>
      </contour>
    </TTGlyph>
    <TTGlyph name="O" xMin="48" yMin="-10" xMax="544" yMax="750">
      <contour>
        <pt x="296" y="-10" on="1"/>
        <pt x="48" y="-10" on="0"/>
        <pt x="48" y="369" on="1"/>
        <pt x="48" y="562" on="0"/>
        <pt x="170" y="750" on="0"/>
        <pt x="296" y="750" on="1"/>
        <pt x="544" y="750" on="0"/>
        <pt x="544" y="369" on="1"/>
        <pt x="544" y="-10" on="0"/>
      </contour>
      <contour>
        <pt x="296" y="31" on="1"/>
        <pt x="402" y="31" on="0"/>
        <pt x="501" y="193" on="0"/>
        <pt x="501" y="369" on="1"/>
        <pt x="501" y="543" on="0"/>
        <pt x="401" y="709" on="0"/>
        <pt x="296" y="709" on="1"/>
        <pt x="189" y="709" on="0"/>
        <pt x="91" y="546" on="0"/>
        <pt x="91" y="369" on="1"/>
        <pt x="91" y="192" on="0"/>
        <pt x="189" y="31" on="0"/>
      </contour>
    </TTGlyph>
    <TTGlyph name="O.sc" xMin="47" yMin="-8" xMax="481" yMax="585">
      <contour>
        <pt x="264" y="-8" on="1"/>
        <pt x="47" y="-8" on="0"/>
        <pt x="47" y="288" on="1"/>
        <pt x="47" y="585" on="0"/>
        <pt x="264" y="585" on="1"/>
        <pt x="481" y="585" on="0"/>
        <pt x="481" y="288" on="1"/>
        <pt x="481" y="-8" on="0"/>
      </contour>
      <contour>
        <pt x="264" y="32" on="1"/>
        <pt x="354" y="32" on="0"/>
        <pt x="438" y="155" on="0"/>
        <pt x="438" y="288" on="1"/>
        <pt x="438" y="421" on="0"/>
        <pt x="353" y="545" on="0"/>
        <pt x="264" y="545" on="1"/>
        <pt x="173" y="545" on="0"/>
        <pt x="89" y="423" on="0"/>
        <pt x="89" y="288" on="1"/>
        <pt x="89" y="153" on="0"/>
        <pt x="173" y="32" on="0"/>
      </contour>
    </TTGlyph>
    <TTGlyph name="OE" xMin="48" yMin="-2" xMax="711" yMax="742">
      <contour>
        <pt x="298" y="-2" on="1"/>
        <pt x="48" y="-2" on="0"/>
        <pt x="48" y="369" on="1"/>
        <pt x="48" y="742" on="0"/>
        <pt x="298" y="742" on="1"/>
        <pt x="315" y="742" on="0"/>
        <pt x="366" y="741" on="0"/>
        <pt x="380" y="740" on="1"/>
        <pt x="702" y="740" on="1"/>
        <pt x="702" y="699" on="1"/>
        <pt x="420" y="699" on="1"/>
        <pt x="420" y="396" on="1"/>
        <pt x="670" y="396" on="1"/>
        <pt x="670" y="356" on="1"/>
        <pt x="420" y="356" on="1"/>
        <pt x="420" y="41" on="1"/>
        <pt x="711" y="41" on="1"/>
        <pt x="711" y="0" on="1"/>
        <pt x="380" y="0" on="1"/>
        <pt x="366" y="-1" on="0"/>
        <pt x="315" y="-2" on="0"/>
      </contour>
      <contour>
        <pt x="299" y="39" on="1"/>
        <pt x="315" y="39" on="0"/>
        <pt x="362" y="40" on="0"/>
        <pt x="377" y="41" on="1"/>
        <pt x="377" y="698" on="1"/>
        <pt x="362" y="700" on="0"/>
        <pt x="316" y="701" on="0"/>
        <pt x="299" y="701" on="1"/>
        <pt x="191" y="701" on="0"/>
        <pt x="92" y="541" on="0"/>
        <pt x="92" y="369" on="1"/>
        <pt x="92" y="283" on="0"/>
        <pt x="116" y="158" on="0"/>
        <pt x="166" y="77" on="0"/>
        <pt x="245" y="39" on="0"/>
      </contour>
    </TTGlyph>
</ttFont>
